<?xml version="1.0" encoding="utf-8"?>
<!-- Generator: Adobe Illustrator 23.0.1, SVG Export Plug-In . SVG Version: 6.00 Build 0)  -->
<svg version="1.1" id="Capa_1" xmlns="http://www.w3.org/2000/svg" xmlns:xlink="http://www.w3.org/1999/xlink" x="0px" y="0px"
	 viewBox="0 0 59.1 61.8" style="enable-background:new 0 0 59.1 61.8;" xml:space="preserve">
<style type="text/css">
	.st0{fill:#2063F1;}
	.st1{fill:none;stroke:#2063F1;stroke-miterlimit:10;}
	.st2{fill:#FFFFFF;stroke:#2063F1;stroke-miterlimit:10;}
	.st3{fill-rule:evenodd;clip-rule:evenodd;fill:#2063F1;}
	.st4{fill-rule:evenodd;clip-rule:evenodd;fill:#FFFFFF;}
	.st5{fill:#B3B3B3;}
	.st6{fill:none;stroke:#2063F1;stroke-width:2;stroke-linecap:round;stroke-linejoin:round;}
	.st7{fill:none;stroke:#2063F1;stroke-width:2;stroke-linecap:round;stroke-linejoin:round;stroke-dasharray:1.9934,9.9672;}
	.st8{fill-rule:evenodd;clip-rule:evenodd;fill:#2163F2;}
	.st9{fill:none;stroke:#FFFFFF;stroke-width:2;stroke-linecap:round;stroke-linejoin:round;}
	.st10{fill:none;stroke:#FFFFFF;stroke-width:2;stroke-linecap:round;stroke-linejoin:round;stroke-dasharray:1.9934,9.9672;}
	.st11{fill:#FFFFFF;}
	.st12{fill:none;}
	
		.st13{fill:none;stroke:#FFFFFF;stroke-width:1.0082;stroke-linecap:round;stroke-linejoin:round;stroke-miterlimit:10;stroke-dasharray:2.0164,10.0822;}
	.st14{fill:none;stroke:#2063F1;stroke-width:2.1021;stroke-linecap:round;stroke-linejoin:round;}
	.st15{fill:none;stroke:#2063F1;stroke-width:2.1021;stroke-linecap:round;stroke-linejoin:round;stroke-dasharray:4.18,20.9001;}
	.st16{fill:none;stroke:#2063F1;stroke-width:2.1021;stroke-linecap:round;stroke-linejoin:round;stroke-dasharray:3.7182,18.591;}
	
		.st17{fill-rule:evenodd;clip-rule:evenodd;fill:none;stroke:#2063F1;stroke-width:2;stroke-linecap:round;stroke-linejoin:round;stroke-miterlimit:10;stroke-dasharray:2,10;}
	
		.st18{fill-rule:evenodd;clip-rule:evenodd;fill:none;stroke:#2063F1;stroke-width:2;stroke-linecap:round;stroke-linejoin:round;stroke-miterlimit:10;}
	
		.st19{fill-rule:evenodd;clip-rule:evenodd;fill:none;stroke:#2063F1;stroke-width:2.1239;stroke-linecap:round;stroke-linejoin:round;stroke-miterlimit:10;}
	.st20{fill:none;stroke:#2063F1;stroke-width:2;stroke-linejoin:round;stroke-miterlimit:10;}
	.st21{fill:#A6A6A6;}
	.st22{fill:#F5F5F5;}
	.st23{fill:none;stroke:#FFFFFF;stroke-width:2;stroke-linecap:round;stroke-linejoin:round;stroke-miterlimit:10;}
	.st24{fill:none;stroke:#2063F1;stroke-width:2;stroke-linecap:round;stroke-linejoin:round;stroke-miterlimit:10;}
	.st25{fill:none;stroke:#2063F1;stroke-width:2;stroke-linecap:round;stroke-linejoin:round;stroke-dasharray:7.9483,14.9031;}
	.st26{fill:none;stroke:#2063F1;stroke-width:2;stroke-linecap:round;stroke-linejoin:round;stroke-dasharray:8.0822,15.1541;}
	.st27{fill:#CCCCCC;}
	.st28{fill:none;stroke:#2063F1;stroke-width:2;stroke-linecap:round;stroke-linejoin:round;stroke-dasharray:7.7616,14.5529;}
	.st29{fill:none;stroke:#C1C1C1;stroke-width:0.5;stroke-miterlimit:10;}
	.st30{fill:none;stroke:#2063F1;stroke-width:2;stroke-linecap:round;stroke-linejoin:round;stroke-dasharray:7.948,14.9026;}
	.st31{fill:none;stroke:#2063F1;stroke-width:2;stroke-linecap:round;stroke-linejoin:round;stroke-dasharray:8.1385,15.2597;}
</style>
<g>
	<path class="st4" d="M49.15,9.43c0.13,0.1,0.03,0.04,0.25,0.12C49.27,9.45,49.36,9.51,49.15,9.43L49.15,9.43z"/>
	<path class="st4" d="M50.01,9.43c0.13,0.1,0.03,0.04,0.25,0.12C50.13,9.45,50.22,9.51,50.01,9.43L50.01,9.43z"/>
	<path class="st4" d="M37.83,12.01c0.14,0.15,0.31,0.26,0.49,0.37c0-0.08,0-0.16,0-0.25C38.16,12.09,38,12.05,37.83,12.01
		L37.83,12.01z"/>
	<path class="st4" d="M45.58,12.75c0.13,0.1,0.03,0.04,0.25,0.12C45.7,12.77,45.79,12.83,45.58,12.75L45.58,12.75z"/>
	<path class="st4" d="M34.76,13c0.14,0.42,0.15,0.18-0.25,0.37c-0.08,0.15-0.13,0.25-0.25,0.37c0.08,0.22,0.02,0.12,0.12,0.25
		c0.13,0.1,0.03,0.04,0.25,0.12c0-0.39-0.21-0.17,0.12-0.37c0.09,0.07,0.01,0.18,0.25,0.12c0-0.04,0-0.08,0-0.12
		c0.1-0.13,0.04-0.03,0.12-0.25c-0.09-0.19-0.02-0.02,0-0.37C35.01,13.08,34.88,13.04,34.76,13L34.76,13z"/>
	<path class="st4" d="M40.29,12.99c0,0.08,0,0.16,0,0.25c0.04,0,0.08,0,0.12,0c0-0.08,0-0.16,0-0.25
		C40.38,12.99,40.33,12.99,40.29,12.99L40.29,12.99z"/>
	<path class="st4" d="M45.7,12.99c0.01,0.27-0.03,0.09,0.25,0.12c0-0.04,0-0.08,0-0.12C45.87,12.99,45.79,12.99,45.7,12.99
		L45.7,12.99z"/>
	<path class="st4" d="M38.82,13.24c-0.04,0.12-0.08,0.25-0.12,0.37c0.04,0,0.08,0,0.12,0c0-0.08,0-0.16,0-0.25
		C38.85,13.24,38.91,13.32,38.82,13.24L38.82,13.24z"/>
	<path class="st4" d="M35.74,13.36c0.13,0.1,0.03,0.04,0.25,0.12C35.86,13.39,35.96,13.44,35.74,13.36L35.74,13.36z"/>
	<path class="st4" d="M42.14,13.85c0,0.08,0,0.16,0,0.25c0.04,0,0.08,0,0.12,0c0-0.08,0-0.16,0-0.25
		C42.22,13.85,42.18,13.85,42.14,13.85L42.14,13.85z"/>
	<path class="st4" d="M57.26,8.69c0.12,0.12,0.25,0.25,0.37,0.37c0.2-0.11,0.9-0.19,1.35-0.25c0.04,0.04,0.08,0.08,0.12,0.12
		c-0.04,0.12-0.08,0.25-0.12,0.37c-0.63-0.2-1.29,0.23-1.6,0.12c-0.31-0.18-0.19-0.05-0.25-0.49C57.24,8.81,57.18,8.9,57.26,8.69
		L57.26,8.69z"/>
	<path class="st4" d="M53.82,9.67c0,0.08,0,0.16,0,0.25c0.04-0.04,0.08-0.08,0.12-0.12c0.04,0,0.08,0,0.12,0
		C53.94,9.7,54.03,9.75,53.82,9.67L53.82,9.67z"/>
	<path class="st4" d="M54.43,9.67c0.13,0.1,0.03,0.04,0.25,0.12C54.55,9.7,54.64,9.75,54.43,9.67L54.43,9.67z"/>
	<path class="st4" d="M57.75,9.79c0.1,0.13,0.04,0.03,0.12,0.25c-0.04,0-0.08,0-0.12,0C57.75,9.96,57.75,9.88,57.75,9.79L57.75,9.79
		z"/>
	<path class="st4" d="M55.54,9.92c-0.13,0.1-0.03,0.04-0.25,0.12c0.13,0.1,0.03,0.04,0.25,0.12c0.04,0.04,0.08,0.08,0.12,0.12
		c0-0.12,0-0.25,0-0.37C55.62,9.92,55.58,9.92,55.54,9.92L55.54,9.92z"/>
	<path class="st4" d="M58.24,10.65c-0.2,0-0.41,0-0.61,0c0-0.08,0-0.16,0-0.25c0.57,0.01,0.25,0.11,0.61-0.25
		C58.24,10.33,58.24,10.49,58.24,10.65L58.24,10.65z"/>
	<path class="st4" d="M55.66,10.41c0.13,0.1,0.03,0.04,0.25,0.12C55.78,10.43,55.87,10.49,55.66,10.41L55.66,10.41z"/>
	<path class="st4" d="M54.8,10.78c0.03,0.32-0.06,0.22,0.49,0.25c0.13,0.1,0.03,0.04,0.25,0.12c0-0.08,0-0.16,0-0.25
		c-0.12,0-0.25,0-0.37,0C55.04,10.81,55.05,10.83,54.8,10.78L54.8,10.78z"/>
	<path class="st4" d="M57.75,11.02c0.1,0.13,0.04,0.03,0.12,0.25c-0.08,0-0.16,0-0.25,0c-0.13,0.09-0.12,0.07-0.37,0.12
		c0-0.04,0-0.08,0-0.12c0.04,0,0.08,0,0.12,0C57.48,11.19,57.66,11.11,57.75,11.02L57.75,11.02z"/>
	<path class="st4" d="M55.17,11.27c0.13,0.1,0.03,0.04,0.25,0.12C55.29,11.29,55.38,11.35,55.17,11.27L55.17,11.27z"/>
	<path class="st4" d="M52.59,11.89c0,0.08,0,0.16,0,0.25c0.08,0,0.16,0,0.25,0c0-0.08,0-0.16,0-0.25
		C52.75,11.89,52.67,11.89,52.59,11.89L52.59,11.89z"/>
	<path class="st4" d="M54.06,11.89c0,0.33-0.16,0.2,0.25,0.37c0-0.12,0-0.25,0-0.37C54.23,11.89,54.15,11.89,54.06,11.89
		L54.06,11.89z"/>
	<path class="st4" d="M57.14,11.88c0.2,0,0.41,0,0.62,0c0,0.08,0,0.16,0,0.25c-0.2,0-0.41,0-0.62,0
		C57.14,12.05,57.14,11.97,57.14,11.88L57.14,11.88z"/>
	<path class="st4" d="M54.68,12.25c0,0.08,0,0.16,0,0.25c0.04-0.04,0.08-0.08,0.12-0.12c0.04,0,0.08,0,0.12,0
		C54.8,12.28,54.89,12.33,54.68,12.25L54.68,12.25z"/>
	<path class="st4" d="M55.29,12.25c-0.12,0.35-0.35,0.53-0.37,0.61c0.17,0.21,0.35,0.25,0.62,0.37c-0.12-0.24-0.37-0.4-0.25-0.49
		c0.19-0.11,0.39-0.07,0.74-0.12c0-0.04,0-0.08,0-0.12C55.55,12.45,55.64,12.38,55.29,12.25L55.29,12.25z"/>
	<path class="st4" d="M56.28,12.25c0.12,0.04,0.25,0.08,0.37,0.12c0,0.08,0,0.16,0,0.25c-0.08,0-0.16,0-0.25,0c0-0.04,0-0.08,0-0.12
		C56.3,12.37,56.36,12.47,56.28,12.25L56.28,12.25z"/>
	<path class="st4" d="M53.82,12.5c0.21,0.25,0.26,0.23,0.74,0.25c0-0.04,0-0.08,0-0.12C54.09,12.58,54.1,12.61,53.82,12.5
		L53.82,12.5z"/>
	<path class="st4" d="M56.4,14.47c-0.47,0-0.74-0.04-0.98-0.25c-0.04-0.04-0.08-0.08-0.12-0.12c0.19-0.07,0.21-0.08,0.49-0.12
		c0.17,0.15,0.22,0.17,0.49,0.25c0-0.39-0.18-0.23,0.25-0.37c0.18,0.13,0.48,0.19,0.74,0.25c0,0.08,0,0.16,0,0.25
		c-0.08,0-0.16,0-0.25,0c-0.13,0.15-0.31-0.14-0.61-0.25C56.4,14.22,56.4,14.34,56.4,14.47L56.4,14.47z"/>
	<path class="st4" d="M52.1,14.47c0.05,0.32-0.09,0.16,0.25,0.25c0-0.08,0-0.16,0-0.25C52.26,14.47,52.18,14.47,52.1,14.47
		L52.1,14.47z"/>
	<g>
		<path class="st4" d="M58,13.48c-0.94-0.01-4.3,0.28-4.67,0.98c0.37,0.01,0.34,0.09,0.49,0c0.19-0.19-0.02-0.38,0.61-0.49
			c-0.04,0.39,0.07,0.36,0,0.49c-0.34,0.29-0.84,0.12-1.11,0.25c-0.1,0.12-0.18,0.34-0.25,0.49c-0.12-0.04-0.25-0.08-0.37-0.12
			c-0.05-0.26-0.03-0.24-0.12-0.37c-0.84,0.8-0.82,0.04-1.48,0.25c-0.32,0.1-0.56,0.57-0.98,0.37c-0.22-0.08-0.12-0.02-0.25-0.12
			c0.08-0.08,0.16-0.16,0.25-0.25c-0.04-0.04-0.08-0.08-0.12-0.12c-0.58,0.22-1.06,0.13-1.97,0.49c-0.04,0.12-0.08,0.25-0.12,0.37
			c0.28-0.05,0.13-0.11,0.37,0c-0.04,0-0.08,0-0.12,0c-0.27,0.28-0.42,0.35-0.98,0.37c-0.83-0.51-1.47,0.31-2.34,0.49
			c-0.56,0.12-0.68-0.2-1.23-0.12c0-0.57-0.09-0.45-0.49-0.86c-0.69,0.28-1.45,0.57-2.34,0.62c-0.04-0.04-0.08-0.08-0.12-0.12
			c0.04-0.12,0.08-0.25,0.12-0.37c0.56,0.01,0.59,0.04,0.98,0c0-0.08,0-0.16,0-0.25c-0.04,0-0.08,0-0.12,0
			c-0.08-0.22-0.02-0.12-0.12-0.25c-0.3,0.33-1.08,0.37-1.23,0.49c-0.09,0.13-0.07,0.12-0.12,0.37c0.08,0.08,0.16,0.16,0.25,0.25
			c-0.37,0.12-0.74,0.25-1.11,0.37c0,0.08,0,0.16,0,0.25c0.08,0,0.16,0,0.25,0c0.17-0.2,0.08-0.14,0.37-0.25c0,0.04,0,0.08,0,0.12
			c-0.28,0.27-0.31,0.46-0.74,0.61c0.04-0.12,0.08-0.25,0.12-0.37c-0.12,0-0.25,0-0.37,0c-0.04,0.45-0.08,0.9-0.12,1.35
			c0.05,0.21,0.32,0.67,0.25,0.98c0,0.01-0.37,1.35-0.37,1.35c0.03,0.09,0.28,0.11,0.37,0.37c-0.33,0.18-0.38,0.08-0.49,0.37
			c0.12,0,0.25,0,0.37,0c-0.09,1.38-0.01,1.74-0.25,3.2c-0.39,0-0.23-0.17-0.37,0.25c0.46,0.1,0.38-0.12,0.49,0.37
			c-0.34,0.16-0.3,0.17-0.37,0.61c0.26,0.05,0.24,0.03,0.37,0.12c-0.82,0.44-0.4,1.74-0.37,2.58c0.67-0.01,1.34,0.29,1.72,0.25
			c0.7-0.08,1.41-0.86,2.34-0.25c0.1-0.4-0.06-0.19,0.25-0.37c0,0.12,0,0.25,0,0.37c0.89-0.08,2.19-0.34,2.83,0
			c0.21,0.11,0.3,0.47,0.61,0.61c0-0.39-0.21-0.17,0.12-0.37c0.04,0.12,0.08,0.25,0.12,0.37c1.02-0.22,1.13-0.41,1.97,0
			c0.22-0.57,0.44-0.69,0.74-1.35c0.33,0.15,0.22-0.11,0.37,0.25c-0.08,0.08-0.16,0.16-0.25,0.25c0.04,0,0.08,0,0.12,0
			c0.15,0.1,0.21,0.1,0.49,0.12c0-0.39-0.21-0.17,0.12-0.37c0.36,0.59,0.94-0.06,1.35-0.12c0.39-0.06,0.1,0.26,0.37,0.25
			c0.04-0.04,0.08-0.08,0.12-0.12c0.32-0.15,0.34-0.31,0.49-0.61c0.04,0,0.08,0,0.12,0c0,0.12,0,0.25,0,0.37
			c0.26-0.05,0.24-0.03,0.37-0.12c0.18-0.23,0.09-0.33,0.37-0.49c0.05,0.26,0.03,0.24,0.12,0.37c0.13-0.1,0.03-0.04,0.25-0.12
			c-0.05-0.38-0.09-0.29,0-0.62c0.43,0.06,0.37,0.05,0.86,0c0,0.12,0,0.25,0,0.37c-0.26,0.05-0.24,0.03-0.37,0.12
			c0.04,0,0.08,0,0.12,0c0.22,0.15,0.22,0,0.37,0.12c0.2,0.22,0.29,0.38,0.37,0.74c0,0.1-0.06,0.11-0.12,0.49
			c0.2,0.08,0.41,0.16,0.62,0.25c-0.04,0.47,0.01,0.93,0.12,1.6c-0.51,0.1-0.32,0.2-0.74,0.12c-0.09,0.51-0.5,0.88-0.98,0.98
			c0.04,0.29,0.06,0.3,0.12,0.49c-1,0.37-1.42,1.41-2.7,1.48c-0.09-0.04-0.52-0.06-0.62,0c-0.04,0-0.08,0-0.12,0
			c0.04,0.08,0.08,0.16,0.12,0.25c-0.04,0-0.08,0-0.12,0c-0.53,0.31-0.96-0.08-1.23,0c-0.98,0.27-2.18,0.92-3.81,1.11
			c0-0.08,0-0.16,0-0.25c0.04-0.04,0.08-0.08,0.12-0.12c0.65-0.08,1.36-0.19,1.72-0.74c-0.04,0-0.08,0-0.12,0
			c-0.27,0.18-0.92,0.29-1.23,0.37c0-0.2,0-0.41,0-0.61c-0.92,0.12-1.14,0.5-1.72,0.62c-0.13,0.03-0.72-0.34-1.11-0.37
			c-0.16,0.27-0.31,0.48-0.61,0.61c-0.02-0.29-0.02-0.35-0.12-0.49c-0.11,0.11-0.22,0.16-0.37,0.25c0.21,0.36,0.13,0,0.12,0.49
			c-0.08,0-0.16,0-0.25,0c-0.06,0.05-1.18-0.08-1.35-0.37c0.04-0.04,0.08-0.08,0.12-0.12c0.27,0.12,0.35,0.19,0.74,0.25
			c0-0.16,0-0.33,0-0.49c-0.08,0-0.16,0-0.25,0c-0.13-0.09-0.12-0.07-0.37-0.12c-0.99,0.85-1.2,0.65-2.21,1.35
			c0.13,0.71,0.48,1.11,0.62,1.84c0.09,0.46-0.41,0.97-0.49,1.23c-0.12,0.37,0.44,0.73,0.49,0.86c0.16,0.4-0.4,0.22-0.12,0.49
			c0.16,0.16,0.33,0.33,0.49,0.49c-0.46,0.84-0.01,1.13,0.12,1.84c0.09,0.48-0.35,0.55-0.25,0.86c0.19,0.55,0.56,1.08,0.62,1.84
			c-0.04,0-0.08,0-0.12,0c-0.17-0.2-0.08-0.14-0.37-0.25c0,0.08,0,0.16,0,0.25c0.22,0.12,0.21,0.15,0.49,0.25
			c-0.19,0.22-0.24,0.16-0.37,0.49c0.35,0.24,0.37,0.37,0.37,0.98c-1,0.45,0.4,1.56,0.25,2.71c-0.07,0.54-0.3,0.92-0.12,1.6
			c0.29,1.11,0.88,1.61,0.62,3.07c0.45-0.04,0.17-0.07,0.49,0.25c0.12-0.2,0.25-0.41,0.37-0.61c0.04,0.04,0.08,0.08,0.12,0.12
			c0.04,0,0.08,0,0.12,0c-0.27,0.54-0.38,0.57-0.49,1.11c0.52,0.11,0.64,0.06,0.74,0.49c0.09,0.13,0.07,0.12,0.12,0.37
			c-0.04,0.04-0.08,0.08-0.12,0.12c-0.04,0-0.08,0-0.12,0c0-0.39,0.21-0.17-0.12-0.37c-0.04,0.04-0.08,0.08-0.12,0.12
			c0.16,0.37,0.27,0.25,0.37,0.74c-0.08,0-0.16,0-0.25,0c0,0.04,0,0.08,0,0.12c-0.08-0.04-0.16-0.08-0.25-0.12c0,0.04,0,0.08,0,0.12
			c-0.14,0.14-0.23,0.35-0.37,0.49c0.12,0.28,0.09,0.34,0.37,0.49c0.13-0.09,0.12-0.07,0.37-0.12c0.07,0.46,0.16,0.41,0.25,0.86
			c-0.04,0-0.08,0-0.12,0c-0.13-0.09-0.12-0.07-0.37-0.12c-0.05-0.26-0.03-0.24-0.12-0.37c0,0.12,0,0.25,0,0.37
			c0.19,0.14,0.1,0.13,0.37,0.25c0,0.04,0,0.08,0,0.12c0.08-0.04,0.16-0.08,0.25-0.12c0,0.04,0,0.08,0,0.12
			c0.09,0.13,0.07,0.12,0.12,0.37c-0.2,0-0.41,0-0.62,0c0,0.08,0,0.16,0,0.25c0.04,0.04,0.08,0.08,0.12,0.12
			c0.08-0.04,0.16-0.08,0.25-0.12c0,0.04,0,0.08,0,0.12c0.1,0.13,0.04,0.03,0.12,0.25c-0.08,0.08-0.16,0.16-0.25,0.25
			c-0.48-0.48-0.37-0.42-0.98-0.61c0,0.08,0,0.16,0,0.25c0.24,0.1,0.22,0.45,0.12,0.62c0,0.04,0,0.08,0,0.12
			c-0.14-0.14-0.23-0.35-0.37-0.49c-0.02,0.32-0.05,0.42-0.12,0.62c-0.55-0.14-0.37-0.25-0.86-0.25c0-0.33,0-0.57-0.12-0.74
			c0,0.04,0,0.08,0,0.12c-0.07,0.1-0.04,0.48-0.25,0.74c-0.19-0.19-0.31-0.27-0.61-0.37c-0.04,0.04-0.08,0.08-0.12,0.12
			c0.12,0.31,0.24,0.5,0.12,0.74c0,0.04,0,0.08,0,0.12c-0.08,0-0.16,0-0.25,0c-0.1-0.36-0.05-0.34-0.37-0.49
			c-0.13,0.09-0.12,0.07-0.37,0.12c-0.05-0.26-0.03-0.24-0.12-0.37c0,0.04,0,0.08,0,0.12c-0.19,0.21,0.14,0.16-0.25,0.37
			c0-0.12,0-0.25,0-0.37c-0.44-0.06-0.81-0.28-0.98-0.61c0.27-0.25,0.12-0.24,0.25-0.61c-0.43,0.01-0.26,0.08-0.49-0.37
			c-0.12,0.04-0.25,0.08-0.37,0.12c-0.14-0.89-0.47-1.13-0.25-1.84c0.26,0.14,0.23,0.18,0.62,0.25c0-0.04,0-0.08,0-0.12
			c-0.31-0.2-0.48-0.22-0.62-0.49c0.36-0.1,0.34-0.05,0.49-0.37c-0.31-0.18-0.39-0.19-0.49-0.62c0.08,0,0.16,0,0.25,0
			c0,0.04,0,0.08,0,0.12c0.04-0.04,0.08-0.08,0.12-0.12c0.06-0.08,0.12-0.5,0.25-0.74c-0.39-0.04-0.49-0.02-0.62-0.12
			c-0.14-0.22-0.13-0.6,0-0.98c-0.12,0-0.25,0-0.37,0c0.05-0.84,0.16-2.36-0.12-2.83c-0.2-0.32-0.46-0.49-0.61-0.86
			c0.04,0,0.08,0,0.12,0c0.41,0.29,0.47,0.01,0.98,0c0.1,0.4-0.06,0.19,0.25,0.37c0-0.04,0-0.08,0-0.12
			c-0.08-0.17-0.06-0.64-0.12-0.98c-0.55-0.09-0.57-0.15-0.62-0.74c0.19-0.07,0.21-0.08,0.49-0.12c0,0.08,0,0.16,0,0.25
			c-0.23,0.15-0.15-0.01-0.12,0.25c0,0.08,0,0.16,0,0.25c0.1-0.13,0.04-0.03,0.12-0.25c0.19-0.28,0.08-0.62-0.12-0.86
			c-0.18,0.31,0.03,0.14-0.37,0.25c-0.04-0.12-0.08-0.25-0.12-0.37c0.44-0.05,0.31,0.06,0.49-0.25c-0.09-0.13-0.07-0.12-0.12-0.37
			c-0.12,0-0.25,0-0.37,0c0.01-0.37,0.09-0.34,0-0.49c-0.04-0.08-0.08-0.16-0.12-0.25c-0.21,0.1-0.23,0.32-0.37,0.12
			c-0.33-0.23-0.35-0.29-0.37-0.86c-0.38-0.51,0.05-1.56,0.12-1.72c0.04,0,0.08,0,0.12,0c0,0.25,0,0.49,0,0.74
			c-0.08-0.04-0.16-0.08-0.25-0.12c0,0.04,0,0.08,0,0.12c0.04,0,0.08,0,0.12,0c0.15,0.1,0.21,0.09,0.49,0.12
			c-0.04-0.41-0.08-0.82-0.12-1.23c-0.36,0.1-0.41,0.05-0.86,0c0.04-0.04,0.08-0.08,0.12-0.12c-0.22-0.61-0.21-0.6,0.12-0.98
			c-0.16,0.04-0.33,0.08-0.49,0.12c0-0.12,0-0.25,0-0.37c0.68-0.2,0.54-0.87,0.37-1.6c0.04,0,0.08,0,0.12,0
			c0.04,0.08,0.08,0.16,0.12,0.25c0.05,0.12,0.06,0.3,0.12,0.61c0.08,0,0.16,0,0.25,0c-0.16-0.46-0.07-0.63,0.12-0.98
			c-0.41,0-1.27-0.61-1.35-1.35c0.08,0,0.16,0,0.25,0c0.16,0.3-0.05,0.08,0.25,0.25c0-0.08,0-0.16,0-0.25
			c-0.27-0.27-0.22-0.26-0.12-0.61c-0.41,0.1-0.43,0.21-0.62-0.25c0.04-0.04,0.08-0.08,0.12-0.12c0.22,0.12,0.21,0.15,0.49,0.25
			c0-0.08,0-0.16,0-0.25c0.05-0.31-0.08-0.79-0.25-1.11c0.12,0,0.25,0,0.37,0c-0.03-0.54-0.09-0.35,0.12-0.74
			c-0.17-0.27-0.3-0.13-0.37-0.62c-0.26-0.05-0.24-0.03-0.37-0.12c0.04,0,0.08,0,0.12,0c0.11-0.06,0.28,0.01,0.49-0.12
			c-0.18-0.15-0.22-0.32-0.37-0.49c-0.17,0.2-0.08,0.14-0.37,0.25c0.04-0.04,0.08-0.08,0.12-0.12c0.01-0.41,0.3-0.33,0.49-0.86
			c-0.39-0.24-0.29-0.76-0.62-0.98c-0.3-0.2-0.39,0.01-0.61-0.25c0.04-0.04,0.08-0.08,0.12-0.12c0.22,0.12,0.21,0.15,0.49,0.25
			c0.11-0.27,0.11-0.18,0.25-0.37c-0.04,0-0.08,0-0.12,0c-0.08-0.22-0.02-0.12-0.12-0.25c-0.11,0.11-0.22,0.16-0.37,0.25
			c0-0.16,0-0.33,0-0.49c0.25-0.14,0.47-0.22,0.61-0.49c-0.22-0.08-0.12-0.02-0.25-0.12c0.22-0.08,0.12-0.02,0.25-0.12
			c-0.2,0.04-0.41,0.08-0.61,0.12c0-0.04,0-0.08,0-0.12c0.32-0.22,0.44-0.5,0.61-0.86c0.29,0.17,0.07,0.21,0.37,0.12
			c0.29-0.1,0.2-0.05,0.37-0.25c-0.04-0.04-0.08-0.08-0.12-0.12c-0.56,0.17-0.3,0.08-0.86,0.12c-0.11-0.27-0.11-0.18-0.25-0.37
			c0.71-0.7-0.47-2.39,0.25-3.32c0.05,0.44-0.06,0.31,0.25,0.49c0.04,0.04,0.08,0.08,0.12,0.12c0-0.08,0-0.16,0-0.25
			c-0.16-0.17-0.28-0.38-0.37-0.62c0.36-0.16,0.25,0.14,0.37-0.37c0.12-0.26-0.09-0.77-0.12-1.35c-0.16,0-0.33,0-0.49,0
			c0-0.32-0.43-1.82-0.25-2.21c0.04-0.09,0.55-0.39,0.49-0.74c-0.07-0.41-0.78-0.92-0.62-1.72c0.09-0.45,0.5-0.71,0.61-0.98
			c-0.08-0.25-0.16-0.49-0.25-0.74c0.04-0.08,0.45-0.2,0.49-0.37c0.11-0.39-0.19-0.41-0.25-0.61c-0.09-0.33,0.14-1.07,0-1.48
			c0.4-0.1,0.19,0.06,0.37-0.25c0.12-0.3-0.11-1.25,0.37-1.97c0.14-0.1,0.21-0.09,0.49-0.12c0-0.32-0.16-0.11,0.12-0.37
			c0-0.04,0-0.08,0-0.12c-0.08-0.13-0.27-0.03-0.12-0.12c0.13-0.1,0.03-0.04,0.25-0.12c0,0,0.05,0.49,0.12,0.25
			c0-0.04,0-0.08,0-0.12c0.29-0.14,0.44-0.23,0.61-0.49c-0.08-0.08-0.16-0.16-0.25-0.25c0.99,0.06,0.71-0.71,1.48-1.11
			c0,0.04,0,0.08,0,0.12c-0.31,0.34-0.24,0.67-0.25,1.23c0.04,0,0.08,0,0.12,0c0.13-0.25,0.22-0.47,0.49-0.62
			c0.25,0.03,0.72-0.43,1.35-0.25c0,0.08,0,0.16,0,0.25c0.08,0,0.16,0,0.25,0c0.19-0.05,0.53-0.53,0.86-0.61
			c0.65-0.16,0.96,0.24,1.48,0.25l0.37-0.25c0.87-0.23,1.35,0.15,1.84-0.37c0,0,0.43,0.23,0.61,0.25c0.04-0.08,0.08-0.16,0.12-0.25
			c-0.08-0.08-0.16-0.16-0.25-0.25c0.22-0.08,0.12-0.02,0.25-0.12c0.22,0.08,0.12,0.02,0.25,0.12c0.5,0.21-0.07,0.53,0.74,0.61
			c0.16-0.11,0.15,0.04,0.37-0.12c0.08-0.08,0.16-0.16,0.25-0.25c-0.04-0.04-0.08-0.08-0.12-0.12c-0.41,0.03-0.65,0.07-0.98-0.25
			c1.35-0.03,2.28-0.75,3.32-0.49c0.04-0.29,0.06-0.3,0.12-0.49c0.96,0.41,0.65,0.08,1.35-0.25c0.32-0.14,1.11,0.06,1.6,0
			c0,0.12,0,0.25,0,0.37c0.12,0,0.25,0,0.37,0c-0.04-0.04-0.08-0.08-0.12-0.12c-0.24-0.1,0.25-0.12,0.25-0.12
			c0.17,0.2,0.08,0.14,0.37,0.25c0.18-0.46,0.74-0.71,1.35-0.74c0,0.04,0,0.08,0,0.12c-0.12,0.12-0.25,0.25-0.37,0.37
			c0.08,0,0.16,0,0.25,0c0.19-0.27,0.43-0.44,0.61-0.74c0.12,0.04,0.25,0.08,0.37,0.12c-0.02,0.4-0.22,0.37,0.37,0.49
			c0.43-0.29,2.3-0.35,2.95-0.37c0,0.08,0,0.16,0,0.25c-0.37,0.08-0.86,0.38-1.11,0.62c-0.43-0.12-0.41-0.26-0.86-0.37
			c-0.04,0.04-0.08,0.08-0.12,0.12c0,0.08,0,0.16,0,0.25c0.6-0.01,1.05,0.01,1.72,0.12c0.08,0.31,0.29,0.23,0.12,0.37
			c-0.37,0.26-0.67,0.13-0.74,0.86c-0.04,0.04-0.08,0.08-0.12,0.12c0.08,0,0.16,0,0.25,0c0.3,0.18,0.66,0.05,0.86,0.37
			c-0.29,0-0.57,0-0.86,0c-0.48,0.32-1.29,0.2-1.84,0.12c0,0.04,0,0.08,0,0.12c0.08,0,0.16,0,0.25,0c0.18,0.31,0.05,0.19,0.49,0.25
			c0.24,0.12,1.51-0.26,1.97-0.37c0,0.04,0,0.08,0,0.12c-0.04,0-0.08,0-0.12,0c-0.47,0.35-0.7,0.14-0.74,0.98
			c0.15,0.08,0.25,0.13,0.37,0.25c0.48-0.12,0.89-0.32,1.11,0c0.1,0.15,0.04,0.11,0.12,0.37c0.08-0.08,0.16-0.16,0.25-0.25
			C58,13.24,58,13.36,58,13.48L58,13.48z"/>
		<path class="st4" d="M15.71,49.62c-0.02-0.43-0.06-0.33,0-0.61c-0.47-0.08-2.05-3.34-2.46-4.18c-0.56-1.15-1.54-2.06-2.21-3.32
			c-0.63-1.17-0.84-2.48-1.6-3.56c0,0-0.48-0.48-0.49-0.49c-0.08-0.33-0.16-0.66-0.25-0.98c-0.08,0-0.16,0-0.25,0
			c0.04-0.16,0.08-0.33,0.12-0.49c-0.09-0.46-0.41-1.14-0.49-1.35c-0.35-0.94-0.38-2.75-0.12-3.2l0.49-0.49
			c0.11-0.27-0.5-0.37,0.12-0.74c0.21-0.19,0.16,0.14,0.37-0.25c-0.12-0.23-0.05-0.14,0-0.49c2.1-1.12,4.06-2.77,5.65-4.43
			c0.3-0.31,0.43-0.82,0.74-1.11c2-1.82,4.07-3.15,5.04-6.39c0.38-1.28,0.37-5.49-0.12-6.52c-0.37-0.77-1.12-1.42-1.6-2.09
			c-1.75-2.43-3.6-4.8-7.62-4.3C10.55,5.28,9.77,5.8,9.3,6.47c-1.09,1.58-1.37,3.42-2.09,5.41c-0.63,1.73-1.19,5.17-1.72,7.38
			c-0.2,0.83-0.03,2.29-0.12,2.95c-0.21,1.54-0.5,3.3-0.37,4.8c0.02,0.28-0.2,1.1-0.25,1.35c-0.26,1.36,0.17,3.08,0,4.55
			c-0.17,1.47-0.44,3.61-0.12,4.67c0.31,1.02-0.25,3.65-0.12,5.04c0.13,1.39,0.17,4.75,0.37,5.78c0.22,1.1-0.01,2.13-0.12,2.95
			c-0.15,1.16,0.17,2.91,0.25,3.57c0.15,1.2-0.25,2.57-0.12,3.32c0.29,1.7-0.21,3.14-1.6,3.44c-0.26,0.17-1.08,0.09-1.6,0.12
			c-0.41-0.64-0.87-0.68-1.35-1.11c0.16-0.23,0.24-0.21,0.37-0.49c-0.41,0.05-0.35,0.12-0.37-0.49c-0.14-0.31,0.08-1.41,0-2.09
			c-0.12-0.97-0.05-4.57-0.12-6.02c-0.05-0.87,0.35-2.37,0.12-3.44c-0.32-1.5,0.04-3.58-0.12-4.92c-0.43-3.55-0.09-7.35,0-10.82
			c0.16-6.47,0.45-14.92,2.33-20.78c0.98-3.04,1.46-5.3,3.19-7.5C6.38,3.32,6.7,1.96,7.7,1.55c0.21-0.17,0.4-0.23,0.74-0.74
			C8.9,1,8.55,0.99,9.06,0.56c0,0,0.53,0.23,0.74,0.25c0.15-0.31,0.28-0.43,0.49-0.49c0.17,0.2,0.08,0.14,0.37,0.25
			c-0.05-0.36-0.2-0.15,0.12-0.37c0.67-0.49,2.71,0.07,3.57,0.25c3.24,0.67,5.29,2.75,7.26,5.04c0.31,0.36,0.32,0.85,0.62,1.23
			c0.12,0.04,0.25,0.08,0.37,0.12c0.76,1,1.09,1.9,1.6,3.2c0.03,0.09,0.41,0.38,0.37,0.49c-0.17,0.06,0.54,2.88,0.25,4.3
			c-0.39,1.91-0.01,3.28-0.98,5.53c-0.13,0.29-0.42,0.28-0.61,0.49c0.4,0.53-0.29,1.08-0.61,1.6c-0.95,1.52-2.17,3-3.56,4.06
			c-0.86,0.65-2.97,2.42-3.32,3.07c0.04,0,0.08,0,0.12,0c-0.04,0.04-0.08,0.08-0.12,0.12c-0.08,0.08-0.16,0.16-0.25,0.25
			c-0.34-0.14-0.19-0.01-0.49-0.25c0,0.12,0,0.25,0,0.37c0.07,0.09,0.18,0.01,0.12,0.25c-0.04,0-0.08,0-0.12,0
			c-0.22,0.15-0.21,0-0.37,0.12c0.12,0.22,0.03,0,0,0.25c-0.41,0.2-0.86,0.48-1.23,0.74c-0.05-0.26-0.03-0.24-0.12-0.37
			c-0.05,0.56-0.12,0.63-0.61,0.74c-0.04-0.04-0.08-0.08-0.12-0.12c-0.03,0.55-0.55,0.32-0.61,1.23c0.25,0.38,0.68,2.32,0.62,2.58
			c0.04-0.04,0.08-0.08,0.12-0.12c0.1-0.24,0.12,0.25,0.12,0.25c0.09,0.11,1.12,1.77,0.86,2.09c0.87,0.96,1.7,2.42,2.34,3.56
			c0.04,0.2,0.08,0.41,0.12,0.62c1.33,1.77,2.4,3.98,3.57,5.9c0.68,1.12,1.08,2.22,1.84,3.2c0.18,0.22,0.38,0.71,0.25,0.86
			c0.52,0.5,2.8,3.21,2.95,3.81c0.08,0.32,0,1.19,0,1.84c-0.4,0.24-1.7,1.02-1.97,1.35c-0.74-0.31-1.22-0.94-1.6-1.6
			c0.22-0.08,0.12-0.02,0.25-0.12c-0.12,0.04-0.25,0.08-0.37,0.12c-0.38-0.98-1.78-2.05-2.46-2.83c-0.39-0.44-0.24-1.05-0.49-1.35
			c-0.83-1.01-1.53-2.14-2.21-3.32c0.22-0.08,0.12-0.02,0.25-0.12C15.95,49.62,15.83,49.62,15.71,49.62L15.71,49.62z"/>
	</g>
	<path class="st4" d="M33.78,14.47c-0.04,0.12-0.08,0.25-0.12,0.37c0.37,0.12,0.37,0.24,0.74,0.37c0.04-0.29,0.06-0.3,0.12-0.49
		c-0.08,0-0.16,0-0.25,0c-0.16,0.3,0.05,0.08-0.25,0.25C33.97,14.52,34.08,14.65,33.78,14.47L33.78,14.47z"/>
	<path class="st4" d="M39.56,14.59c0.2,0.14,0.13,0.22,0.25,0C39.72,14.59,39.64,14.59,39.56,14.59L39.56,14.59z"/>
	<path class="st4" d="M48.41,14.59c-0.04,0.12-0.08,0.25-0.12,0.37c0.08,0,0.16,0,0.25,0c0-0.04,0-0.08,0-0.12
		c0.1-0.13,0.04-0.03,0.12-0.25C48.57,14.59,48.49,14.59,48.41,14.59L48.41,14.59z"/>
	<path class="st4" d="M46.93,14.96c0.17,0.2,0.08,0.14,0.37,0.25c0-0.08,0-0.16,0-0.25C47.18,14.96,47.06,14.96,46.93,14.96
		L46.93,14.96z"/>
	<path class="st4" d="M40.17,15.08c0.23,0.21,0.44,0.31,0.74,0.12C40.66,15.17,40.42,15.13,40.17,15.08L40.17,15.08z"/>
	<path class="st4" d="M48.65,15.21c0.2,0.17,0.14,0.08,0.25,0.37c-0.16,0-0.33,0-0.49,0c0-0.08,0-0.16,0-0.25
		C48.62,15.25,48.53,15.31,48.65,15.21L48.65,15.21z"/>
	<path class="st4" d="M41.4,15.45c0.08,0,0.16,0,0.25,0c0,0.04,0,0.08,0,0.12C41.43,15.5,41.53,15.55,41.4,15.45L41.4,15.45z"/>
	<path class="st4" d="M43.86,15.45c0,0.12,0,0.25,0,0.37c0.12,0,0.25,0,0.37,0c0.08-0.08,0.16-0.16,0.25-0.25c0-0.04,0-0.08,0-0.12
		C44.27,15.45,44.06,15.45,43.86,15.45L43.86,15.45z"/>
	<path class="st4" d="M45.46,15.45c0,0.08,0,0.16,0,0.25c0.12,0,0.25,0,0.37,0c0.04-0.08,0.08-0.16,0.12-0.25
		C45.65,15.49,45.84,15.49,45.46,15.45L45.46,15.45z"/>
	<path class="st4" d="M33.78,15.82c0,0.08,0,0.16,0,0.25c0.04-0.04,0.08-0.08,0.12-0.12c0.04,0,0.08,0,0.12,0
		C33.9,15.85,33.99,15.9,33.78,15.82L33.78,15.82z"/>
	<path class="st4" d="M43.74,16.56c0.1,0.13,0.04,0.03,0.12,0.25c-0.04,0-0.08,0-0.12,0C43.74,16.72,43.74,16.64,43.74,16.56
		L43.74,16.56z"/>
	<path class="st4" d="M32.79,17.67c0.2,0.17,0.14,0.08,0.25,0.37c-0.12,0-0.25,0-0.37,0C32.71,17.91,32.75,17.79,32.79,17.67
		L32.79,17.67z"/>
	<path class="st4" d="M38.2,18.28c-0.04,0.21-0.08,0.41-0.12,0.62c0.04,0.04,0.08,0.08,0.12,0.12c0.32,0,0.14-0.05,0.49,0.12
		c0-0.12,0-0.25,0-0.37C38.53,18.61,38.37,18.45,38.2,18.28L38.2,18.28z"/>
	<path class="st4" d="M33.04,19.51c0,0.39,0.12,0.37,0.12,0.37c0-0.12,0-0.25,0-0.37C33.12,19.51,33.08,19.51,33.04,19.51
		L33.04,19.51z"/>
	<path class="st4" d="M35.62,19.88c0.13,0.1,0.03,0.04,0.25,0.12C35.74,19.91,35.84,19.96,35.62,19.88L35.62,19.88z"/>
	<path class="st4" d="M33.29,20.62c0,0.16,0,0.33,0,0.49c0.04,0,0.08,0,0.12,0c0-0.04,0-0.08,0-0.12c0.11-0.11,0.16-0.22,0.25-0.37
		C33.53,20.62,33.41,20.62,33.29,20.62L33.29,20.62z"/>
	<path class="st4" d="M33.29,21.97c-0.07,0.2-0.1,0.3-0.12,0.61c0.04,0,0.08,0,0.12,0c0-0.04,0-0.08,0-0.12
		C33.42,22.25,33.41,22.18,33.29,21.97L33.29,21.97z"/>
	<path class="st4" d="M35.87,22.46c0.04,0.12,0.08,0.25,0.12,0.37c0.04,0,0.08,0,0.12,0C36.01,22.54,36.07,22.63,35.87,22.46
		L35.87,22.46z"/>
	<path class="st4" d="M33.41,23.2c0,0.08,0,0.16,0,0.25c0.04,0,0.08,0,0.12,0c0-0.08,0-0.16,0-0.25
		C33.49,23.2,33.45,23.2,33.41,23.2L33.41,23.2z"/>
	<path class="st4" d="M33.66,24.18c0,0.08,0,0.16,0,0.25c0.04,0,0.08,0,0.12,0c0-0.08,0-0.16,0-0.25
		C33.74,24.18,33.7,24.18,33.66,24.18L33.66,24.18z"/>
	<path class="st4" d="M32.67,25.54c0.08,0,0.16,0,0.25,0c0,0.08,0,0.16,0,0.25c-0.08,0-0.16,0-0.25,0
		C32.67,25.7,32.67,25.62,32.67,25.54L32.67,25.54z"/>
	<path class="st4" d="M37.84,25.54c0,0.08,0,0.16,0,0.25c-0.12-0.04-0.25-0.08-0.37-0.12c-0.04,0.25-0.08,0.49-0.12,0.74
		c0.08,0,0.16,0,0.25,0c0.16-0.25,0.26-0.28,0.37-0.61c0.04,0,0.08,0,0.12,0c-0.04-0.04-0.08-0.08-0.12-0.12
		C37.92,25.62,37.88,25.58,37.84,25.54L37.84,25.54z"/>
	<path class="st4" d="M34.64,25.91c0,0.08,0,0.16,0,0.25c0.04,0,0.08,0,0.12,0c0-0.08,0-0.16,0-0.25
		C34.72,25.91,34.68,25.91,34.64,25.91L34.64,25.91z"/>
	<path class="st4" d="M36.24,26.15c-0.12,0.22-0.15,0.21-0.25,0.49c0.08,0,0.16,0,0.25,0c0-0.04,0-0.08,0-0.12
		c0.08,0.04,0.16,0.08,0.25,0.12C36.42,26.49,36.34,26.27,36.24,26.15L36.24,26.15z"/>
	<path class="st4" d="M35.26,26.52c-0.08,0.16-0.16,0.33-0.25,0.49c0.04,0,0.08,0,0.12,0c0.19-0.09,0.02-0.02,0.37,0
		c0-0.16,0-0.33,0-0.49C35.42,26.52,35.34,26.52,35.26,26.52L35.26,26.52z"/>
	<path class="st4" d="M35.62,27.01c0,0.08,0,0.16,0,0.25c0.04,0,0.08,0,0.12,0c0-0.08,0-0.16,0-0.25
		C35.71,27.01,35.67,27.01,35.62,27.01L35.62,27.01z"/>
	<path class="st4" d="M37.35,27.01c0.18,0.31,0.07,0.27,0.49,0.37c0-0.04,0-0.08,0-0.12c-0.1-0.13-0.04-0.03-0.12-0.25
		C37.59,27.01,37.47,27.01,37.35,27.01L37.35,27.01z"/>
	<path class="st4" d="M35.01,27.38c0.13,0.1,0.03,0.04,0.25,0.12C35.13,27.41,35.22,27.46,35.01,27.38L35.01,27.38z"/>
	<path class="st4" d="M33.41,27.63c0,0.08,0,0.16,0,0.25c0.04,0,0.08,0,0.12,0c0-0.08,0-0.16,0-0.25
		C33.49,27.63,33.45,27.63,33.41,27.63L33.41,27.63z"/>
	<path class="st4" d="M45.46,27.99c0.2,0.15,0.25,0.26,0.37,0.49c-0.12,0-0.25,0-0.37,0C45.44,28.1,45.4,28.3,45.46,27.99
		L45.46,27.99z"/>
	<path class="st4" d="M46.2,28.12c0.12,0,0.25,0,0.37,0c0.04,0.08,0.08,0.16,0.12,0.25c0.04,0.04,0.08,0.08,0.12,0.12
		c-0.12,0-0.25,0-0.37,0C46.14,28.18,46.22,28.48,46.2,28.12L46.2,28.12z"/>
	<path class="st4" d="M48.17,28.12c0.4,0.1,0.19-0.06,0.37,0.25c-0.04,0.04-0.08,0.08-0.12,0.12C48.01,28.3,48.17,28.46,48.17,28.12
		L48.17,28.12z"/>
	<path class="st4" d="M52.59,28.36c-0.04,0.04-0.08,0.08-0.12,0.12c-0.24,0.1,0.25,0.12,0.25,0.12c0-0.04,0-0.08,0-0.12
		c0.08,0.04,0.16,0.08,0.25,0.12C52.8,28.41,52.88,28.47,52.59,28.36L52.59,28.36z"/>
	<path class="st4" d="M40.67,28.61c0,0.08,0,0.16,0,0.25c0.04,0,0.08,0,0.12,0c0-0.08,0-0.16,0-0.25
		C40.75,28.61,40.71,28.61,40.67,28.61L40.67,28.61z"/>
	<path class="st4" d="M43,28.73c-0.09,0.08-0.27,0.16-0.37,0.25c0.04,0,0.08,0,0.12,0c0,0.04,0,0.08,0,0.12
		c0.15-0.06,0.37-0.15,0.49-0.25C43.17,28.81,43.08,28.77,43,28.73L43,28.73z"/>
	<path class="st4" d="M49.27,28.73c0.13,0.1,0.03,0.04,0.25,0.12C49.39,28.75,49.49,28.81,49.27,28.73L49.27,28.73z"/>
	<path class="st4" d="M33.54,28.86c0.04,0.44,0.09,0.41,0,0.74c0.04,0,0.08,0,0.12,0c0.04-0.04,0.08-0.08,0.12-0.12
		c0.04-0.08,0.08-0.16,0.12-0.25C33.78,29.1,33.66,28.98,33.54,28.86L33.54,28.86z"/>
	<path class="st4" d="M43.37,28.85c0.17,0.16,0.22,0.17,0.49,0.25c0-0.08,0-0.16,0-0.25C43.7,28.85,43.54,28.85,43.37,28.85
		L43.37,28.85z"/>
	<path class="st4" d="M49.03,28.85c-0.07,0.19-0.08,0.21-0.12,0.49c0.04,0,0.08,0,0.12,0c0.04-0.04,0.08-0.08,0.12-0.12
		c0.04-0.08,0.08-0.16,0.12-0.25C49.19,28.94,49.11,28.89,49.03,28.85L49.03,28.85z"/>
	<path class="st4" d="M40.3,28.98c-0.14,0.19-0.13,0.1-0.25,0.37c0.08,0,0.16,0,0.25,0c0.16-0.15,0.44-0.22,0.61-0.37
		C40.71,28.98,40.5,28.98,40.3,28.98L40.3,28.98z"/>
	<path class="st4" d="M53.21,28.98c0,0.08,0,0.16,0,0.25c0.08,0,0.16,0,0.25,0c0.04-0.04,0.08-0.08,0.12-0.12c0-0.04,0-0.08,0-0.12
		C53.45,28.98,53.33,28.98,53.21,28.98L53.21,28.98z"/>
	<path class="st4" d="M55.05,29.1c0,0.08,0,0.16,0,0.25c0.04,0,0.08,0,0.12,0c0-0.08,0-0.16,0-0.25
		C55.13,29.1,55.09,29.1,55.05,29.1L55.05,29.1z"/>
	<path class="st4" d="M53.58,29.22c-0.04,0.12-0.08,0.25-0.12,0.37c0.04,0,0.08,0,0.12,0c0.26-0.18,0.44-0.08,0.61-0.37
		C53.87,29.3,53.96,29.28,53.58,29.22L53.58,29.22z"/>
	<path class="st4" d="M31.57,29.84c0.08,0,0.16,0,0.25,0c0,0.04,0,0.08,0,0.12C31.6,29.89,31.69,29.94,31.57,29.84L31.57,29.84z"/>
	<path class="st4" d="M31.81,29.96c0.4,0.1,0.19-0.06,0.37,0.25c-0.29,0.04-0.3,0.06-0.49,0.12C31.73,30.21,31.77,30.09,31.81,29.96
		L31.81,29.96z"/>
	<path class="st4" d="M55.05,31.07c0.2,0,0.41,0,0.62,0c0,0.04,0,0.08,0,0.12c-0.18,0.19-0.1,0.23-0.37,0.37
		C55.06,31.21,55.08,31.39,55.05,31.07L55.05,31.07z"/>
	<path class="st4" d="M48.29,31.19c-0.04,0.04-0.08,0.08-0.12,0.12c-0.24,0.1,0.25,0.12,0.25,0.12
		C48.34,31.22,48.39,31.32,48.29,31.19L48.29,31.19z"/>
	<path class="st4" d="M54.81,31.31c0.25,0.15,0.23,0.08,0.37,0.37c0.04,0,0.08,0,0.12,0c-0.04,0.04-0.08,0.08-0.12,0.12
		c-0.13,0.1-0.03,0.04-0.25,0.12c0.04-0.08,0.08-0.16,0.12-0.25c-0.35-0.21-0.35,0.2-0.49-0.25C54.78,31.36,54.68,31.41,54.81,31.31
		L54.81,31.31z"/>
	<path class="st4" d="M46.45,31.56c0,0.08,0,0.16,0,0.25c0.04,0,0.08,0,0.12,0c0-0.08,0-0.16,0-0.25
		C46.53,31.56,46.49,31.56,46.45,31.56L46.45,31.56z"/>
	<path class="st4" d="M54.31,31.8c0.12,0.04,0.25,0.08,0.37,0.12c0,0.04,0,0.08,0,0.12C54.24,31.99,54.34,32.13,54.31,31.8
		L54.31,31.8z"/>
	<path class="st4" d="M35.5,31.93c-0.04,0.12-0.08,0.25-0.12,0.37c0.08,0,0.16,0,0.25,0C35.58,32.04,35.6,32.06,35.5,31.93
		L35.5,31.93z"/>
	<path class="st4" d="M33.66,32.3c-0.09,0.29-0.13,0.27-0.25,0.49c0.08,0,0.16,0,0.25,0c0.13-0.1,0.03-0.04,0.25-0.12
		c0-0.12,0-0.25,0-0.37C33.82,32.3,33.74,32.3,33.66,32.3L33.66,32.3z"/>
	<path class="st4" d="M35.87,32.79c0.2,0.14,0.13,0.22,0.25,0C36.04,32.79,35.95,32.79,35.87,32.79L35.87,32.79z"/>
	<path class="st4" d="M38.95,33.28c0.13,0.1,0.03,0.04,0.25,0.12C39.07,33.31,39.16,33.36,38.95,33.28L38.95,33.28z"/>
	<path class="st4" d="M42.14,33.4c0.04,0.12,0.08,0.25,0.12,0.37c0.04,0,0.08,0,0.12,0c0-0.12,0-0.25,0-0.37
		C42.31,33.4,42.22,33.4,42.14,33.4L42.14,33.4z"/>
	<path class="st4" d="M32.92,33.65c0.08,0,0.16,0,0.25,0C33.02,33.85,33.12,33.8,32.92,33.65L32.92,33.65z"/>
	<path class="st4" d="M47.55,33.9c-0.04,0.04-0.08,0.08-0.12,0.12c-0.24,0.1,0.25,0.12,0.25,0.12c0.09-0.08,0.27-0.16,0.37-0.25
		C47.88,33.9,47.72,33.9,47.55,33.9L47.55,33.9z"/>
	<path class="st4" d="M36,34.14c0,0.08,0,0.16,0,0.25c0.04,0,0.08,0,0.12,0c0-0.08,0-0.16,0-0.25C36.08,34.14,36.04,34.14,36,34.14
		L36,34.14z"/>
	<path class="st4" d="M39.56,34.27c0,0.08,0,0.16,0,0.25c0.04,0,0.08,0,0.12,0c0-0.08,0-0.16,0-0.25
		C39.64,34.27,39.6,34.27,39.56,34.27L39.56,34.27z"/>
	<path class="st4" d="M45.22,34.88c0.04,0.04,0.25,0.06,0.12,0.25C45.2,35.07,44.96,34.91,45.22,34.88L45.22,34.88z"/>
	<path class="st4" d="M36,35.25c0.15,0.25,0.08,0.23,0.37,0.37c0-0.04,0-0.08,0-0.12C36.17,35.36,36.26,35.36,36,35.25L36,35.25z"/>
	<path class="st4" d="M38.7,35.25c0.08,0,0.16,0,0.25,0c0,0.04,0,0.08,0,0.12C38.73,35.3,38.83,35.35,38.7,35.25L38.7,35.25z"/>
	<path class="st4" d="M34.4,35.5c0,0.08,0,0.16,0,0.25c0.08,0,0.16,0,0.25,0c0-0.04,0-0.08,0-0.12
		C34.56,35.58,34.48,35.54,34.4,35.5L34.4,35.5z"/>
	<path class="st4" d="M35.87,35.99c0.2,0.14,0.13,0.22,0.25,0C36.04,35.99,35.95,35.99,35.87,35.99L35.87,35.99z"/>
	<path class="st4" d="M38.09,37.46c0.09,0.41-0.08,0.35,0.25,0.49c0-0.08,0-0.16,0-0.25c0.04,0,0.08,0,0.12,0
		c-0.04-0.04-0.08-0.08-0.12-0.12C38.21,37.49,38.3,37.54,38.09,37.46L38.09,37.46z"/>
	<path class="st4" d="M34.03,37.59c0.1,0.4-0.06,0.19,0.25,0.37c0-0.08,0-0.16,0-0.25C34.19,37.67,34.11,37.63,34.03,37.59
		L34.03,37.59z"/>
	<path class="st4" d="M36.61,37.96c-0.04,0.04-0.08,0.08-0.12,0.12c-0.24,0.1,0.25,0.12,0.25,0.12c0.04-0.04,0.08-0.08,0.12-0.12
		C36.73,37.98,36.82,38.03,36.61,37.96L36.61,37.96z"/>
	<path class="st4" d="M36,38.2c0.04,0.29,0.06,0.3,0.12,0.49c0.08,0,0.16,0,0.25,0c0-0.04,0-0.08,0-0.12
		C36.24,38.45,36.12,38.32,36,38.2L36,38.2z"/>
	<path class="st4" d="M38.21,38.32c0.1,0.23,0.17,0.33,0.25,0.61c0.04,0,0.08,0,0.12,0c0-0.12,0-0.25,0-0.37
		c-0.1-0.13-0.04-0.03-0.12-0.25C38.37,38.32,38.29,38.32,38.21,38.32L38.21,38.32z"/>
	<path class="st4" d="M34.28,38.57c0,0.08,0,0.16,0,0.25c0.04,0,0.08,0,0.12,0c0-0.08,0-0.16,0-0.25
		C34.36,38.57,34.32,38.57,34.28,38.57L34.28,38.57z"/>
	<path class="st4" d="M35.75,38.57c0.02,0.32,0.05,0.42,0.12,0.61c0.33-0.08,0.36,0.05,0.49,0c0.1-0.13,0.04-0.03,0.12-0.25
		C36.01,38.87,36.02,38.79,35.75,38.57L35.75,38.57z"/>
	<path class="st4" d="M37.1,38.94c0.04,0.25,0.08,0.49,0.12,0.74c0.04,0,0.08,0,0.12,0c0.13-0.1,0.03-0.04,0.25-0.12
		c0.04-0.16,0.08-0.33,0.12-0.49C37.33,39.13,37.46,39.12,37.1,38.94L37.1,38.94z"/>
	<path class="st4" d="M38.33,39.06c0,0.08,0,0.16,0,0.25c0.12,0.04,0.25,0.08,0.37,0.12C38.58,39.31,38.46,39.18,38.33,39.06
		L38.33,39.06z"/>
	<path class="st4" d="M34.77,39.55c0,0.16,0,0.33,0,0.49c0.04,0,0.08,0,0.12,0c0-0.04,0-0.08,0-0.12
		C35.04,39.77,34.92,39.73,34.77,39.55L34.77,39.55z"/>
	<path class="st4" d="M38.21,39.55c0.13,0.1,0.03,0.04,0.25,0.12C38.33,39.58,38.42,39.63,38.21,39.55L38.21,39.55z"/>
	<path class="st4" d="M36,39.8c0.05,0.26,0.03,0.24,0.12,0.37c0-0.12,0-0.25,0-0.37C36.08,39.8,36.04,39.8,36,39.8L36,39.8z"/>
	<path class="st4" d="M36.37,40.05c-0.09,0.65-0.02,1.25,0.25,1.97c0.04-0.04,0.08-0.08,0.12-0.12c0.15-0.21,0.13-0.28,0.25-0.61
		c-0.03-0.31-0.44-0.47-0.61-0.98c0.04,0,0.08,0,0.12,0c0.17,0.2,0.08,0.14,0.37,0.25c0-0.04,0-0.08,0-0.12
		C36.57,40.29,36.59,40.2,36.37,40.05L36.37,40.05z"/>
	<path class="st4" d="M35.38,40.41c0,0.08,0,0.16,0,0.25c0,0.17-0.1,0.3,0.25,0.49c0-0.25,0-0.49,0-0.74
		C35.55,40.41,35.46,40.41,35.38,40.41L35.38,40.41z"/>
	<path class="st4" d="M35.75,40.41c0,0.08,0,0.16,0,0.25c0.04,0,0.08,0,0.12,0c0-0.08,0-0.16,0-0.25
		C35.83,40.41,35.79,40.41,35.75,40.41L35.75,40.41z"/>
	<path class="st4" d="M33.66,41.03c0.31,0.18,0.14-0.03,0.25,0.37c-0.1,0.13-0.04,0.03-0.12,0.25c-0.04,0-0.08,0-0.12,0
		C33.66,41.44,33.66,41.23,33.66,41.03L33.66,41.03z"/>
	<path class="st4" d="M34.77,41.03c-0.08,0.37-0.22,0.62-0.37,1.11c0.04,0,0.08,0,0.12,0c0-0.04,0-0.08,0-0.12
		c0.31-0.18,0.27-0.07,0.37-0.49C34.91,41.41,34.94,41.25,34.77,41.03L34.77,41.03z"/>
	<path class="st4" d="M36.61,41.15c0.08,0,0.16,0,0.25,0c0,0.08,0,0.16,0,0.25c-0.08,0-0.16,0-0.25,0
		C36.61,41.32,36.61,41.23,36.61,41.15L36.61,41.15z"/>
	<path class="st4" d="M34.15,41.4c0.04,0.12,0.08,0.25,0.12,0.37c0.04,0,0.08,0,0.12,0c0-0.12,0-0.25,0-0.37
		C34.32,41.4,34.23,41.4,34.15,41.4L34.15,41.4z"/>
	<path class="st4" d="M36.49,42.14c0.2,0.14,0.13,0.22,0.25,0C36.65,42.14,36.57,42.14,36.49,42.14L36.49,42.14z"/>
	<path class="st4" d="M34.77,42.87c-0.05-0.26-0.03-0.24-0.12-0.37c-0.11-0.11-0.22-0.16-0.37-0.25c-0.02,0.51-0.06,0.21-0.25,0.74
		c0.04,0,0.08,0,0.12,0C34.31,42.89,34.46,42.89,34.77,42.87L34.77,42.87z"/>
	<path class="st4" d="M36.73,42.5c-0.05,0.3-0.08,0.19,0,0.49c0.04-0.04,0.08-0.08,0.12-0.12c0.1-0.13,0.04-0.03,0.12-0.25
		C36.9,42.59,36.82,42.55,36.73,42.5L36.73,42.5z"/>
	<path class="st4" d="M36.74,43.12c0.05,0.26,0.03,0.24,0.12,0.37c0-0.12,0-0.25,0-0.37C36.82,43.12,36.78,43.12,36.74,43.12
		L36.74,43.12z"/>
	<path class="st4" d="M37.6,43.24c0.04,0.12,0.08,0.25,0.12,0.37c0.04,0,0.08,0,0.12,0c0-0.08,0-0.16,0-0.25
		C37.76,43.32,37.68,43.28,37.6,43.24L37.6,43.24z"/>
	<path class="st4" d="M37.6,46.93c0.05,0.26,0.03,0.24,0.12,0.37c0-0.12,0-0.25,0-0.37C37.68,46.93,37.64,46.93,37.6,46.93
		L37.6,46.93z"/>
	<path class="st4" d="M36,47.18c-0.11,0.19-0.35,0.09-0.12,0.25c0.13,0.1,0.03,0.04,0.25,0.12C36.08,47.29,36.09,47.31,36,47.18
		L36,47.18z"/>
	<path class="st4" d="M36.49,47.18c-0.14,0.3-0.21,0.4-0.25,0.86c0.04,0,0.08,0,0.12,0c0.17-0.28,0.15-0.22,0.25-0.25
		c0.11,0.17,0.13,0.69,0.25,0.86c0.15,0.1,0.21,0.1,0.49,0.12c0.13-0.1,0.03-0.04,0.25-0.12c0.04-0.08,0.08-0.16,0.12-0.25
		c-0.23-0.22-0.19-0.59-0.37-0.86c0,0.04,0,0.08,0,0.12c-0.18,0.19-0.1,0.23-0.37,0.37c0-0.08,0-0.16,0-0.25
		c0.17-0.3,0.17-0.31-0.12-0.49C36.71,47.2,36.75,47.26,36.49,47.18L36.49,47.18z"/>
	<path class="st4" d="M37.72,47.55c0.13,0.1,0.03,0.04,0.25,0.12C37.84,47.57,37.93,47.62,37.72,47.55L37.72,47.55z"/>
	<path class="st4" d="M35.88,48.04c0,0.08,0,0.16,0,0.25c0.04-0.04,0.08-0.08,0.12-0.12c0.04,0,0.08,0,0.12,0
		C36,48.06,36.09,48.12,35.88,48.04L35.88,48.04z"/>
	<path class="st4" d="M36.98,48.28c0.2,0.17,0.14,0.08,0.25,0.37c-0.04,0-0.08,0-0.12,0c0-0.04,0-0.08,0-0.12
		C37.01,48.4,37.06,48.5,36.98,48.28L36.98,48.28z"/>
	<path class="st4" d="M34.77,48.53c0.4,0.2,0.44,0.17,0.49,0.74c-0.04,0-0.08,0-0.12,0c-0.08-0.22-0.02-0.12-0.12-0.25
		c-0.02,0.29-0.02,0.35-0.12,0.49c0-0.04,0-0.08,0-0.12C34.55,48.99,34.6,48.9,34.77,48.53L34.77,48.53z"/>
	<path class="st4" d="M37.47,49.14c-0.04,0.2-0.08,0.41-0.12,0.61c0.04,0,0.08,0,0.12,0c0.06-0.39,0.11-0.36,0.25-0.61
		C37.64,49.14,37.56,49.14,37.47,49.14L37.47,49.14z"/>
	<path class="st4" d="M37.35,49.88c0.11,0.11,0.22,0.16,0.37,0.25c0-0.08,0-0.16,0-0.25C37.6,49.88,37.47,49.88,37.35,49.88
		L37.35,49.88z"/>
	<path class="st4" d="M37.23,50.13c0.13,0.1,0.03,0.04,0.25,0.12C37.35,50.15,37.44,50.21,37.23,50.13L37.23,50.13z"/>
	<path class="st4" d="M36.49,50.74c-0.04,0.08-0.08,0.16-0.12,0.25C36.58,50.82,36.49,50.74,36.49,50.74L36.49,50.74z"/>
	<path class="st4" d="M35.75,50.99c0.13,0.1,0.03,0.04,0.25,0.12C35.87,51.01,35.97,51.07,35.75,50.99L35.75,50.99z"/>
	<path class="st4" d="M35.51,51.73c0.05,0.43,0.15,0.6,0.25,0.98c0.08,0,0.16,0,0.25,0c0-0.04,0-0.08,0-0.12
		c0.04-0.04,0.08-0.08,0.12-0.12C35.78,52.25,35.79,51.97,35.51,51.73L35.51,51.73z"/>
	<path class="st4" d="M35.63,53.57c0,0.08,0,0.16,0,0.25c0.04,0,0.08,0,0.12,0c0-0.08,0-0.16,0-0.25
		C35.71,53.57,35.67,53.57,35.63,53.57L35.63,53.57z"/>
	<path class="st4" d="M35.39,55.05c0.09,0.13,0.07,0.12,0.12,0.37c-0.04,0-0.08,0-0.12,0C35.39,55.29,35.39,55.17,35.39,55.05
		L35.39,55.05z"/>
	<path class="st4" d="M41.66,56.4c0.12,0.04,0.25,0.08,0.37,0.12c0,0.04,0,0.08,0,0.12C41.73,56.54,41.82,56.59,41.66,56.4
		L41.66,56.4z"/>
	<path class="st4" d="M41.53,56.77c0.08,0,0.16,0,0.25,0C41.63,56.96,41.73,56.92,41.53,56.77L41.53,56.77z"/>
	<path class="st4" d="M36.12,57.01c0,0.08,0,0.16,0,0.25c0.08,0,0.16,0,0.25,0c0-0.08,0-0.16,0-0.25
		C36.29,57.01,36.21,57.01,36.12,57.01L36.12,57.01z"/>
	<path class="st4" d="M39.2,57.01c0.14,0.42-0.01,0.89,0.25,1.23c0.09-0.59,0.14-0.49,0.25-0.98C39.4,57.17,39.41,57.13,39.2,57.01
		L39.2,57.01z"/>
	<path class="st4" d="M36.49,57.38c-0.12,0.27-0.19,0.35-0.25,0.74c0.08,0,0.16,0,0.25,0c0.08-0.08,0.16-0.16,0.25-0.25
		c-0.14-0.24-0.07-0.22,0-0.49C36.66,57.38,36.57,57.38,36.49,57.38L36.49,57.38z"/>
	<path class="st4" d="M37.97,57.38c-0.08,0.34-0.21,0.58-0.12,0.74c0,0.04,0,0.08,0,0.12c0.04,0,0.08,0,0.12,0
		c0.02-0.29,0.02-0.35,0.12-0.49c0.13,0.1,0.03,0.04,0.25,0.12c0-0.04,0-0.08,0-0.12C38.06,57.61,38.15,57.57,37.97,57.38
		L37.97,57.38z"/>
	<path class="st4" d="M37.35,58.49c-0.05-0.26-0.03-0.24-0.12-0.37c-0.16,0.23-0.24,0.21-0.37,0.49c0.04,0,0.08,0,0.12,0
		C37.12,58.52,37.1,58.54,37.35,58.49L37.35,58.49z"/>
	<path class="st4" d="M38.34,58.12c0,0.08,0,0.16,0,0.25c0.04,0,0.08,0,0.12,0c0-0.08,0-0.16,0-0.25
		C38.42,58.12,38.38,58.12,38.34,58.12L38.34,58.12z"/>
	<path class="st4" d="M38.83,58.12c0.02,0.32,0.05,0.42,0.12,0.61c0.04,0,0.08,0,0.12,0c0-0.08,0-0.16,0-0.25
		C38.99,58.39,38.91,58.21,38.83,58.12L38.83,58.12z"/>
	<path class="st4" d="M42.03,58.36c0.13,0.1,0.03,0.04,0.25,0.12C42.15,58.39,42.24,58.44,42.03,58.36L42.03,58.36z"/>
	<path class="st4" d="M37.6,58.49c-0.16,0.41-0.17,0.45-0.12,0.86c0.46,0.1,0.43,0.24,0.86,0.37c0-0.08,0-0.16,0-0.25
		c-0.36-0.25,0.03-0.22-0.37-0.37c0,0.04,0,0.08,0,0.12c-0.04-0.04-0.08-0.08-0.12-0.12c-0.04-0.04-0.08-0.08-0.12-0.12
		c0.16-0.08,0.33-0.16,0.49-0.25c0-0.04,0-0.08,0-0.12C37.59,58.69,38.07,58.58,37.6,58.49L37.6,58.49z"/>
	<path class="st4" d="M39.44,58.49c-0.04,0.12-0.08,0.25-0.12,0.37c0.08,0,0.16,0,0.25,0C39.52,58.6,39.54,58.62,39.44,58.49
		L39.44,58.49z"/>
	<path class="st4" d="M37.85,60.33c0.08,0,0.16,0,0.25,0c-0.02,0.29-0.02,0.35-0.12,0.49C37.93,60.54,37.91,60.52,37.85,60.33
		L37.85,60.33z"/>
</g>
</svg>
