<?xml version="1.0" encoding="utf-8"?>
<!-- Generator: Adobe Illustrator 23.0.1, SVG Export Plug-In . SVG Version: 6.00 Build 0)  -->
<svg version="1.1" id="Capa_1" xmlns="http://www.w3.org/2000/svg" xmlns:xlink="http://www.w3.org/1999/xlink" x="0px" y="0px"
	 viewBox="0 0 77 75" style="enable-background:new 0 0 77 75;" xml:space="preserve">
<style type="text/css">
	.st0{fill:#2063F1;}
	.st1{fill:none;stroke:#2063F1;stroke-miterlimit:10;}
	.st2{fill:#FFFFFF;stroke:#2063F1;stroke-miterlimit:10;}
	.st3{fill-rule:evenodd;clip-rule:evenodd;fill:#2063F1;}
	.st4{fill-rule:evenodd;clip-rule:evenodd;fill:#FFFFFF;}
	.st5{fill:#B3B3B3;}
	.st6{fill:none;stroke:#2063F1;stroke-width:2;stroke-linecap:round;stroke-linejoin:round;}
	.st7{fill:none;stroke:#2063F1;stroke-width:2;stroke-linecap:round;stroke-linejoin:round;stroke-dasharray:1.9934,9.9672;}
	.st8{fill-rule:evenodd;clip-rule:evenodd;fill:#2163F2;}
	.st9{fill:none;stroke:#FFFFFF;stroke-width:2;stroke-linecap:round;stroke-linejoin:round;}
	.st10{fill:none;stroke:#FFFFFF;stroke-width:2;stroke-linecap:round;stroke-linejoin:round;stroke-dasharray:1.9934,9.9672;}
	.st11{fill:#FFFFFF;}
	.st12{fill:none;}
	
		.st13{fill:none;stroke:#FFFFFF;stroke-width:1.0082;stroke-linecap:round;stroke-linejoin:round;stroke-miterlimit:10;stroke-dasharray:2.0164,10.0822;}
	.st14{fill:none;stroke:#2063F1;stroke-width:2.1021;stroke-linecap:round;stroke-linejoin:round;}
	.st15{fill:none;stroke:#2063F1;stroke-width:2.1021;stroke-linecap:round;stroke-linejoin:round;stroke-dasharray:4.18,20.9001;}
	.st16{fill:none;stroke:#2063F1;stroke-width:2.1021;stroke-linecap:round;stroke-linejoin:round;stroke-dasharray:3.7182,18.591;}
	
		.st17{fill-rule:evenodd;clip-rule:evenodd;fill:none;stroke:#2063F1;stroke-width:2;stroke-linecap:round;stroke-linejoin:round;stroke-miterlimit:10;stroke-dasharray:2,10;}
	
		.st18{fill-rule:evenodd;clip-rule:evenodd;fill:none;stroke:#2063F1;stroke-width:2;stroke-linecap:round;stroke-linejoin:round;stroke-miterlimit:10;}
	
		.st19{fill-rule:evenodd;clip-rule:evenodd;fill:none;stroke:#2063F1;stroke-width:2.1239;stroke-linecap:round;stroke-linejoin:round;stroke-miterlimit:10;}
	.st20{fill:none;stroke:#2063F1;stroke-width:2;stroke-linejoin:round;stroke-miterlimit:10;}
	.st21{fill:#A6A6A6;}
</style>
<g>
	<path class="st3" d="M59.7,15.4c0.1,0.1,0,0,0.2,0.1C59.9,15.5,60,15.5,59.7,15.4L59.7,15.4z"/>
	<path class="st3" d="M60.6,15.4c0.1,0.1,0,0,0.2,0.1C60.7,15.5,60.8,15.5,60.6,15.4L60.6,15.4z"/>
	<path class="st3" d="M48.4,18c0.1,0.1,0.3,0.3,0.5,0.4c0-0.1,0-0.2,0-0.2C48.8,18.1,48.6,18.1,48.4,18L48.4,18z"/>
	<path class="st3" d="M56.2,18.8c0.1,0.1,0,0,0.2,0.1C56.3,18.8,56.4,18.8,56.2,18.8L56.2,18.8z"/>
	<path class="st3" d="M45.4,19c0.1,0.4,0.2,0.2-0.2,0.4c-0.1,0.2-0.1,0.3-0.2,0.4c0.1,0.2,0,0.1,0.1,0.2c0.1,0.1,0,0,0.2,0.1
		c0-0.4-0.2-0.2,0.1-0.4c0.1,0.1,0,0.2,0.2,0.1c0,0,0-0.1,0-0.1c0.1-0.1,0,0,0.1-0.2c-0.1-0.2,0,0,0-0.4C45.6,19.1,45.5,19,45.4,19
		L45.4,19z"/>
	<path class="st3" d="M50.9,19c0,0.1,0,0.2,0,0.2c0,0,0.1,0,0.1,0c0-0.1,0-0.2,0-0.2C51,19,50.9,19,50.9,19L50.9,19z"/>
	<path class="st3" d="M56.3,19c0,0.3,0,0.1,0.2,0.1c0,0,0-0.1,0-0.1C56.5,19,56.4,19,56.3,19L56.3,19z"/>
	<path class="st3" d="M49.4,19.3c0,0.1-0.1,0.2-0.1,0.4c0,0,0.1,0,0.1,0c0-0.1,0-0.2,0-0.2C49.5,19.3,49.5,19.3,49.4,19.3L49.4,19.3
		z"/>
	<path class="st3" d="M46.3,19.4c0.1,0.1,0,0,0.2,0.1C46.5,19.4,46.6,19.5,46.3,19.4L46.3,19.4z"/>
	<path class="st3" d="M52.7,19.9c0,0.1,0,0.2,0,0.2c0,0,0.1,0,0.1,0c0-0.1,0-0.2,0-0.2C52.8,19.9,52.8,19.9,52.7,19.9L52.7,19.9z"/>
	<path class="st3" d="M67.9,14.7c0.1,0.1,0.2,0.2,0.4,0.4c0.2-0.1,0.9-0.2,1.4-0.2c0,0,0.1,0.1,0.1,0.1c0,0.1-0.1,0.2-0.1,0.4
		c-0.6-0.2-1.3,0.2-1.6,0.1c-0.3-0.2-0.2-0.1-0.2-0.5C67.8,14.8,67.8,14.9,67.9,14.7L67.9,14.7z"/>
	<path class="st3" d="M64.4,15.7c0,0.1,0,0.2,0,0.2c0,0,0.1-0.1,0.1-0.1c0,0,0.1,0,0.1,0C64.5,15.7,64.6,15.8,64.4,15.7L64.4,15.7z"
		/>
	<path class="st3" d="M65,15.7c0.1,0.1,0,0,0.2,0.1C65.2,15.7,65.2,15.8,65,15.7L65,15.7z"/>
	<path class="st3" d="M68.4,15.8c0.1,0.1,0,0,0.1,0.2c0,0-0.1,0-0.1,0C68.4,16,68.4,15.9,68.4,15.8L68.4,15.8z"/>
	<path class="st3" d="M66.1,15.9c-0.1,0.1,0,0-0.2,0.1c0.1,0.1,0,0,0.2,0.1c0,0,0.1,0.1,0.1,0.1c0-0.1,0-0.2,0-0.4
		C66.2,15.9,66.2,15.9,66.1,15.9L66.1,15.9z"/>
	<path class="st3" d="M68.8,16.7c-0.2,0-0.4,0-0.6,0c0-0.1,0-0.2,0-0.2c0.6,0,0.2,0.1,0.6-0.2C68.8,16.3,68.8,16.5,68.8,16.7
		L68.8,16.7z"/>
	<path class="st3" d="M66.3,16.4c0.1,0.1,0,0,0.2,0.1C66.4,16.4,66.5,16.5,66.3,16.4L66.3,16.4z"/>
	<path class="st3" d="M65.4,16.8c0,0.3-0.1,0.2,0.5,0.2c0.1,0.1,0,0,0.2,0.1c0-0.1,0-0.2,0-0.2c-0.1,0-0.2,0-0.4,0
		C65.6,16.8,65.7,16.8,65.4,16.8L65.4,16.8z"/>
	<path class="st3" d="M68.4,17c0.1,0.1,0,0,0.1,0.2c-0.1,0-0.2,0-0.2,0c-0.1,0.1-0.1,0.1-0.4,0.1c0,0,0-0.1,0-0.1c0,0,0.1,0,0.1,0
		C68.1,17.2,68.3,17.1,68.4,17L68.4,17z"/>
	<path class="st3" d="M65.8,17.3c0.1,0.1,0,0,0.2,0.1C65.9,17.3,66,17.4,65.8,17.3L65.8,17.3z"/>
	<path class="st3" d="M63.2,17.9c0,0.1,0,0.2,0,0.2c0.1,0,0.2,0,0.2,0c0-0.1,0-0.2,0-0.2C63.4,17.9,63.3,17.9,63.2,17.9L63.2,17.9z"
		/>
	<path class="st3" d="M64.7,17.9c0,0.3-0.2,0.2,0.2,0.4c0-0.1,0-0.2,0-0.4C64.8,17.9,64.8,17.9,64.7,17.9L64.7,17.9z"/>
	<path class="st3" d="M67.7,17.9c0.2,0,0.4,0,0.6,0c0,0.1,0,0.2,0,0.2c-0.2,0-0.4,0-0.6,0C67.7,18.1,67.7,18,67.7,17.9L67.7,17.9z"
		/>
	<path class="st3" d="M65.3,18.3c0,0.1,0,0.2,0,0.2c0,0,0.1-0.1,0.1-0.1c0,0,0.1,0,0.1,0C65.4,18.3,65.5,18.3,65.3,18.3L65.3,18.3z"
		/>
	<path class="st3" d="M65.9,18.3c-0.1,0.4-0.4,0.5-0.4,0.6c0.2,0.2,0.3,0.3,0.6,0.4c-0.1-0.2-0.4-0.4-0.2-0.5
		c0.2-0.1,0.4-0.1,0.7-0.1c0,0,0-0.1,0-0.1C66.2,18.5,66.2,18.4,65.9,18.3L65.9,18.3z"/>
	<path class="st3" d="M66.9,18.3c0.1,0,0.2,0.1,0.4,0.1c0,0.1,0,0.2,0,0.2c-0.1,0-0.2,0-0.2,0c0,0,0-0.1,0-0.1
		C66.9,18.4,67,18.5,66.9,18.3L66.9,18.3z"/>
	<path class="st3" d="M64.4,18.5c0.2,0.2,0.3,0.2,0.7,0.2c0,0,0-0.1,0-0.1C64.7,18.6,64.7,18.6,64.4,18.5L64.4,18.5z"/>
	<path class="st3" d="M67,20.5c-0.5,0-0.7,0-1-0.2c0,0-0.1-0.1-0.1-0.1c0.2-0.1,0.2-0.1,0.5-0.1c0.2,0.2,0.2,0.2,0.5,0.2
		c0-0.4-0.2-0.2,0.2-0.4c0.2,0.1,0.5,0.2,0.7,0.2c0,0.1,0,0.2,0,0.2c-0.1,0-0.2,0-0.2,0c-0.1,0.2-0.3-0.1-0.6-0.2
		C67,20.2,67,20.4,67,20.5L67,20.5z"/>
	<path class="st3" d="M62.7,20.5c0,0.3-0.1,0.2,0.2,0.2c0-0.1,0-0.2,0-0.2C62.9,20.5,62.8,20.5,62.7,20.5L62.7,20.5z"/>
	<g>
		<path class="st3" d="M68.6,19.5c-0.9,0-4.3,0.3-4.7,1c0.4,0,0.3,0.1,0.5,0c0.2-0.2,0-0.4,0.6-0.5c0,0.4,0.1,0.4,0,0.5
			c-0.3,0.3-0.8,0.1-1.1,0.2c-0.1,0.1-0.2,0.3-0.2,0.5c-0.1,0-0.2-0.1-0.4-0.1c0-0.3,0-0.2-0.1-0.4c-0.8,0.8-0.8,0-1.5,0.2
			c-0.3,0.1-0.6,0.6-1,0.4c-0.2-0.1-0.1,0-0.2-0.1c0.1-0.1,0.2-0.2,0.2-0.2c0,0-0.1-0.1-0.1-0.1c-0.6,0.2-1.1,0.1-2,0.5
			c0,0.1-0.1,0.2-0.1,0.4c0.3,0,0.1-0.1,0.4,0c0,0-0.1,0-0.1,0c-0.3,0.3-0.4,0.3-1,0.4c-0.8-0.5-1.5,0.3-2.3,0.5
			c-0.6,0.1-0.7-0.2-1.2-0.1c0-0.6-0.1-0.4-0.5-0.9c-0.7,0.3-1.5,0.6-2.3,0.6c0,0-0.1-0.1-0.1-0.1c0-0.1,0.1-0.2,0.1-0.4
			c0.6,0,0.6,0,1,0c0-0.1,0-0.2,0-0.2c0,0-0.1,0-0.1,0c-0.1-0.2,0-0.1-0.1-0.2c-0.3,0.3-1.1,0.4-1.2,0.5c-0.1,0.1-0.1,0.1-0.1,0.4
			c0.1,0.1,0.2,0.2,0.2,0.2c-0.4,0.1-0.7,0.2-1.1,0.4c0,0.1,0,0.2,0,0.2c0.1,0,0.2,0,0.2,0c0.2-0.2,0.1-0.1,0.4-0.2c0,0,0,0.1,0,0.1
			c-0.3,0.3-0.3,0.5-0.7,0.6c0-0.1,0.1-0.2,0.1-0.4c-0.1,0-0.2,0-0.4,0c0,0.5-0.1,0.9-0.1,1.4c0,0.2,0.3,0.7,0.2,1
			c0,0-0.4,1.4-0.4,1.4c0,0.1,0.3,0.1,0.4,0.4c-0.3,0.2-0.4,0.1-0.5,0.4c0.1,0,0.2,0,0.4,0c-0.1,1.4,0,1.7-0.2,3.2
			c-0.4,0-0.2-0.2-0.4,0.2c0.5,0.1,0.4-0.1,0.5,0.4c-0.3,0.2-0.3,0.2-0.4,0.6c0.3,0,0.2,0,0.4,0.1c-0.8,0.4-0.4,1.7-0.4,2.6
			c0.7,0,1.3,0.3,1.7,0.2c0.7-0.1,1.4-0.9,2.3-0.2c0.1-0.4-0.1-0.2,0.2-0.4c0,0.1,0,0.2,0,0.4c0.9-0.1,2.2-0.3,2.8,0
			c0.2,0.1,0.3,0.5,0.6,0.6c0-0.4-0.2-0.2,0.1-0.4c0,0.1,0.1,0.2,0.1,0.4c1-0.2,1.1-0.4,2,0c0.2-0.6,0.4-0.7,0.7-1.4
			c0.3,0.1,0.2-0.1,0.4,0.2c-0.1,0.1-0.2,0.2-0.2,0.2c0,0,0.1,0,0.1,0c0.1,0.1,0.2,0.1,0.5,0.1c0-0.4-0.2-0.2,0.1-0.4
			c0.4,0.6,0.9-0.1,1.4-0.1c0.4-0.1,0.1,0.3,0.4,0.2c0,0,0.1-0.1,0.1-0.1c0.3-0.2,0.3-0.3,0.5-0.6c0,0,0.1,0,0.1,0
			c0,0.1,0,0.2,0,0.4c0.3,0,0.2,0,0.4-0.1c0.2-0.2,0.1-0.3,0.4-0.5c0,0.3,0,0.2,0.1,0.4c0.1-0.1,0,0,0.2-0.1c-0.1-0.4-0.1-0.3,0-0.6
			c0.4,0.1,0.4,0,0.9,0c0,0.1,0,0.2,0,0.4c-0.3,0-0.2,0-0.4,0.1c0,0,0.1,0,0.1,0c0.2,0.1,0.2,0,0.4,0.1c0.2,0.2,0.3,0.4,0.4,0.7
			c0,0.1-0.1,0.1-0.1,0.5c0.2,0.1,0.4,0.2,0.6,0.2c0,0.5,0,0.9,0.1,1.6c-0.5,0.1-0.3,0.2-0.7,0.1c-0.1,0.5-0.5,0.9-1,1
			c0,0.3,0.1,0.3,0.1,0.5c-1,0.4-1.4,1.4-2.7,1.5c-0.1,0-0.5-0.1-0.6,0c0,0-0.1,0-0.1,0c0,0.1,0.1,0.2,0.1,0.2c0,0-0.1,0-0.1,0
			c-0.5,0.3-1-0.1-1.2,0c-1,0.3-2.2,0.9-3.8,1.1c0-0.1,0-0.2,0-0.2c0,0,0.1-0.1,0.1-0.1c0.7-0.1,1.4-0.2,1.7-0.7c0,0-0.1,0-0.1,0
			c-0.3,0.2-0.9,0.3-1.2,0.4c0-0.2,0-0.4,0-0.6c-0.9,0.1-1.1,0.5-1.7,0.6c-0.1,0-0.7-0.3-1.1-0.4c-0.2,0.3-0.3,0.5-0.6,0.6
			c0-0.3,0-0.3-0.1-0.5c-0.1,0.1-0.2,0.2-0.4,0.2c0.2,0.4,0.1,0,0.1,0.5c-0.1,0-0.2,0-0.2,0c-0.1,0-1.2-0.1-1.4-0.4
			c0,0,0.1-0.1,0.1-0.1c0.3,0.1,0.4,0.2,0.7,0.2c0-0.2,0-0.3,0-0.5c-0.1,0-0.2,0-0.2,0c-0.1-0.1-0.1-0.1-0.4-0.1
			c-1,0.8-1.2,0.7-2.2,1.4c0.1,0.7,0.5,1.1,0.6,1.8c0.1,0.5-0.4,1-0.5,1.2c-0.1,0.4,0.4,0.7,0.5,0.9c0.2,0.4-0.4,0.2-0.1,0.5
			c0.2,0.2,0.3,0.3,0.5,0.5c-0.5,0.8,0,1.1,0.1,1.8c0.1,0.5-0.4,0.5-0.2,0.9c0.2,0.6,0.6,1.1,0.6,1.8c0,0-0.1,0-0.1,0
			c-0.2-0.2-0.1-0.1-0.4-0.2c0,0.1,0,0.2,0,0.2c0.2,0.1,0.2,0.2,0.5,0.2c-0.2,0.2-0.2,0.2-0.4,0.5c0.4,0.2,0.4,0.4,0.4,1
			c-1,0.5,0.4,1.6,0.2,2.7c-0.1,0.5-0.3,0.9-0.1,1.6c0.3,1.1,0.9,1.6,0.6,3.1c0.5,0,0.2-0.1,0.5,0.2c0.1-0.2,0.2-0.4,0.4-0.6
			c0,0,0.1,0.1,0.1,0.1c0,0,0.1,0,0.1,0c-0.3,0.5-0.4,0.6-0.5,1.1c0.5,0.1,0.6,0.1,0.7,0.5c0.1,0.1,0.1,0.1,0.1,0.4
			c0,0-0.1,0.1-0.1,0.1c0,0-0.1,0-0.1,0c0-0.4,0.2-0.2-0.1-0.4c0,0-0.1,0.1-0.1,0.1c0.2,0.4,0.3,0.3,0.4,0.7c-0.1,0-0.2,0-0.2,0
			c0,0,0,0.1,0,0.1c-0.1,0-0.2-0.1-0.2-0.1c0,0,0,0.1,0,0.1c-0.1,0.1-0.2,0.3-0.4,0.5c0.1,0.3,0.1,0.3,0.4,0.5
			c0.1-0.1,0.1-0.1,0.4-0.1c0.1,0.5,0.2,0.4,0.2,0.9c0,0-0.1,0-0.1,0c-0.1-0.1-0.1-0.1-0.4-0.1c0-0.3,0-0.2-0.1-0.4
			c0,0.1,0,0.2,0,0.4c0.2,0.1,0.1,0.1,0.4,0.2c0,0,0,0.1,0,0.1c0.1,0,0.2-0.1,0.2-0.1c0,0,0,0.1,0,0.1c0.1,0.1,0.1,0.1,0.1,0.4
			c-0.2,0-0.4,0-0.6,0c0,0.1,0,0.2,0,0.2c0,0,0.1,0.1,0.1,0.1c0.1,0,0.2-0.1,0.2-0.1c0,0,0,0.1,0,0.1c0.1,0.1,0,0,0.1,0.2
			c-0.1,0.1-0.2,0.2-0.2,0.2c-0.5-0.5-0.4-0.4-1-0.6c0,0.1,0,0.2,0,0.2c0.2,0.1,0.2,0.5,0.1,0.6c0,0,0,0.1,0,0.1
			c-0.1-0.1-0.2-0.3-0.4-0.5c0,0.3-0.1,0.4-0.1,0.6c-0.6-0.1-0.4-0.2-0.9-0.2c0-0.3,0-0.6-0.1-0.7c0,0,0,0.1,0,0.1
			c-0.1,0.1,0,0.5-0.2,0.7c-0.2-0.2-0.3-0.3-0.6-0.4c0,0-0.1,0.1-0.1,0.1c0.1,0.3,0.2,0.5,0.1,0.7c0,0,0,0.1,0,0.1
			c-0.1,0-0.2,0-0.2,0c-0.1-0.4-0.1-0.3-0.4-0.5c-0.1,0.1-0.1,0.1-0.4,0.1c0-0.3,0-0.2-0.1-0.4c0,0,0,0.1,0,0.1
			c-0.2,0.2,0.1,0.2-0.2,0.4c0-0.1,0-0.2,0-0.4c-0.4-0.1-0.8-0.3-1-0.6c0.3-0.2,0.1-0.2,0.2-0.6c-0.4,0-0.3,0.1-0.5-0.4
			c-0.1,0-0.2,0.1-0.4,0.1c-0.1-0.9-0.5-1.1-0.2-1.8c0.3,0.1,0.2,0.2,0.6,0.2c0,0,0-0.1,0-0.1c-0.3-0.2-0.5-0.2-0.6-0.5
			c0.4-0.1,0.3-0.1,0.5-0.4c-0.3-0.2-0.4-0.2-0.5-0.6c0.1,0,0.2,0,0.2,0c0,0,0,0.1,0,0.1c0,0,0.1-0.1,0.1-0.1
			c0.1-0.1,0.1-0.5,0.2-0.7c-0.4,0-0.5,0-0.6-0.1c-0.1-0.2-0.1-0.6,0-1c-0.1,0-0.2,0-0.4,0c0.1-0.8,0.2-2.4-0.1-2.8
			c-0.2-0.3-0.5-0.5-0.6-0.9c0,0,0.1,0,0.1,0c0.4,0.3,0.5,0,1,0c0.1,0.4-0.1,0.2,0.2,0.4c0,0,0-0.1,0-0.1c-0.1-0.2-0.1-0.6-0.1-1
			c-0.5-0.1-0.6-0.1-0.6-0.7c0.2-0.1,0.2-0.1,0.5-0.1c0,0.1,0,0.2,0,0.2c-0.2,0.1-0.1,0-0.1,0.2c0,0.1,0,0.2,0,0.2
			c0.1-0.1,0,0,0.1-0.2c0.2-0.3,0.1-0.6-0.1-0.9c-0.2,0.3,0,0.1-0.4,0.2c0-0.1-0.1-0.2-0.1-0.4c0.4-0.1,0.3,0.1,0.5-0.2
			C46,53.2,46,53.2,46,52.9c-0.1,0-0.2,0-0.4,0c0-0.4,0.1-0.3,0-0.5c0-0.1-0.1-0.2-0.1-0.2c-0.2,0.1-0.2,0.3-0.4,0.1
			c-0.3-0.2-0.4-0.3-0.4-0.9c-0.4-0.5,0.1-1.6,0.1-1.7c0,0,0.1,0,0.1,0c0,0.2,0,0.5,0,0.7c-0.1,0-0.2-0.1-0.2-0.1c0,0,0,0.1,0,0.1
			c0,0,0.1,0,0.1,0c0.1,0.1,0.2,0.1,0.5,0.1c0-0.4-0.1-0.8-0.1-1.2c-0.4,0.1-0.4,0.1-0.9,0c0,0,0.1-0.1,0.1-0.1
			c-0.2-0.6-0.2-0.6,0.1-1c-0.2,0-0.3,0.1-0.5,0.1c0-0.1,0-0.2,0-0.4c0.7-0.2,0.5-0.9,0.4-1.6c0,0,0.1,0,0.1,0
			c0,0.1,0.1,0.2,0.1,0.2c0,0.1,0.1,0.3,0.1,0.6c0.1,0,0.2,0,0.2,0c-0.2-0.5-0.1-0.6,0.1-1c-0.4,0-1.3-0.6-1.4-1.4
			c0.1,0,0.2,0,0.2,0c0.2,0.3-0.1,0.1,0.2,0.2c0-0.1,0-0.2,0-0.2c-0.3-0.3-0.2-0.3-0.1-0.6c-0.4,0.1-0.4,0.2-0.6-0.2
			c0,0,0.1-0.1,0.1-0.1c0.2,0.1,0.2,0.2,0.5,0.2c0-0.1,0-0.2,0-0.2c0-0.3-0.1-0.8-0.2-1.1c0.1,0,0.2,0,0.4,0c0-0.5-0.1-0.4,0.1-0.7
			c-0.2-0.3-0.3-0.1-0.4-0.6c-0.3,0-0.2,0-0.4-0.1c0,0,0.1,0,0.1,0c0.1-0.1,0.3,0,0.5-0.1c-0.2-0.1-0.2-0.3-0.4-0.5
			c-0.2,0.2-0.1,0.1-0.4,0.2c0,0,0.1-0.1,0.1-0.1c0-0.4,0.3-0.3,0.5-0.9c-0.4-0.2-0.3-0.8-0.6-1c-0.3-0.2-0.4,0-0.6-0.2
			c0,0,0.1-0.1,0.1-0.1c0.2,0.1,0.2,0.2,0.5,0.2c0.1-0.3,0.1-0.2,0.2-0.4c0,0-0.1,0-0.1,0c-0.1-0.2,0-0.1-0.1-0.2
			c-0.1,0.1-0.2,0.2-0.4,0.2c0-0.2,0-0.3,0-0.5c0.3-0.1,0.5-0.2,0.6-0.5c-0.2-0.1-0.1,0-0.2-0.1c0.2-0.1,0.1,0,0.2-0.1
			c-0.2,0-0.4,0.1-0.6,0.1c0,0,0-0.1,0-0.1c0.3-0.2,0.4-0.5,0.6-0.9c0.3,0.2,0.1,0.2,0.4,0.1c0.3-0.1,0.2,0,0.4-0.2
			c0,0-0.1-0.1-0.1-0.1c-0.6,0.2-0.3,0.1-0.9,0.1c-0.1-0.3-0.1-0.2-0.2-0.4c0.7-0.7-0.5-2.4,0.2-3.3c0.1,0.4-0.1,0.3,0.2,0.5
			c0,0,0.1,0.1,0.1,0.1c0-0.1,0-0.2,0-0.2c-0.2-0.2-0.3-0.4-0.4-0.6c0.4-0.2,0.3,0.1,0.4-0.4c0.1-0.3-0.1-0.8-0.1-1.4
			c-0.2,0-0.3,0-0.5,0c0-0.3-0.4-1.8-0.2-2.2c0-0.1,0.5-0.4,0.5-0.7c-0.1-0.4-0.8-0.9-0.6-1.7c0.1-0.5,0.5-0.7,0.6-1
			c-0.1-0.2-0.2-0.5-0.2-0.7c0-0.1,0.4-0.2,0.5-0.4c0.1-0.4-0.2-0.4-0.2-0.6c-0.1-0.3,0.1-1.1,0-1.5c0.4-0.1,0.2,0.1,0.4-0.2
			c0.1-0.3-0.1-1.3,0.4-2c0.1-0.1,0.2-0.1,0.5-0.1c0-0.3-0.2-0.1,0.1-0.4c0,0,0-0.1,0-0.1c-0.1-0.1-0.3,0-0.1-0.1
			c0.1-0.1,0,0,0.2-0.1c0,0,0.1,0.5,0.1,0.2c0,0,0-0.1,0-0.1c0.3-0.1,0.4-0.2,0.6-0.5c-0.1-0.1-0.2-0.2-0.2-0.2
			c1,0.1,0.7-0.7,1.5-1.1c0,0,0,0.1,0,0.1c-0.3,0.3-0.2,0.7-0.2,1.2c0,0,0.1,0,0.1,0c0.1-0.3,0.2-0.5,0.5-0.6c0.2,0,0.7-0.4,1.4-0.2
			c0,0.1,0,0.2,0,0.2c0.1,0,0.2,0,0.2,0c0.2,0,0.5-0.5,0.9-0.6c0.6-0.2,1,0.2,1.5,0.2l0.4-0.2c0.9-0.2,1.3,0.2,1.8-0.4
			c0,0,0.4,0.2,0.6,0.2c0-0.1,0.1-0.2,0.1-0.2c-0.1-0.1-0.2-0.2-0.2-0.2c0.2-0.1,0.1,0,0.2-0.1c0.2,0.1,0.1,0,0.2,0.1
			c0.5,0.2-0.1,0.5,0.7,0.6c0.2-0.1,0.2,0,0.4-0.1c0.1-0.1,0.2-0.2,0.2-0.2c0,0-0.1-0.1-0.1-0.1c-0.4,0-0.6,0.1-1-0.2
			c1.4,0,2.3-0.7,3.3-0.5c0-0.3,0.1-0.3,0.1-0.5c1,0.4,0.7,0.1,1.4-0.2c0.3-0.1,1.1,0.1,1.6,0c0,0.1,0,0.2,0,0.4c0.1,0,0.2,0,0.4,0
			c0,0-0.1-0.1-0.1-0.1c-0.2-0.1,0.2-0.1,0.2-0.1c0.2,0.2,0.1,0.1,0.4,0.2c0.2-0.5,0.7-0.7,1.4-0.7c0,0,0,0.1,0,0.1
			c-0.1,0.1-0.2,0.2-0.4,0.4c0.1,0,0.2,0,0.2,0c0.2-0.3,0.4-0.4,0.6-0.7c0.1,0,0.2,0.1,0.4,0.1c0,0.4-0.2,0.4,0.4,0.5
			c0.4-0.3,2.3-0.4,3-0.4c0,0.1,0,0.2,0,0.2c-0.4,0.1-0.9,0.4-1.1,0.6c-0.4-0.1-0.4-0.3-0.9-0.4c0,0-0.1,0.1-0.1,0.1
			c0,0.1,0,0.2,0,0.2c0.6,0,1.1,0,1.7,0.1c0.1,0.3,0.3,0.2,0.1,0.4c-0.4,0.3-0.7,0.1-0.7,0.9c0,0-0.1,0.1-0.1,0.1c0.1,0,0.2,0,0.2,0
			c0.3,0.2,0.7,0,0.9,0.4c-0.3,0-0.6,0-0.9,0c-0.5,0.3-1.3,0.2-1.8,0.1c0,0,0,0.1,0,0.1c0.1,0,0.2,0,0.2,0c0.2,0.3,0.1,0.2,0.5,0.2
			c0.2,0.1,1.5-0.3,2-0.4c0,0,0,0.1,0,0.1c0,0-0.1,0-0.1,0c-0.5,0.4-0.7,0.1-0.7,1c0.2,0.1,0.3,0.1,0.4,0.2c0.5-0.1,0.9-0.3,1.1,0
			c0.1,0.1,0,0.1,0.1,0.4c0.1-0.1,0.2-0.2,0.2-0.2C68.6,19.2,68.6,19.4,68.6,19.5L68.6,19.5z"/>
		<path class="st3" d="M26.3,55.6c0-0.4-0.1-0.3,0-0.6c-0.5-0.1-2.1-3.3-2.5-4.2c-0.6-1.1-1.5-2.1-2.2-3.3C21,46.3,20.8,45,20,44
			c0,0-0.5-0.5-0.5-0.5c-0.1-0.3-0.2-0.7-0.2-1c-0.1,0-0.2,0-0.2,0c0-0.2,0.1-0.3,0.1-0.5c-0.1-0.5-0.4-1.1-0.5-1.4
			c-0.3-0.9-0.4-2.7-0.1-3.2l0.5-0.5c0.1-0.3-0.5-0.4,0.1-0.7c0.2-0.2,0.2,0.1,0.4-0.2c-0.1-0.2,0-0.1,0-0.5
			c2.1-1.1,4.1-2.8,5.7-4.4c0.3-0.3,0.4-0.8,0.7-1.1c2-1.8,4.1-3.2,5-6.4c0.4-1.3,0.4-5.5-0.1-6.5c-0.4-0.8-1.1-1.4-1.6-2.1
			c-1.8-2.4-3.6-4.8-7.6-4.3c-0.5,0.7-1.3,1.2-1.7,1.8c-1.1,1.6-1.4,3.4-2.1,5.4c-0.6,1.7-1.2,5.2-1.7,7.4c-0.2,0.8,0,2.3-0.1,3
			c-0.2,1.5-0.5,3.3-0.4,4.8c0,0.3-0.2,1.1-0.2,1.4c-0.3,1.4,0.2,3.1,0,4.5c-0.2,1.5-0.4,3.6-0.1,4.7c0.3,1-0.2,3.6-0.1,5
			c0.1,1.4,0.2,4.7,0.4,5.8c0.2,1.1,0,2.1-0.1,3c-0.2,1.2,0.2,2.9,0.2,3.6c0.1,1.2-0.2,2.6-0.1,3.3c0.3,1.7-0.2,3.1-1.6,3.4
			c-0.3,0.2-1.1,0.1-1.6,0.1c-0.4-0.6-0.9-0.7-1.4-1.1c0.2-0.2,0.2-0.2,0.4-0.5c-0.4,0-0.3,0.1-0.4-0.5c-0.1-0.3,0.1-1.4,0-2.1
			c-0.1-1,0-4.6-0.1-6c0-0.9,0.3-2.4,0.1-3.4c-0.3-1.5,0-3.6-0.1-4.9c-0.4-3.6-0.1-7.3,0-10.8c0.2-6.5,0.5-14.9,2.3-20.8
			c1-3,1.5-5.3,3.2-7.5c0.6-0.8,1-2.2,2-2.6c0.2-0.2,0.4-0.2,0.7-0.7C19.5,7,19.2,7,19.7,6.6c0,0,0.5,0.2,0.7,0.2
			c0.2-0.3,0.3-0.4,0.5-0.5c0.2,0.2,0.1,0.1,0.4,0.2c0-0.4-0.2-0.2,0.1-0.4c0.7-0.5,2.7,0.1,3.6,0.2c3.2,0.7,5.3,2.7,7.3,5
			c0.3,0.4,0.3,0.9,0.6,1.2c0.1,0,0.2,0.1,0.4,0.1c0.8,1,1.1,1.9,1.6,3.2c0,0.1,0.4,0.4,0.4,0.5c-0.2,0.1,0.5,2.9,0.2,4.3
			c-0.4,1.9,0,3.3-1,5.5c-0.1,0.3-0.4,0.3-0.6,0.5c0.4,0.5-0.3,1.1-0.6,1.6c-1,1.5-2.2,3-3.6,4.1c-0.9,0.7-3,2.4-3.3,3.1
			c0,0,0.1,0,0.1,0c0,0-0.1,0.1-0.1,0.1c-0.1,0.1-0.2,0.2-0.2,0.2c-0.3-0.1-0.2,0-0.5-0.2c0,0.1,0,0.2,0,0.4c0.1,0.1,0.2,0,0.1,0.2
			c0,0-0.1,0-0.1,0c-0.2,0.1-0.2,0-0.4,0.1c0.1,0.2,0,0,0,0.2c-0.4,0.2-0.9,0.5-1.2,0.7c0-0.3,0-0.2-0.1-0.4c0,0.6-0.1,0.6-0.6,0.7
			c0,0-0.1-0.1-0.1-0.1c0,0.6-0.5,0.3-0.6,1.2c0.3,0.4,0.7,2.3,0.6,2.6c0,0,0.1-0.1,0.1-0.1c0.1-0.2,0.1,0.2,0.1,0.2
			c0.1,0.1,1.1,1.8,0.9,2.1c0.9,1,1.7,2.4,2.3,3.6c0,0.2,0.1,0.4,0.1,0.6c1.3,1.8,2.4,4,3.6,5.9c0.7,1.1,1.1,2.2,1.8,3.2
			c0.2,0.2,0.4,0.7,0.2,0.9c0.5,0.5,2.8,3.2,3,3.8c0.1,0.3,0,1.2,0,1.8c-0.4,0.2-1.7,1-2,1.4c-0.7-0.3-1.2-0.9-1.6-1.6
			c0.2-0.1,0.1,0,0.2-0.1c-0.1,0-0.2,0.1-0.4,0.1c-0.4-1-1.8-2.1-2.5-2.8c-0.4-0.4-0.2-1-0.5-1.4c-0.8-1-1.5-2.1-2.2-3.3
			c0.2-0.1,0.1,0,0.2-0.1C26.6,55.6,26.4,55.6,26.3,55.6L26.3,55.6z"/>
	</g>
	<path class="st3" d="M44.4,20.5c0,0.1-0.1,0.2-0.1,0.4c0.4,0.1,0.4,0.2,0.7,0.4c0-0.3,0.1-0.3,0.1-0.5c-0.1,0-0.2,0-0.2,0
		c-0.2,0.3,0.1,0.1-0.2,0.2C44.6,20.5,44.7,20.7,44.4,20.5L44.4,20.5z"/>
	<path class="st3" d="M50.2,20.6c0.2,0.1,0.1,0.2,0.2,0C50.3,20.6,50.2,20.6,50.2,20.6L50.2,20.6z"/>
	<path class="st3" d="M59,20.6c0,0.1-0.1,0.2-0.1,0.4c0.1,0,0.2,0,0.2,0c0,0,0-0.1,0-0.1c0.1-0.1,0,0,0.1-0.2
		C59.2,20.6,59.1,20.6,59,20.6L59,20.6z"/>
	<path class="st3" d="M57.5,21c0.2,0.2,0.1,0.1,0.4,0.2c0-0.1,0-0.2,0-0.2C57.8,21,57.7,21,57.5,21L57.5,21z"/>
	<path class="st3" d="M50.8,21.1c0.2,0.2,0.4,0.3,0.7,0.1C51.3,21.2,51,21.1,50.8,21.1L50.8,21.1z"/>
	<path class="st3" d="M59.3,21.2c0.2,0.2,0.1,0.1,0.2,0.4c-0.2,0-0.3,0-0.5,0c0-0.1,0-0.2,0-0.2C59.2,21.3,59.1,21.3,59.3,21.2
		L59.3,21.2z"/>
	<path class="st3" d="M52,21.5c0.1,0,0.2,0,0.2,0c0,0,0,0.1,0,0.1C52,21.5,52.1,21.6,52,21.5L52,21.5z"/>
	<path class="st3" d="M54.5,21.5c0,0.1,0,0.2,0,0.4c0.1,0,0.2,0,0.4,0c0.1-0.1,0.2-0.2,0.2-0.2c0,0,0-0.1,0-0.1
		C54.9,21.5,54.7,21.5,54.5,21.5L54.5,21.5z"/>
	<path class="st3" d="M56.1,21.5c0,0.1,0,0.2,0,0.2c0.1,0,0.2,0,0.4,0c0-0.1,0.1-0.2,0.1-0.2C56.3,21.5,56.4,21.5,56.1,21.5
		L56.1,21.5z"/>
	<path class="st3" d="M44.4,21.8c0,0.1,0,0.2,0,0.2c0,0,0.1-0.1,0.1-0.1c0,0,0.1,0,0.1,0C44.5,21.9,44.6,21.9,44.4,21.8L44.4,21.8z"
		/>
	<path class="st3" d="M54.3,22.6c0.1,0.1,0,0,0.1,0.2c0,0-0.1,0-0.1,0C54.3,22.7,54.3,22.7,54.3,22.6L54.3,22.6z"/>
	<path class="st3" d="M43.4,23.7c0.2,0.2,0.1,0.1,0.2,0.4c-0.1,0-0.2,0-0.4,0C43.3,23.9,43.4,23.8,43.4,23.7L43.4,23.7z"/>
	<path class="st3" d="M48.8,24.3c0,0.2-0.1,0.4-0.1,0.6c0,0,0.1,0.1,0.1,0.1c0.3,0,0.1,0,0.5,0.1c0-0.1,0-0.2,0-0.4
		C49.1,24.6,49,24.5,48.8,24.3L48.8,24.3z"/>
	<path class="st3" d="M43.6,25.5c0,0.4,0.1,0.4,0.1,0.4c0-0.1,0-0.2,0-0.4C43.7,25.5,43.7,25.5,43.6,25.5L43.6,25.5z"/>
	<path class="st3" d="M46.2,25.9c0.1,0.1,0,0,0.2,0.1C46.3,25.9,46.4,26,46.2,25.9L46.2,25.9z"/>
	<path class="st3" d="M43.9,26.6c0,0.2,0,0.3,0,0.5c0,0,0.1,0,0.1,0c0,0,0-0.1,0-0.1c0.1-0.1,0.2-0.2,0.2-0.4
		C44.1,26.6,44,26.6,43.9,26.6L43.9,26.6z"/>
	<path class="st3" d="M43.9,28c-0.1,0.2-0.1,0.3-0.1,0.6c0,0,0.1,0,0.1,0c0,0,0-0.1,0-0.1C44,28.3,44,28.2,43.9,28L43.9,28z"/>
	<path class="st3" d="M46.5,28.5c0,0.1,0.1,0.2,0.1,0.4c0,0,0.1,0,0.1,0C46.6,28.5,46.7,28.6,46.5,28.5L46.5,28.5z"/>
	<path class="st3" d="M44,29.2c0,0.1,0,0.2,0,0.2c0,0,0.1,0,0.1,0c0-0.1,0-0.2,0-0.2C44.1,29.2,44.1,29.2,44,29.2L44,29.2z"/>
	<path class="st3" d="M44.3,30.2c0,0.1,0,0.2,0,0.2c0,0,0.1,0,0.1,0c0-0.1,0-0.2,0-0.2C44.3,30.2,44.3,30.2,44.3,30.2L44.3,30.2z"/>
	<path class="st3" d="M43.3,31.5c0.1,0,0.2,0,0.2,0c0,0.1,0,0.2,0,0.2c-0.1,0-0.2,0-0.2,0C43.3,31.7,43.3,31.6,43.3,31.5L43.3,31.5z
		"/>
	<path class="st3" d="M48.4,31.5c0,0.1,0,0.2,0,0.2c-0.1,0-0.2-0.1-0.4-0.1c0,0.2-0.1,0.5-0.1,0.7c0.1,0,0.2,0,0.2,0
		c0.2-0.3,0.3-0.3,0.4-0.6c0,0,0.1,0,0.1,0c0,0-0.1-0.1-0.1-0.1C48.5,31.6,48.5,31.6,48.4,31.5L48.4,31.5z"/>
	<path class="st3" d="M45.2,31.9c0,0.1,0,0.2,0,0.2c0,0,0.1,0,0.1,0c0-0.1,0-0.2,0-0.2C45.3,31.9,45.3,31.9,45.2,31.9L45.2,31.9z"/>
	<path class="st3" d="M46.8,32.2c-0.1,0.2-0.2,0.2-0.2,0.5c0.1,0,0.2,0,0.2,0c0,0,0-0.1,0-0.1c0.1,0,0.2,0.1,0.2,0.1
		C47,32.5,46.9,32.3,46.8,32.2L46.8,32.2z"/>
	<path class="st3" d="M45.9,32.5c-0.1,0.2-0.2,0.3-0.2,0.5c0,0,0.1,0,0.1,0c0.2-0.1,0,0,0.4,0c0-0.2,0-0.3,0-0.5
		C46,32.5,45.9,32.5,45.9,32.5L45.9,32.5z"/>
	<path class="st3" d="M46.2,33c0,0.1,0,0.2,0,0.2c0,0,0.1,0,0.1,0c0-0.1,0-0.2,0-0.2C46.3,33,46.3,33,46.2,33L46.2,33z"/>
	<path class="st3" d="M47.9,33c0.2,0.3,0.1,0.3,0.5,0.4c0,0,0-0.1,0-0.1c-0.1-0.1,0,0-0.1-0.2C48.2,33,48.1,33,47.9,33L47.9,33z"/>
	<path class="st3" d="M45.6,33.4c0.1,0.1,0,0,0.2,0.1C45.7,33.4,45.8,33.5,45.6,33.4L45.6,33.4z"/>
	<path class="st3" d="M44,33.6c0,0.1,0,0.2,0,0.2c0,0,0.1,0,0.1,0c0-0.1,0-0.2,0-0.2C44.1,33.6,44.1,33.6,44,33.6L44,33.6z"/>
	<path class="st3" d="M56.1,34c0.2,0.2,0.2,0.3,0.4,0.5c-0.1,0-0.2,0-0.4,0C56,34.1,56,34.3,56.1,34L56.1,34z"/>
	<path class="st3" d="M56.8,34.1c0.1,0,0.2,0,0.4,0c0,0.1,0.1,0.2,0.1,0.2c0,0,0.1,0.1,0.1,0.1c-0.1,0-0.2,0-0.4,0
		C56.7,34.2,56.8,34.5,56.8,34.1L56.8,34.1z"/>
	<path class="st3" d="M58.8,34.1c0.4,0.1,0.2-0.1,0.4,0.2c0,0-0.1,0.1-0.1,0.1C58.6,34.3,58.8,34.5,58.8,34.1L58.8,34.1z"/>
	<path class="st3" d="M63.2,34.4c0,0-0.1,0.1-0.1,0.1c-0.2,0.1,0.2,0.1,0.2,0.1c0,0,0-0.1,0-0.1c0.1,0,0.2,0.1,0.2,0.1
		C63.4,34.4,63.5,34.5,63.2,34.4L63.2,34.4z"/>
	<path class="st3" d="M51.3,34.6c0,0.1,0,0.2,0,0.2c0,0,0.1,0,0.1,0c0-0.1,0-0.2,0-0.2C51.4,34.6,51.3,34.6,51.3,34.6L51.3,34.6z"/>
	<path class="st3" d="M53.6,34.7c-0.1,0.1-0.3,0.2-0.4,0.2c0,0,0.1,0,0.1,0c0,0,0,0.1,0,0.1c0.2-0.1,0.4-0.1,0.5-0.2
		C53.8,34.8,53.7,34.8,53.6,34.7L53.6,34.7z"/>
	<path class="st3" d="M59.9,34.7c0.1,0.1,0,0,0.2,0.1C60,34.8,60.1,34.8,59.9,34.7L59.9,34.7z"/>
	<path class="st3" d="M44.1,34.9c0,0.4,0.1,0.4,0,0.7c0,0,0.1,0,0.1,0c0,0,0.1-0.1,0.1-0.1c0-0.1,0.1-0.2,0.1-0.2
		C44.4,35.1,44.3,35,44.1,34.9L44.1,34.9z"/>
	<path class="st3" d="M54,34.9c0.2,0.2,0.2,0.2,0.5,0.2c0-0.1,0-0.2,0-0.2C54.3,34.9,54.1,34.9,54,34.9L54,34.9z"/>
	<path class="st3" d="M59.6,34.9c-0.1,0.2-0.1,0.2-0.1,0.5c0,0,0.1,0,0.1,0c0,0,0.1-0.1,0.1-0.1c0-0.1,0.1-0.2,0.1-0.2
		C59.8,34.9,59.7,34.9,59.6,34.9L59.6,34.9z"/>
	<path class="st3" d="M50.9,35c-0.1,0.2-0.1,0.1-0.2,0.4c0.1,0,0.2,0,0.2,0c0.2-0.2,0.4-0.2,0.6-0.4C51.3,35,51.1,35,50.9,35
		L50.9,35z"/>
	<path class="st3" d="M63.8,35c0,0.1,0,0.2,0,0.2c0.1,0,0.2,0,0.2,0c0,0,0.1-0.1,0.1-0.1c0,0,0-0.1,0-0.1C64.1,35,63.9,35,63.8,35
		L63.8,35z"/>
	<path class="st3" d="M65.7,35.1c0,0.1,0,0.2,0,0.2c0,0,0.1,0,0.1,0c0-0.1,0-0.2,0-0.2C65.7,35.1,65.7,35.1,65.7,35.1L65.7,35.1z"/>
	<path class="st3" d="M64.2,35.2c0,0.1-0.1,0.2-0.1,0.4c0,0,0.1,0,0.1,0c0.3-0.2,0.4-0.1,0.6-0.4C64.5,35.3,64.6,35.3,64.2,35.2
		L64.2,35.2z"/>
	<path class="st3" d="M42.2,35.9c0.1,0,0.2,0,0.2,0c0,0,0,0.1,0,0.1C42.2,35.9,42.3,36,42.2,35.9L42.2,35.9z"/>
	<path class="st3" d="M42.4,36c0.4,0.1,0.2-0.1,0.4,0.2c-0.3,0-0.3,0.1-0.5,0.1C42.3,36.2,42.4,36.1,42.4,36L42.4,36z"/>
	<path class="st3" d="M65.7,37.1c0.2,0,0.4,0,0.6,0c0,0,0,0.1,0,0.1c-0.2,0.2-0.1,0.2-0.4,0.4C65.7,37.2,65.7,37.4,65.7,37.1
		L65.7,37.1z"/>
	<path class="st3" d="M58.9,37.2c0,0-0.1,0.1-0.1,0.1c-0.2,0.1,0.2,0.1,0.2,0.1C58.9,37.2,59,37.3,58.9,37.2L58.9,37.2z"/>
	<path class="st3" d="M65.4,37.3c0.3,0.1,0.2,0.1,0.4,0.4c0,0,0.1,0,0.1,0c0,0-0.1,0.1-0.1,0.1c-0.1,0.1,0,0-0.2,0.1
		c0-0.1,0.1-0.2,0.1-0.2c-0.4-0.2-0.3,0.2-0.5-0.2C65.4,37.4,65.3,37.4,65.4,37.3L65.4,37.3z"/>
	<path class="st3" d="M57,37.6c0,0.1,0,0.2,0,0.2c0,0,0.1,0,0.1,0c0-0.1,0-0.2,0-0.2C57.1,37.6,57.1,37.6,57,37.6L57,37.6z"/>
	<path class="st3" d="M64.9,37.8c0.1,0,0.2,0.1,0.4,0.1c0,0,0,0.1,0,0.1C64.8,38,64.9,38.1,64.9,37.8L64.9,37.8z"/>
	<path class="st3" d="M46.1,37.9c0,0.1-0.1,0.2-0.1,0.4c0.1,0,0.2,0,0.2,0C46.2,38.1,46.2,38.1,46.1,37.9L46.1,37.9z"/>
	<path class="st3" d="M44.3,38.3c-0.1,0.3-0.1,0.3-0.2,0.5c0.1,0,0.2,0,0.2,0c0.1-0.1,0,0,0.2-0.1c0-0.1,0-0.2,0-0.4
		C44.4,38.3,44.3,38.3,44.3,38.3L44.3,38.3z"/>
	<path class="st3" d="M46.5,38.8c0.2,0.1,0.1,0.2,0.2,0C46.6,38.8,46.6,38.8,46.5,38.8L46.5,38.8z"/>
	<path class="st3" d="M49.5,39.3c0.1,0.1,0,0,0.2,0.1C49.7,39.3,49.8,39.4,49.5,39.3L49.5,39.3z"/>
	<path class="st3" d="M52.7,39.4c0,0.1,0.1,0.2,0.1,0.4c0,0,0.1,0,0.1,0c0-0.1,0-0.2,0-0.4C52.9,39.4,52.8,39.4,52.7,39.4L52.7,39.4
		z"/>
	<path class="st3" d="M43.5,39.7c0.1,0,0.2,0,0.2,0C43.6,39.9,43.7,39.8,43.5,39.7L43.5,39.7z"/>
	<path class="st3" d="M58.2,39.9c0,0-0.1,0.1-0.1,0.1c-0.2,0.1,0.2,0.1,0.2,0.1c0.1-0.1,0.3-0.2,0.4-0.2
		C58.5,39.9,58.3,39.9,58.2,39.9L58.2,39.9z"/>
	<path class="st3" d="M46.6,40.2c0,0.1,0,0.2,0,0.2c0,0,0.1,0,0.1,0c0-0.1,0-0.2,0-0.2C46.7,40.2,46.6,40.2,46.6,40.2L46.6,40.2z"/>
	<path class="st3" d="M50.2,40.3c0,0.1,0,0.2,0,0.2c0,0,0.1,0,0.1,0c0-0.1,0-0.2,0-0.2C50.2,40.3,50.2,40.3,50.2,40.3L50.2,40.3z"/>
	<path class="st3" d="M55.8,40.9c0,0,0.2,0.1,0.1,0.2C55.8,41.1,55.6,40.9,55.8,40.9L55.8,40.9z"/>
	<path class="st3" d="M46.6,41.3c0.1,0.3,0.1,0.2,0.4,0.4c0,0,0-0.1,0-0.1C46.8,41.4,46.9,41.4,46.6,41.3L46.6,41.3z"/>
	<path class="st3" d="M49.3,41.3c0.1,0,0.2,0,0.2,0c0,0,0,0.1,0,0.1C49.3,41.3,49.4,41.4,49.3,41.3L49.3,41.3z"/>
	<path class="st3" d="M45,41.5c0,0.1,0,0.2,0,0.2c0.1,0,0.2,0,0.2,0c0,0,0-0.1,0-0.1C45.2,41.6,45.1,41.5,45,41.5L45,41.5z"/>
	<path class="st3" d="M46.5,42c0.2,0.1,0.1,0.2,0.2,0C46.6,42,46.6,42,46.5,42L46.5,42z"/>
	<path class="st3" d="M48.7,43.5c0.1,0.4-0.1,0.4,0.2,0.5c0-0.1,0-0.2,0-0.2c0,0,0.1,0,0.1,0c0,0-0.1-0.1-0.1-0.1
		C48.8,43.5,48.9,43.6,48.7,43.5L48.7,43.5z"/>
	<path class="st3" d="M44.6,43.6c0.1,0.4-0.1,0.2,0.2,0.4c0-0.1,0-0.2,0-0.2C44.8,43.7,44.7,43.6,44.6,43.6L44.6,43.6z"/>
	<path class="st3" d="M47.2,44c0,0-0.1,0.1-0.1,0.1c-0.2,0.1,0.2,0.1,0.2,0.1c0,0,0.1-0.1,0.1-0.1C47.3,44,47.4,44,47.2,44L47.2,44z
		"/>
	<path class="st3" d="M46.6,44.2c0,0.3,0.1,0.3,0.1,0.5c0.1,0,0.2,0,0.2,0c0,0,0-0.1,0-0.1C46.8,44.5,46.7,44.3,46.6,44.2L46.6,44.2
		z"/>
	<path class="st3" d="M48.8,44.3c0.1,0.2,0.2,0.3,0.2,0.6c0,0,0.1,0,0.1,0c0-0.1,0-0.2,0-0.4c-0.1-0.1,0,0-0.1-0.2
		C49,44.3,48.9,44.3,48.8,44.3L48.8,44.3z"/>
	<path class="st3" d="M44.9,44.6c0,0.1,0,0.2,0,0.2c0,0,0.1,0,0.1,0c0-0.1,0-0.2,0-0.2C45,44.6,44.9,44.6,44.9,44.6L44.9,44.6z"/>
	<path class="st3" d="M46.4,44.6c0,0.3,0.1,0.4,0.1,0.6c0.3-0.1,0.4,0.1,0.5,0c0.1-0.1,0,0,0.1-0.2C46.6,44.9,46.6,44.8,46.4,44.6
		L46.4,44.6z"/>
	<path class="st3" d="M47.7,44.9c0,0.2,0.1,0.5,0.1,0.7c0,0,0.1,0,0.1,0c0.1-0.1,0,0,0.2-0.1c0-0.2,0.1-0.3,0.1-0.5
		C47.9,45.1,48.1,45.1,47.7,44.9L47.7,44.9z"/>
	<path class="st3" d="M48.9,45.1c0,0.1,0,0.2,0,0.2c0.1,0,0.2,0.1,0.4,0.1C49.2,45.3,49.1,45.2,48.9,45.1L48.9,45.1z"/>
	<path class="st3" d="M45.4,45.6c0,0.2,0,0.3,0,0.5c0,0,0.1,0,0.1,0c0,0,0-0.1,0-0.1C45.6,45.8,45.5,45.7,45.4,45.6L45.4,45.6z"/>
	<path class="st3" d="M48.8,45.6c0.1,0.1,0,0,0.2,0.1C48.9,45.6,49,45.6,48.8,45.6L48.8,45.6z"/>
	<path class="st3" d="M46.6,45.8c0,0.3,0,0.2,0.1,0.4c0-0.1,0-0.2,0-0.4C46.7,45.8,46.6,45.8,46.6,45.8L46.6,45.8z"/>
	<path class="st3" d="M47,46.1c-0.1,0.6,0,1.2,0.2,2c0,0,0.1-0.1,0.1-0.1c0.2-0.2,0.1-0.3,0.2-0.6c0-0.3-0.4-0.5-0.6-1
		c0,0,0.1,0,0.1,0c0.2,0.2,0.1,0.1,0.4,0.2c0,0,0-0.1,0-0.1C47.2,46.3,47.2,46.2,47,46.1L47,46.1z"/>
	<path class="st3" d="M46,46.4c0,0.1,0,0.2,0,0.2c0,0.2-0.1,0.3,0.2,0.5c0-0.2,0-0.5,0-0.7C46.1,46.4,46.1,46.4,46,46.4L46,46.4z"/>
	<path class="st3" d="M46.4,46.4c0,0.1,0,0.2,0,0.2c0,0,0.1,0,0.1,0c0-0.1,0-0.2,0-0.2C46.4,46.4,46.4,46.4,46.4,46.4L46.4,46.4z"/>
	<path class="st3" d="M44.3,47c0.3,0.2,0.1,0,0.2,0.4c-0.1,0.1,0,0-0.1,0.2c0,0-0.1,0-0.1,0C44.3,47.5,44.3,47.2,44.3,47L44.3,47z"
		/>
	<path class="st3" d="M45.4,47c-0.1,0.4-0.2,0.6-0.4,1.1c0,0,0.1,0,0.1,0c0,0,0-0.1,0-0.1c0.3-0.2,0.3-0.1,0.4-0.5
		C45.5,47.4,45.5,47.3,45.4,47L45.4,47z"/>
	<path class="st3" d="M47.2,47.2c0.1,0,0.2,0,0.2,0c0,0.1,0,0.2,0,0.2c-0.1,0-0.2,0-0.2,0C47.2,47.3,47.2,47.2,47.2,47.2L47.2,47.2z
		"/>
	<path class="st3" d="M44.8,47.4c0,0.1,0.1,0.2,0.1,0.4c0,0,0.1,0,0.1,0c0-0.1,0-0.2,0-0.4C44.9,47.4,44.8,47.4,44.8,47.4L44.8,47.4
		z"/>
	<path class="st3" d="M47.1,48.1c0.2,0.1,0.1,0.2,0.2,0C47.3,48.1,47.2,48.1,47.1,48.1L47.1,48.1z"/>
	<path class="st3" d="M45.4,48.9c0-0.3,0-0.2-0.1-0.4c-0.1-0.1-0.2-0.2-0.4-0.2c0,0.5-0.1,0.2-0.2,0.7c0,0,0.1,0,0.1,0
		C44.9,48.9,45.1,48.9,45.4,48.9L45.4,48.9z"/>
	<path class="st3" d="M47.3,48.5c0,0.3-0.1,0.2,0,0.5c0,0,0.1-0.1,0.1-0.1c0.1-0.1,0,0,0.1-0.2C47.5,48.6,47.4,48.6,47.3,48.5
		L47.3,48.5z"/>
	<path class="st3" d="M47.3,49.1c0,0.3,0,0.2,0.1,0.4c0-0.1,0-0.2,0-0.4C47.4,49.1,47.4,49.1,47.3,49.1L47.3,49.1z"/>
	<path class="st3" d="M48.2,49.3c0,0.1,0.1,0.2,0.1,0.4c0,0,0.1,0,0.1,0c0-0.1,0-0.2,0-0.2C48.4,49.3,48.3,49.3,48.2,49.3L48.2,49.3
		z"/>
	<path class="st3" d="M48.2,52.9c0,0.3,0,0.2,0.1,0.4c0-0.1,0-0.2,0-0.4C48.3,52.9,48.2,52.9,48.2,52.9L48.2,52.9z"/>
	<path class="st3" d="M46.6,53.2c-0.1,0.2-0.4,0.1-0.1,0.2c0.1,0.1,0,0,0.2,0.1C46.7,53.3,46.7,53.3,46.6,53.2L46.6,53.2z"/>
	<path class="st3" d="M47.1,53.2c-0.1,0.3-0.2,0.4-0.2,0.9c0,0,0.1,0,0.1,0c0.2-0.3,0.2-0.2,0.2-0.2c0.1,0.2,0.1,0.7,0.2,0.9
		c0.1,0.1,0.2,0.1,0.5,0.1c0.1-0.1,0,0,0.2-0.1c0-0.1,0.1-0.2,0.1-0.2c-0.2-0.2-0.2-0.6-0.4-0.9c0,0,0,0.1,0,0.1
		c-0.2,0.2-0.1,0.2-0.4,0.4c0-0.1,0-0.2,0-0.2c0.2-0.3,0.2-0.3-0.1-0.5C47.3,53.2,47.3,53.3,47.1,53.2L47.1,53.2z"/>
	<path class="st3" d="M48.3,53.6c0.1,0.1,0,0,0.2,0.1C48.4,53.6,48.5,53.6,48.3,53.6L48.3,53.6z"/>
	<path class="st3" d="M46.5,54c0,0.1,0,0.2,0,0.2c0,0,0.1-0.1,0.1-0.1c0,0,0.1,0,0.1,0C46.6,54.1,46.7,54.1,46.5,54L46.5,54z"/>
	<path class="st3" d="M47.6,54.3c0.2,0.2,0.1,0.1,0.2,0.4c0,0-0.1,0-0.1,0c0,0,0-0.1,0-0.1C47.6,54.4,47.7,54.5,47.6,54.3L47.6,54.3
		z"/>
	<path class="st3" d="M45.4,54.5c0.4,0.2,0.4,0.2,0.5,0.7c0,0-0.1,0-0.1,0c-0.1-0.2,0-0.1-0.1-0.2c0,0.3,0,0.3-0.1,0.5
		c0,0,0-0.1,0-0.1C45.2,55,45.2,54.9,45.4,54.5L45.4,54.5z"/>
	<path class="st3" d="M48.1,55.2c0,0.2-0.1,0.4-0.1,0.6c0,0,0.1,0,0.1,0c0.1-0.4,0.1-0.4,0.2-0.6C48.2,55.2,48.2,55.2,48.1,55.2
		L48.1,55.2z"/>
	<path class="st3" d="M48,55.9c0.1,0.1,0.2,0.2,0.4,0.2c0-0.1,0-0.2,0-0.2C48.2,55.9,48.1,55.9,48,55.9L48,55.9z"/>
	<path class="st3" d="M47.8,56.1c0.1,0.1,0,0,0.2,0.1C48,56.2,48,56.2,47.8,56.1L47.8,56.1z"/>
	<path class="st3" d="M47.1,56.8c0,0.1-0.1,0.2-0.1,0.2C47.2,56.8,47.1,56.8,47.1,56.8L47.1,56.8z"/>
	<path class="st3" d="M46.4,57c0.1,0.1,0,0,0.2,0.1C46.5,57,46.6,57.1,46.4,57L46.4,57z"/>
	<path class="st3" d="M46.1,57.7c0,0.4,0.2,0.6,0.2,1c0.1,0,0.2,0,0.2,0c0,0,0-0.1,0-0.1c0,0,0.1-0.1,0.1-0.1
		C46.4,58.3,46.4,58,46.1,57.7L46.1,57.7z"/>
	<path class="st3" d="M46.2,59.6c0,0.1,0,0.2,0,0.2c0,0,0.1,0,0.1,0c0-0.1,0-0.2,0-0.2C46.3,59.6,46.3,59.6,46.2,59.6L46.2,59.6z"/>
	<path class="st3" d="M46,61.1c0.1,0.1,0.1,0.1,0.1,0.4c0,0-0.1,0-0.1,0C46,61.3,46,61.2,46,61.1L46,61.1z"/>
	<path class="st3" d="M52.3,62.4c0.1,0,0.2,0.1,0.4,0.1c0,0,0,0.1,0,0.1C52.3,62.6,52.4,62.6,52.3,62.4L52.3,62.4z"/>
	<path class="st3" d="M52.1,62.8c0.1,0,0.2,0,0.2,0C52.2,63,52.3,62.9,52.1,62.8L52.1,62.8z"/>
	<path class="st3" d="M46.7,63c0,0.1,0,0.2,0,0.2c0.1,0,0.2,0,0.2,0c0-0.1,0-0.2,0-0.2C46.9,63,46.8,63,46.7,63L46.7,63z"/>
	<path class="st3" d="M49.8,63c0.1,0.4,0,0.9,0.2,1.2c0.1-0.6,0.1-0.5,0.2-1C50,63.2,50,63.1,49.8,63L49.8,63z"/>
	<path class="st3" d="M47.1,63.4c-0.1,0.3-0.2,0.4-0.2,0.7c0.1,0,0.2,0,0.2,0c0.1-0.1,0.2-0.2,0.2-0.2c-0.1-0.2-0.1-0.2,0-0.5
		C47.3,63.4,47.2,63.4,47.1,63.4L47.1,63.4z"/>
	<path class="st3" d="M48.6,63.4c-0.1,0.3-0.2,0.6-0.1,0.7c0,0,0,0.1,0,0.1c0,0,0.1,0,0.1,0c0-0.3,0-0.3,0.1-0.5
		c0.1,0.1,0,0,0.2,0.1c0,0,0-0.1,0-0.1C48.7,63.6,48.8,63.6,48.6,63.4L48.6,63.4z"/>
	<path class="st3" d="M48,64.5c0-0.3,0-0.2-0.1-0.4c-0.2,0.2-0.2,0.2-0.4,0.5c0,0,0.1,0,0.1,0C47.7,64.5,47.7,64.5,48,64.5L48,64.5z
		"/>
	<path class="st3" d="M48.9,64.1c0,0.1,0,0.2,0,0.2c0,0,0.1,0,0.1,0c0-0.1,0-0.2,0-0.2C49,64.1,49,64.1,48.9,64.1L48.9,64.1z"/>
	<path class="st3" d="M49.4,64.1c0,0.3,0.1,0.4,0.1,0.6c0,0,0.1,0,0.1,0c0-0.1,0-0.2,0-0.2C49.6,64.4,49.5,64.2,49.4,64.1L49.4,64.1
		z"/>
	<path class="st3" d="M52.6,64.4c0.1,0.1,0,0,0.2,0.1C52.7,64.4,52.8,64.5,52.6,64.4L52.6,64.4z"/>
	<path class="st3" d="M48.2,64.5c-0.2,0.4-0.2,0.4-0.1,0.9c0.5,0.1,0.4,0.2,0.9,0.4c0-0.1,0-0.2,0-0.2c-0.4-0.3,0-0.2-0.4-0.4
		c0,0,0,0.1,0,0.1c0,0-0.1-0.1-0.1-0.1c0,0-0.1-0.1-0.1-0.1c0.2-0.1,0.3-0.2,0.5-0.2c0,0,0-0.1,0-0.1C48.2,64.7,48.7,64.6,48.2,64.5
		L48.2,64.5z"/>
	<path class="st3" d="M50,64.5c0,0.1-0.1,0.2-0.1,0.4c0.1,0,0.2,0,0.2,0C50.1,64.6,50.1,64.6,50,64.5L50,64.5z"/>
	<path class="st3" d="M48.4,66.3c0.1,0,0.2,0,0.2,0c0,0.3,0,0.3-0.1,0.5C48.5,66.5,48.5,66.5,48.4,66.3L48.4,66.3z"/>
</g>
</svg>
