<?xml version="1.0" encoding="utf-8"?>
<!-- Generator: Adobe Illustrator 23.0.1, SVG Export Plug-In . SVG Version: 6.00 Build 0)  -->
<svg version="1.1" id="Capa_1" xmlns="http://www.w3.org/2000/svg" xmlns:xlink="http://www.w3.org/1999/xlink" x="0px" y="0px"
	 viewBox="0 0 722 340.4" style="enable-background:new 0 0 722 340.4;" xml:space="preserve">
<style type="text/css">
	.st0{enable-background:new    ;}
	.st1{fill:#2063F1;}
</style>
<title>Recurso 1</title>
<g>
	<g id="Capa_1-2">
		
			<image style="overflow:visible;enable-background:new    ;" width="763" height="303" xlink:href="F54012AEB74E741C.png"  transform="matrix(0.9437 0 0 0.9437 0.9673 0)">
		</image>
		<g class="st0">
			<path class="st1" d="M96.6,304.2c0.8,0.1,1.4,0.1,1.8,0.2c0.1,0,0.3,0,0.5,0c0.2,0,0.4,0,0.5,0c0.1,0,0.2,0,0.3,0
				c0.1,0.1,0.3,0.1,0.5,0.3s0.3,0.2,0.4,0.2c0.2,0.1,0.4,0.1,0.6,0.1c0.2,0,0.4,0.1,0.5,0.1c0.1,0,0.1,0.1,0.2,0.2
				c0.1,0.1,0.2,0.2,0.3,0.2c0.1,0.1,0.2,0.1,0.4,0.1c0.1,0,0.2,0.1,0.3,0.1c0.2,0.1,0.4,0.3,0.6,0.6s0.4,0.5,0.6,0.6
				c0.1,0.1,0.2,0.2,0.4,0.3c0.2,0.1,0.3,0.2,0.4,0.2c0,0,0,0.1,0,0.1c0,0.1,0,0.1,0,0.1c0.1,0.1,0.1,0.1,0.2,0.2
				c0.1,0.1,0.2,0.1,0.2,0.2c0.2,0.1,0.3,0.3,0.4,0.5c0.1,0.2,0.3,0.4,0.4,0.5l0.1,0.1c0.1,0.2,0.2,0.4,0.3,0.7
				c0.1,0.3,0.2,0.5,0.2,0.7l0.2,0.3c0,0.1,0,0.2,0.1,0.4s0,0.3,0.1,0.4c0.1,0.2,0.3,0.6,0.5,1c0.2,0.4,0.4,0.8,0.4,1.2
				c0,0.1,0,0.4-0.1,1c0,0.1-0.1,0.2-0.1,0.4c-0.1,0.2-0.1,0.4,0,0.4c0,0,0,0.1,0.1,0.1c0,0.1,0.1,0.1,0.1,0.2
				c0.1,0.2,0.1,0.5,0.1,1c0,0.5,0,0.8-0.1,1c0,0.1-0.1,0.2-0.1,0.3c-0.1,0.1-0.1,0.2-0.1,0.3c0,0.1,0,0.3,0,0.6
				c0,0.3,0,0.5-0.1,0.7l-0.3,0.6v0.5c0,0.1-0.1,0.2-0.2,0.4c-0.1,0.2-0.2,0.3-0.2,0.4c0,0.1,0,0.2,0,0.3c0,0.1,0,0.3-0.1,0.4
				l-0.2,0.1l-0.1,0.6c-0.1,0.2-0.1,0.4-0.3,0.6c-0.1,0.2-0.2,0.3-0.3,0.4c0,0.1,0,0.3,0,0.4c-0.1,0.1-0.1,0.1-0.2,0.2
				c-0.1,0-0.1,0.1-0.2,0.1c0,0.1,0,0.1,0,0.2c0,0.1,0,0.2,0,0.2c-0.1,0.1-0.2,0.3-0.4,0.5s-0.3,0.4-0.4,0.5l-0.2,0.7
				c0,0-0.1,0-0.1,0c-0.1,0-0.1,0-0.1,0c0,0,0,0.1,0,0.1s0,0.1,0,0.1l-0.4,0.4c-0.3,0.5-0.7,0.9-1,1.1c-0.1,0.1-0.2,0.2-0.5,0.3
				c-0.2,0.1-0.4,0.2-0.5,0.3c-0.3,0.3-0.4,0.4-0.4,0.4c-0.1,0.1-0.1,0.1-0.2,0.1c-0.1,0-0.2,0-0.2,0.1c-0.1,0.1-0.1,0.1-0.2,0.2
				c-0.1,0.1-0.2,0.2-0.2,0.2c-0.2,0.1-0.3,0.1-0.6,0.1c-0.2,0-0.4,0.1-0.6,0.1c-0.1,0-0.2,0.1-0.4,0.3c-0.2,0.2-0.3,0.3-0.4,0.3
				c-0.1,0.1-0.2,0.1-0.3,0.1s-0.2,0-0.3,0.1c0,0-0.1,0.1-0.1,0.1c-0.1,0.1-0.1,0.1-0.2,0.1c-0.1,0-0.2,0-0.4,0c-0.2,0-0.3,0-0.4,0
				c-0.1,0.1-0.3,0.1-0.4,0.2c-0.1,0.1-0.3,0.1-0.4,0.2c-0.1,0.1-0.4,0-0.7,0c-0.3-0.1-0.5-0.1-0.6-0.2c-0.1-0.1-0.1-0.1-0.2-0.2
				c-0.1-0.1-0.2-0.1-0.4-0.3c-0.2-0.1-0.3-0.2-0.4-0.3c-0.1-0.2-0.2-0.4-0.2-0.7c0-0.3-0.1-0.5-0.1-0.7c-0.1-0.2-0.2-0.5-0.3-0.7
				c-0.1-0.2-0.2-0.4-0.2-0.6c0-0.1,0-0.2,0-0.4c0-0.2,0-0.3,0-0.3c0.1-0.4,0-1-0.2-1.7c-0.1-0.2-0.1-0.4-0.1-0.6
				c0-0.1,0-0.1,0.1-0.2c0-0.1,0.1-0.1,0.1-0.2V325c0-0.1-0.1-0.4-0.2-1c0-0.1,0-0.1,0-0.1c0,0,0-0.1,0-0.1c0-0.5,0-0.9-0.1-1.1
				l0.1-1.7c-0.1-0.5-0.2-1.2-0.2-2.1c0-0.6,0-1,0.1-1.2c0.1-0.2,0-0.4,0-0.5c-0.1-0.2-0.1-0.3-0.1-0.4v-0.1c0-0.3,0.1-0.6,0.2-1.1
				l-0.1-1.5c0.1-0.6,0.2-1.1,0.2-1.5c0-0.4,0-0.7-0.1-0.8c0-0.1,0-0.2,0-0.4c0-0.1,0.1-0.4,0.2-0.8l0.1-1.3
				c0.1-0.3,0.2-0.7,0.2-0.9v-0.1c0-0.1,0-0.3,0-0.5c0-0.7,0.2-1.4,0.5-2.2c0.3-0.8,0.7-1.2,1-1.4v0.1h0.1c0.1,0,0.1,0,0.3,0
				c0.1,0.1,0.2,0.1,0.3,0.1l0.2-0.2c0.1,0,0.1,0,0.2,0c0.1,0,0.2,0,0.3,0C96.5,304.2,96.6,304.2,96.6,304.2
				C96.6,304.2,96.6,304.2,96.6,304.2z M97.5,307.3c-0.1,0.1-0.3,0.1-0.6,0.1c-0.2,0-0.3,0-0.3,0.1c-0.1,0.1-0.1,0.2-0.1,0.4
				c-0.1,0.1-0.1,0.4-0.1,0.7c0,0.3,0,0.5-0.1,0.6c-0.1,0.3-0.1,0.6-0.1,0.9c0,0.2,0,0.5,0.1,0.7c-0.1,0.1-0.1,0.2-0.1,0.4
				c0,0.2-0.1,0.3-0.1,0.5l0,0.2c0.1,0.6,0.1,1,0.1,1c0,0.2,0,0.4,0,0.5c0,0.1-0.1,0.2-0.1,0.3c0,0.1-0.1,0.3-0.1,0.3
				c0.1,0.2,0.1,0.4,0.1,0.5c-0.1,0.7-0.2,1.2-0.2,1.5c0,0.3,0,0.5,0,0.6c0,0.1,0,0.2,0,0.4c0,0.2-0.1,0.4-0.1,0.6
				c0,0.1,0,0.2,0,0.3c0,0,0,0.1,0.1,0.2c0.1,0.1,0.1,0.1,0.1,0.2c0,0.8,0,1.3,0,1.5c0,0.2,0,0.6,0.1,1.2c0,0.1-0.1,0.3-0.2,0.7
				s-0.1,0.6-0.1,0.8c0.1,0.2,0.1,0.6,0.2,1c0.1,0.5,0.1,0.9,0.2,1.3c0,0.1,0,0.3,0,0.5c-0.1,0.3-0.1,0.4-0.1,0.5
				c0,0.1,0,0.2,0.1,0.3c0.1,0.1,0.1,0.2,0.1,0.3c0,0.1,0,0.3,0,0.5c0,0.2-0.1,0.4-0.1,0.5c0,0.2,0,0.4,0,0.6
				c0.1,0.2,0.1,0.4,0.1,0.6c0,0,0.1,0,0.1,0c0.1,0,0.1,0,0.2,0c0.2-0.2,0.4-0.3,0.6-0.4c0.2-0.1,0.5-0.1,0.8-0.2
				c0.2,0,0.5-0.1,0.8-0.2c0,0,0.1-0.1,0.1-0.1c0.1-0.1,0.1-0.1,0.2-0.1c0.6-0.3,1-0.5,1.4-0.7c0.3-0.2,0.6-0.4,0.9-0.7
				c0-0.1,0.1-0.1,0.1-0.2c0-0.1,0.1-0.1,0.1-0.2c0.1-0.1,0.2-0.1,0.3-0.3c0.2-0.1,0.3-0.2,0.4-0.3c0.1-0.2,0.2-0.4,0.3-0.6
				s0.2-0.4,0.3-0.6c0-0.1,0.1-0.2,0.2-0.2c0.1-0.1,0.1-0.2,0.2-0.3v-0.5c0-0.1,0.1-0.2,0.2-0.4c0.1-0.2,0.2-0.3,0.2-0.4
				c0.1-0.1,0.1-0.3,0-0.4s0-0.3,0-0.4c0.1-0.3,0.3-0.5,0.5-0.8c0.2-0.3,0.4-0.6,0.5-0.9l0-0.8c0.1-0.6,0.2-1.4,0.1-2.4l0.1-0.5
				c0-0.1,0-0.3,0-0.5c0-0.2,0-0.4,0-0.6c0.1-0.4,0.1-0.6,0.1-0.7l0-0.2c0-0.1-0.1-0.4-0.2-0.8c-0.1-0.4-0.2-0.7-0.3-1l-0.4-0.3
				v-0.2c-0.1-0.1-0.1-0.3-0.2-0.6c-0.1-0.3-0.2-0.5-0.3-0.6c-0.1-0.1-0.2-0.2-0.4-0.3c-0.2-0.1-0.4-0.2-0.4-0.3
				c-0.1-0.1-0.1-0.2-0.2-0.3c-0.1-0.1-0.1-0.2-0.2-0.3c-0.1-0.1-0.1-0.1-0.3-0.1c-0.1,0-0.2,0-0.2-0.1c-0.1,0-0.1-0.1-0.2-0.2
				s-0.1-0.2-0.1-0.3c-0.1-0.1-0.2-0.2-0.3-0.2c-0.2-0.1-0.3-0.1-0.4-0.2c-0.1-0.1-0.1-0.1-0.2-0.2c-0.1-0.1-0.1-0.1-0.2-0.2
				c-0.1-0.1-0.2-0.1-0.3-0.1c-0.1,0-0.2-0.1-0.3-0.1c-0.1,0-0.2-0.1-0.2-0.1s-0.1-0.1-0.2-0.1h-0.3c-0.1-0.1-0.2-0.1-0.4-0.2
				c-0.1-0.1-0.2-0.1-0.3-0.2c-0.1-0.1-0.3-0.1-0.5,0s-0.3,0.1-0.4,0.1S97.6,307.3,97.5,307.3z"/>
			<path class="st1" d="M119.5,304.1c0.2,0,0.4,0,0.7,0h0.7c0,0,0.1,0,0.2,0c0.1,0,0.1,0,0.2,0c0.1,0,0.4,0.1,0.7,0.1
				c0.3,0.1,0.6,0.2,0.8,0.3l0.3,0.3c0.1,0,0.1,0,0.2,0s0.1,0,0.2,0l0.2,0.3c0.1,0.1,0.2,0.1,0.3,0.1c0.1,0,0.2,0.1,0.2,0.1
				c0,0,0,0.1,0.1,0.1c0,0,0,0.1,0.1,0.1c0,0,0.1,0,0.1,0.1c0.1,0,0.1,0,0.1,0.1c0.1,0.1,0.2,0.3,0.3,0.5c0.1,0.2,0.1,0.4,0.2,0.5
				c0,0,0.1,0.1,0.2,0.1c0.1,0.1,0.1,0.1,0.2,0.2c0.1,0.1,0.2,0.3,0.2,0.5s0.1,0.4,0.2,0.5c0.1,0.1,0.2,0.3,0.5,0.7
				c0.2,0.4,0.4,0.7,0.5,1c0.1,0.5,0.1,1,0.2,1.2c-0.1,0.2-0.2,0.4-0.2,0.6l0,0.2l0.2,0.5l0,0.3v0.1l0.2,0.1c0,0.1,0,0.2,0,0.3
				c0,0.1-0.1,0.3-0.1,0.3v0.1c0.1,0.7,0.2,1.4,0.1,2c-0.1,0.4-0.1,0.7-0.1,0.8v0.1c0.1,0.3,0.1,0.8,0.1,1.5c0,0.6,0,1,0,1.4
				c0,0.4,0,0.7,0,0.9c0,0.1,0,0.1,0,0.2l-0.3,0.8c0,0.1,0,0.1,0,0.2c0,0.1,0,0.1,0,0.1c0,0.1,0,0.2,0,0.4c-0.1,0.2-0.1,0.3-0.1,0.5
				v0.1c0,0.1,0,0.1,0,0.2c0,0.1,0,0.2,0,0.3c0,0.1,0,0.1,0,0.2c-0.1,0.1-0.1,0.2-0.2,0.4c-0.1,0.1-0.2,0.3-0.3,0.5
				c0,0.1,0,0.1,0,0.2c0,0.1,0.1,0.2,0.1,0.3c0,0.1,0,0.2-0.1,0.3c0,0.1-0.2,0.4-0.4,0.8c-0.1,0.1-0.1,0.3-0.1,0.6
				c0,0.3-0.1,0.4-0.1,0.5c-0.1,0.1-0.2,0.3-0.3,0.5c-0.1,0.2-0.3,0.3-0.3,0.5l0.1,0.2c0,0-0.1,0-0.1,0.1c-0.1,0-0.1,0-0.1,0.1
				c-0.1,0.1-0.1,0.2-0.2,0.3c0,0.1-0.1,0.2-0.1,0.3c-0.2,0.1-0.3,0.2-0.3,0.2c-0.1,0.1-0.1,0.2-0.1,0.4c0,0.2-0.1,0.4-0.2,0.5
				c0,0.1-0.1,0.1-0.3,0.2c-0.2,0.1-0.3,0.1-0.3,0.2c-0.1,0.1-0.2,0.3-0.3,0.5c-0.1,0.2-0.2,0.4-0.3,0.5c-0.1,0.1-0.2,0.1-0.4,0.2
				c-0.2,0-0.3,0.1-0.4,0.1c-0.1,0.1-0.1,0.1-0.2,0.2c-0.1,0.1-0.1,0.1-0.2,0.2l-0.3,0.1c0,0,0,0.1,0,0.1s0,0.1,0,0.1
				c-0.1,0.1-0.3,0.1-0.6,0.1c-0.3,0-0.5,0.1-0.6,0.1c-0.1,0-0.2,0-0.2,0c-0.1-0.1-0.1-0.1-0.1-0.1c-0.1,0-0.2,0-0.3,0
				c-0.1,0-0.2,0-0.3,0c-0.1,0-0.2,0-0.2,0c-0.7-0.2-1.4-0.5-2.1-0.8c-0.1-0.1-0.3-0.1-0.4-0.1c-0.2,0-0.3-0.1-0.4-0.2
				c0,0,0-0.1-0.1-0.2c0-0.1,0-0.1-0.1-0.2c-0.3-0.3-0.6-0.6-0.8-0.8c-0.1-0.2-0.2-0.3-0.4-0.3h-0.2c-0.1-0.1-0.1-0.2-0.2-0.3
				s-0.1-0.3-0.2-0.4h-0.2c-0.1-0.1-0.1-0.1-0.1-0.2c0-0.1-0.1-0.2-0.1-0.2c0-0.1-0.1-0.1-0.2-0.1c-0.1,0-0.1-0.1-0.2-0.1l-0.4-1.1
				v-0.4c0-0.1-0.1-0.2-0.2-0.3c-0.1-0.1-0.2-0.2-0.3-0.3c-0.1-0.2-0.1-0.4-0.1-0.7c0-0.3-0.1-0.6-0.1-0.7c0-0.1-0.1-0.3-0.1-0.4
				c-0.1-0.1-0.1-0.3-0.1-0.4c0-0.1,0-0.3,0-0.6c0-0.1-0.1-0.2-0.2-0.4s-0.1-0.3-0.2-0.4l0-0.8c-0.1-0.3-0.1-0.6-0.1-1
				c0-0.3,0-0.6,0.1-0.9c0.1-0.3,0-0.6-0.1-1c-0.1-0.4-0.2-0.7-0.2-0.9c0-0.1,0-0.3,0.1-0.6s0.1-0.6,0.2-0.8c0-0.1,0-0.5-0.2-1.1
				c-0.1-0.3,0-0.7,0.1-1.1c0.1-0.5,0.2-0.8,0.2-0.9c0-0.1,0-0.2,0-0.4v-0.4c0-0.2,0-0.4,0.1-0.5l0.8-2.3c0.1-0.2,0.1-0.3,0.1-0.5
				c0-0.2,0.1-0.3,0.1-0.5c0.1-0.1,0.1-0.2,0.3-0.3s0.2-0.2,0.2-0.3l0.2-0.6c0.1-0.3,0.4-0.6,0.8-1.1c0.4-0.5,0.7-0.8,1-0.9
				c0.1-0.1,0.1-0.1,0.2-0.1c0.1,0,0.2,0,0.3-0.1l1.7-0.8c0.2-0.1,0.6-0.1,1.1-0.1c0.1,0,0.2,0,0.5,0c0.2,0,0.4,0,0.4,0
				S119.4,304.2,119.5,304.1z M116.6,308.2l-0.4,0.1c-0.1,0.6-0.3,1.2-0.6,1.6c-0.1,0.1-0.1,0.2-0.3,0.3c-0.1,0.1-0.2,0.2-0.2,0.3
				v0.5l-0.2,0.4c0,0.1,0,0.1,0,0.2c0,0.1,0,0.2,0,0.3c0,0.1,0,0.1,0,0.2c-0.1,0.1-0.1,0.2-0.2,0.3c-0.1,0.1-0.2,0.2-0.2,0.4l0,1
				c-0.2,0.6-0.3,1.3-0.3,2.2c0,0.1,0,0.4,0.1,0.8l0.1,1.3c0,0.1,0,0.1,0,0.2c0,0.1,0,0.1,0,0.2c0,0.1,0,0.1,0,0.3
				c0,0.1,0,0.3,0,0.4l-0.2,0.2c0,0.1,0,0.1,0,0.1c0,0,0,0.1,0,0.1c0,0.1,0,0.1,0,0.3c0,0.1,0,0.3,0,0.4l0,0.2
				c0,0.1,0.1,0.3,0.1,0.4c0,0.1,0.1,0.2,0.1,0.3v0.6l0.2,0.2c0,0.7,0,1.2,0,1.5c0,0.1,0.1,0.2,0.2,0.3c0.1,0.1,0.1,0.2,0.2,0.2
				c0.1,0.1,0.2,0.3,0.2,0.5c0.1,0.2,0.1,0.4,0.1,0.5c0,0.2,0,0.4,0.1,0.7c0,0.3,0,0.5,0.1,0.7c0.1,0.3,0.3,0.6,0.5,0.9
				c0.2,0.3,0.5,0.5,0.9,0.8c0.4,0.3,0.6,0.4,0.8,0.5c0.1,0.1,0.1,0.1,0.2,0.2c0,0.1,0.1,0.2,0.1,0.2c0.1,0.1,0.2,0.2,0.5,0.3
				c0.3,0.1,0.5,0.2,0.6,0.2c0.4-0.1,0.7-0.1,1-0.3c0.3-0.1,0.6-0.3,0.7-0.5c0.1-0.1,0.1-0.2,0.1-0.3c0-0.1,0.1-0.2,0.1-0.2
				c0.1-0.1,0.2-0.2,0.3-0.3c0.1-0.1,0.2-0.2,0.3-0.3c0.1-0.1,0.1-0.2,0.2-0.4c0.1-0.2,0.1-0.3,0.2-0.4l0.3-0.3
				c0.1-0.1,0.2-0.4,0.4-0.9c0.1-0.4,0.2-0.7,0.3-0.8l0.3-0.3c0.1-0.1,0.1-0.3,0.1-0.5c0-0.3,0-0.5,0-0.6c0.1-0.1,0.1-0.2,0.2-0.3
				c0.1-0.1,0.1-0.2,0.2-0.3c0.1-0.2,0.1-0.4,0.1-0.5l0-0.8c0-0.2,0-0.4,0-0.5c0-0.2,0.1-0.4,0.2-0.5c0.1-0.1,0.2-0.3,0.2-0.4
				c0.1-0.1,0-0.2,0-0.3c-0.1-0.1-0.1-0.2-0.1-0.2c0-0.1,0-0.2,0-0.4c0-0.1,0-0.2,0-0.3c0-0.1,0-0.2,0-0.3l0-0.3
				c0-0.2,0-0.5,0.1-0.9c0.1-0.4,0.1-0.8,0-1c0-0.1,0-0.2,0-0.4c0-0.3,0-0.6,0.1-0.8c0-0.2,0-0.4-0.1-0.6c-0.1-0.2-0.1-0.4-0.2-0.5
				c-0.1-0.2,0-0.4,0.1-0.7c0.1-0.3,0.1-0.5,0.1-0.6c0-0.1-0.1-0.2-0.1-0.2c0-0.1-0.1-0.2-0.1-0.2c0-0.1-0.1-0.3-0.1-0.6
				c0-0.2-0.1-0.4-0.1-0.6c-0.2-0.6-0.6-1.4-1-2.3c0-0.1-0.1-0.2-0.1-0.5c-0.1-0.2-0.1-0.4-0.2-0.5c0-0.1-0.1-0.1-0.2-0.1
				c-0.1,0-0.2-0.1-0.2-0.1c-0.1-0.1-0.1-0.2-0.2-0.3c-0.1-0.1-0.1-0.2-0.3-0.3c-0.1-0.1-0.4-0.1-0.9-0.1c-0.3,0-0.6,0-0.9,0.1
				c-0.2,0-0.3,0-0.5-0.1c-0.2-0.1-0.3-0.1-0.4-0.1h-0.1c-0.1,0-0.2,0.1-0.3,0.2c-0.1,0.1-0.2,0.1-0.3,0.2c-0.1,0.1-0.3,0.1-0.6,0.2
				c-0.3,0.1-0.5,0.1-0.6,0.2c-0.1,0-0.1,0.1-0.2,0.2c-0.1,0.1-0.1,0.2-0.2,0.2V308.2z"/>
			<path class="st1" d="M151.1,304.2c0.1,0,0.2,0.1,0.4,0.1c0.2,0,0.3,0.1,0.4,0.2c0.3,0.2,0.7,0.7,1.2,1.5c0.1,0.1,0.2,0.2,0.3,0.3
				c0.2,0.1,0.3,0.3,0.3,0.4c0.1,0.1,0.1,0.2,0.1,0.3c0,0.1,0,0.2,0,0.2l0,0.2c0.1,0.2,0.2,0.4,0.3,0.4c0,0.1,0,0.3,0,0.5
				s0,0.4,0,0.5c0,0.2,0,0.4,0,0.5s0,0.3,0,0.5c0,0.1,0,0.2,0.1,0.3c0.1,0.1,0.2,0.3,0.2,0.3c0,0.1,0,0.2,0,0.3c0,0.1,0,0.3,0,0.4
				c0,0.1,0,0.3,0,0.4v0.2c0,0.2,0.1,0.6,0.3,1.3c0.2,0.7,0.2,1.4,0.2,2c0,0.3,0,0.6,0,0.8c-0.1,0.3,0,0.6,0.1,1
				c0.1,0.4,0.2,0.7,0.2,0.9c0,0.1,0,0.2,0,0.4c0,0.2-0.1,0.3-0.1,0.5v0.1c0,0,0,0.1,0.1,0.2c0.1,0.1,0.1,0.1,0.1,0.2
				c0.1,0.2,0.1,0.3,0.1,0.4c0,0.2,0,0.5-0.1,0.8c-0.1,0.3-0.2,0.4-0.2,0.5c0,0.1,0,0.1,0,0.2s0,0.2,0,0.2s0,0.1,0,0.1
				c0,0.1,0,0.3,0.1,0.6c0.1,0.3,0.2,0.5,0.2,0.6c0,0.1,0,0.2,0,0.3c0,0.1,0,0.3,0,0.5l0.2,0.4c0.1,0.2,0.1,0.4,0.1,0.7
				s0,0.6-0.1,0.9c0,0.1,0,0.2,0,0.3c0,0.1,0.1,0.2,0.1,0.3c0,0.1,0,0.2,0,0.3c0,0.1-0.1,0.2-0.1,0.2c0,0.2,0,0.4,0.1,0.6
				c0,0.2,0.1,0.3,0.1,0.4c0,0,0,0.1,0,0.1c0,0.1,0,0.1,0,0.1c0,0.2,0,0.4,0,0.8s0,0.7,0,1c0.1,0.4,0.2,0.8,0.2,1.1
				c0,0.4-0.1,0.8-0.2,1c-0.1,0.1-0.3,0.2-0.5,0.3c-0.2,0.1-0.4,0.1-0.6,0.1c-0.1-0.1-0.3-0.2-0.6-0.3c-0.3-0.1-0.5-0.2-0.6-0.3
				c-0.2-0.2-0.3-0.6-0.4-1.2v-0.5c0,0-0.1-0.1-0.1-0.1c-0.1,0-0.1-0.1-0.1-0.1c0.1-0.1,0.1-0.3,0-0.5c0-0.3-0.1-0.5-0.1-0.6v-0.2
				c0-0.1,0-0.2,0-0.4c0-0.2,0-0.4-0.1-0.7c-0.1-0.3-0.1-0.5,0-0.7c0-0.1,0-0.3,0.1-0.6c0-0.3,0.1-0.6,0.1-0.9c0-0.2,0-0.4-0.1-0.7
				c-0.1-0.4-0.2-0.7-0.3-0.8l-0.3-0.8c0-0.2,0-0.5,0.1-1c0.1-0.2,0-0.5,0-1c0,0,0-0.1,0.1-0.2c0-0.1,0.1-0.2,0.1-0.3V320l-0.2-0.1
				l0-0.9c0-0.1,0-0.2,0-0.4c0-0.2,0-0.3,0-0.5v-0.2c-0.2-1-0.4-1.6-0.4-1.8c0-0.1,0-0.2,0.1-0.4c0.1-0.1,0.1-0.2,0.1-0.3v-0.2
				c-0.4-1.7-0.5-2.8-0.5-3.2c0.1-0.3,0.1-0.6-0.1-0.9c-0.1-0.3-0.2-0.5-0.2-0.7c0-0.1,0-0.1,0-0.2c0-0.1,0.1-0.2,0.1-0.3v0
				c0-0.2-0.1-0.4-0.1-0.7c-0.1-0.3-0.1-0.6-0.2-0.9c-0.1-0.3-0.2-0.5-0.4-0.7l-0.2-0.1c-0.3,0.1-0.5,0.2-0.8,0.3
				c-0.3,0.2-0.5,0.3-0.6,0.5l-0.1,0.4c-0.1,0.1-0.2,0.1-0.3,0.2c-0.1,0.1-0.2,0.1-0.3,0.2c-0.2,0.2-0.3,0.5-0.5,0.7
				c-0.1,0.2-0.3,0.4-0.4,0.6c-0.1,0.1-0.1,0.2-0.3,0.3s-0.2,0.2-0.3,0.4l-0.2,0.6c0,0,0,0.1-0.1,0.1c-0.1,0.1-0.2,0.1-0.2,0.1
				c-0.1,0.1-0.1,0.2-0.2,0.4c-0.1,0.2-0.1,0.3-0.2,0.4c-0.1,0.1-0.1,0.1-0.1,0.1c0,0-0.1,0.1-0.1,0.1c-0.1,0.1-0.1,0.1-0.1,0.2
				c0,0.1,0,0.2-0.1,0.2c-0.1,0.1-0.2,0.1-0.3,0.2v0.3c-0.1,0.1-0.3,0.3-0.5,0.4c-0.2,0.2-0.4,0.3-0.6,0.4v0h-0.4
				c-0.1,0.1-0.2,0.2-0.3,0.3c-0.1,0.1-0.2,0.2-0.3,0.3l-0.3,0c-0.1,0-0.1,0-0.2,0.1c-0.1,0-0.2,0.1-0.2,0.1c-0.1,0-0.3,0-0.5,0
				c-0.2,0-0.4,0-0.5,0h-0.6c-0.1,0-0.2-0.1-0.3-0.1c-0.1,0-0.2-0.1-0.3-0.1c0-0.2-0.1-0.3-0.2-0.6c-0.1-0.2-0.3-0.4-0.4-0.5
				c-0.1-0.1-0.2-0.2-0.4-0.3s-0.3-0.2-0.4-0.3c-0.1-0.2-0.1-0.6-0.1-1.2c0-0.1,0-0.3,0-0.5c0-0.2-0.1-0.4-0.1-0.5
				c0-0.1-0.1-0.1-0.2-0.3c-0.1-0.1-0.1-0.2-0.2-0.3c-0.1-0.2-0.1-0.4-0.1-0.7c0-0.3,0-0.5-0.1-0.6c0-0.1,0-0.1-0.1-0.2
				c-0.1-0.1-0.2-0.1-0.2-0.2c-0.1-0.2-0.2-0.4-0.2-0.7c-0.1-0.3-0.2-0.5-0.4-0.6l-0.1-0.1c0,0.1-0.1,0.2-0.2,0.4s-0.2,0.3-0.2,0.4
				l-0.1,1.2c-0.3,0.8-0.4,1.2-0.4,1.4c0,0.1,0,0.2,0.1,0.4s0.1,0.3,0.1,0.4c0,0.1,0,0.3-0.1,0.5c-0.1,0.2-0.1,0.3-0.1,0.4
				c0,0.1,0,0.2,0,0.4c0,0.1,0,0.3,0,0.4c-0.2,0.5-0.3,1.1-0.4,1.7c0,0.1,0,0.2,0,0.4c0,0.2,0,0.3-0.1,0.4c0,0.1-0.1,0.1-0.1,0.2
				c-0.1,0.1-0.1,0.1-0.1,0.1c-0.1,0.1,0,0.3,0,0.7c0.1,0.3,0.1,0.6,0,0.8c0,0.2-0.1,0.5-0.2,0.9c-0.1,0.4-0.2,0.7-0.2,0.8
				c0,0.1-0.1,0.1-0.1,0.1c0,0-0.1,0-0.1,0.1l0,0.9c-0.2,0.7-0.3,1.2-0.3,1.4c-0.3,0.8-0.5,1.6-0.5,2.2l0,0.3c0,0.3,0,0.6-0.1,0.9
				c0,0.1,0,0.3,0,0.4c0,0.1,0,0.2,0,0.3c0,0.3-0.1,0.6-0.2,1.1l0,0.7c-0.1,0.3-0.2,0.7-0.3,0.9c-0.1,0.3-0.2,0.5-0.3,0.8
				c0,0.1,0,0.3,0,0.6s0.1,0.4,0.1,0.5v0.2c-0.1,0.2-0.2,0.4-0.6,0.7c-0.3,0.3-0.6,0.5-0.7,0.5c-0.1,0-0.1,0-0.2,0
				c-0.1,0-0.1,0-0.1,0c-0.1-0.1-0.2-0.1-0.3-0.1c-0.1,0-0.2,0-0.3,0.1v-0.1h0l0.2-0.1c-0.1,0-0.2-0.1-0.3-0.1
				c-0.1,0-0.1-0.1-0.2-0.1c0-0.1,0-0.3-0.1-0.4c-0.1-0.2-0.1-0.3-0.1-0.4l0-0.5c0,0,0-0.1-0.1-0.2c-0.1-0.1-0.1-0.2-0.1-0.3
				c0,0,0-0.1,0.1-0.2c0-0.1,0.1-0.2,0.1-0.3c-0.1-0.2-0.1-0.4-0.1-0.5V329c0.1-0.2,0.1-0.4,0.2-0.6c0.1-0.3,0.2-0.6,0.2-0.9v-1.6
				c0.1-0.4,0.1-0.6,0.2-0.6c0.1-0.2,0.1-0.4,0.1-0.5c0-0.2,0-0.4-0.1-0.7c-0.1-0.3-0.1-0.5-0.1-0.7c0-0.2,0.1-0.5,0.3-1.1
				s0.2-1,0.1-1.3c0.3-0.7,0.5-1.1,0.5-1.2c0-0.1,0-0.1,0-0.2c0-0.1,0-0.1,0-0.2c0-0.1,0-0.1,0-0.2c0-0.1,0.1-0.2,0.2-0.3
				c0.1-0.1,0.2-0.3,0.2-0.3c0.1-0.3,0.2-0.7,0.2-1.2c0-0.5,0-0.9-0.1-1.2c0-0.2,0-0.5,0.1-0.8c0.1-0.3,0.2-0.5,0.3-0.6
				c0-0.1,0-0.3,0-0.4c0-0.1,0-0.2,0-0.4l0.2-0.6c0-0.1,0-0.2,0-0.4c0-0.1-0.1-0.2-0.1-0.3l0-0.2c0-0.1,0.1-0.3,0.1-0.7
				c0.1-0.3,0.1-0.6,0.1-0.7c0-0.1,0-0.3,0-0.5c0-0.3,0.1-0.6,0.2-1c0.1-0.3,0.2-0.5,0.2-0.6c0-0.1,0-0.3,0-0.6v-0.5
				c0-0.1,0.1-0.2,0.2-0.4s0.2-0.3,0.3-0.4c0-0.1,0-0.2,0-0.2c0-0.1,0-0.2,0-0.2c0.2-0.5,0.6-1,1-1.5c0.4-0.4,0.8-0.6,1.3-0.6
				c0.2-0.1,0.4-0.2,0.6-0.2c0.1,0,0.2,0,0.3,0.1c1,0.3,1.7,0.8,2.2,1.5c0.5,0.6,1,1.6,1.5,2.9c0.1,0.2,0.1,0.5,0.1,0.8l0.5,1.8
				c0,0.1,0,0.3,0.1,0.5c0,0.2,0,0.4,0.1,0.5c0.1,0.1,0.1,0.2,0.3,0.3c0,0.1,0.1,0.1,0.2,0.1c0.1-0.1,0.1-0.1,0.2-0.1
				c0.1,0,0.1-0.1,0.2-0.1c0-0.1,0.1-0.1,0.1-0.3c0.1-0.1,0.1-0.2,0.2-0.3c0,0,0.1,0,0.2,0c0.1,0,0.2-0.1,0.2-0.1
				c0-0.1,0.1-0.2,0.1-0.3c0-0.1,0.1-0.2,0.1-0.3c0.1-0.1,0.2-0.2,0.2-0.2c0.2-0.3,0.4-0.7,0.7-1.2l0-0.4c0-0.1,0.1-0.2,0.1-0.3
				c0.1-0.1,0.1-0.2,0.2-0.3v-0.2c0.1-0.1,0.2-0.2,0.4-0.3c0.2-0.1,0.3-0.2,0.4-0.2c0.2-0.2,0.3-0.4,0.5-0.7
				c0.1-0.1,0.1-0.2,0.3-0.4c0.1-0.2,0.3-0.4,0.4-0.5c0.1-0.1,0.1-0.1,0.3-0.2c0.1-0.1,0.2-0.1,0.3-0.2c0.1-0.1,0.3-0.3,0.6-0.5
				c0.2-0.3,0.4-0.4,0.6-0.5c0.2-0.1,0.3-0.1,0.4-0.2l0.2-0.2c0.2-0.1,0.5-0.1,1-0.2C150.7,304.3,151,304.3,151.1,304.2z"/>
			<path class="st1" d="M163.2,304.7c0.1,0,0.2,0,0.5,0.1c0.3,0.1,0.5,0.2,0.6,0.3c0.1,0.1,0.2,0.2,0.4,0.5c0.2,0.3,0.3,0.5,0.3,0.6
				c0,0.1,0,0.1,0,0.1c0,0,0,0.1,0,0.1l0,0.7c0,0.1-0.1,0.3-0.2,0.6c0,0.1,0,0.3,0,0.6c0,0.5,0,0.9,0.1,1.2l0,1c0,0.3,0,0.5-0.1,0.7
				v1.1c-0.2,0.8-0.4,1.9-0.5,3.1c0,0.1,0,0.2,0,0.4c0,0.2,0,0.3,0,0.4c0.1,0.4,0.1,0.7,0,0.9c-0.1,0.3-0.1,0.6-0.1,1.1
				c0,0.5-0.1,0.8-0.1,1.1l-0.1,1.3v1l-0.4,1.7c0,0.1,0,0.2,0,0.3c0,0.1,0.1,0.2,0.1,0.3v0.1c0,0.1-0.1,0.4-0.3,0.7
				c-0.2,0.3-0.3,0.6-0.3,0.7c0,0.1,0,0.2,0.1,0.2c0,0.2,0,0.4,0,0.6c0,0.3-0.1,0.4-0.1,0.5c0,0.2,0,0.4-0.1,0.6
				c-0.1,0.2-0.1,0.4-0.1,0.5c0,0.1,0,0.2,0.1,0.3c0,0.1,0.1,0.2,0.1,0.4c0,0.1,0,0.2-0.1,0.4l-0.2,0.8c0,0.1,0,0.3,0,0.4
				c0,0.2,0,0.3,0,0.4s0,0.2-0.1,0.4c0,0.1-0.1,0.2-0.2,0.3c-0.1,0.1-0.2,0.2-0.3,0.2c-0.1,0-0.3,0.1-0.6,0.1
				c-0.2,0.1-0.4,0.1-0.6,0.1c-0.1,0-0.2,0-0.2,0l-0.7-0.2c-0.1-0.2-0.2-0.3-0.3-0.6c-0.1-0.2-0.2-0.4-0.3-0.5c0-0.1,0-0.2,0-0.2
				c0-0.1,0.1-0.1,0.1-0.2c0-0.1,0-0.2,0-0.4c0-0.2-0.1-0.3-0.1-0.5v-0.1c0.1-0.2,0.1-0.3,0.2-0.5c0.1-0.2,0.1-0.3,0.1-0.4l-0.1-0.3
				V327l0.2-1c0-0.1,0-0.2,0-0.4c0-0.2,0-0.3,0-0.4c0-0.1,0-0.2,0-0.3c0.3-0.7,0.5-1.3,0.6-2c0.1-0.2,0.1-0.6,0-1.1l0.2-0.4
				c0-0.2,0-0.5,0-0.9c0-0.4-0.1-0.7-0.1-0.9c0-0.3,0.1-0.7,0.2-1.1c0.1-0.4,0.2-0.6,0.2-0.7c0.2-0.5,0.3-0.9,0.3-1.2
				c0.1-0.2,0.1-0.6,0.1-1.1l0-1.2c0-0.2,0-0.6,0-1l0-0.6v-0.1c0-0.1,0.1-0.1,0.1-0.1c0,0,0.1-0.1,0.1-0.1c0.1-0.2,0.2-0.5,0.2-0.8
				c0.2-0.8,0.3-1.3,0.2-1.5c0-0.1,0-0.2-0.1-0.3c0-0.1-0.1-0.3-0.1-0.4v-0.1c0.3-0.9,0.4-1.5,0.4-1.8l0-0.9c0-0.2,0-0.3,0-0.4
				c0.1-0.2,0.2-0.5,0.4-0.7c0.2-0.2,0.4-0.4,0.5-0.5C163,304.8,163.2,304.8,163.2,304.7z M163.5,300.2c0.1,0,0.2,0,0.5,0
				s0.4,0,0.5,0.1c0.3,0.1,0.5,0.3,0.7,0.6c0.2,0.3,0.2,0.6,0.2,1c0,0.1,0,0.2,0,0.4c0,0.2,0,0.3,0,0.3c-0.2,0.4-0.5,0.7-0.7,0.9
				s-0.6,0.3-1,0.2c-0.1,0-0.2,0-0.3,0c-0.1,0-0.2,0.1-0.3,0.1c-0.1,0-0.1,0-0.1,0c-0.4-0.1-0.7-0.3-0.9-0.6
				c-0.2-0.3-0.3-0.7-0.4-1.1c0-0.1,0-0.3,0-0.5c0-0.2,0.1-0.4,0.1-0.4c0.1-0.1,0.2-0.2,0.3-0.3c0.1-0.1,0.2-0.3,0.3-0.3
				L163.5,300.2z"/>
			<path class="st1" d="M170.4,332.1c0-0.4-0.1-0.9-0.2-1.3c-0.2-0.4-0.3-0.7-0.4-0.9c0-0.2,0-0.4,0-0.6c0.1-0.2,0.1-0.4,0.1-0.6
				v-0.2c-0.1-0.5-0.2-1-0.2-1.7c0-0.1,0.1-0.3,0.1-0.6c0.1-0.3,0.1-0.5,0.1-0.7c0-0.2,0-0.3,0-0.4c-0.1-0.8-0.2-1.2-0.2-1.2
				c0.1-0.3,0.2-0.5,0.2-0.6s0-0.2,0-0.3c0-0.1,0-0.2-0.1-0.3c-0.1-0.1-0.1-0.2-0.1-0.3c0-0.1,0-0.2,0-0.4c0-0.1,0-0.3,0-0.6
				c0-0.3,0-0.5-0.1-0.7c0-0.1,0-0.3,0-0.5c0-0.2,0-0.4-0.1-0.5c0.1-0.2,0.1-0.4,0.1-0.8c0-0.2,0-0.3,0-0.4c0-0.1-0.1-0.2-0.1-0.3
				c-0.1-0.1-0.1-0.2-0.1-0.3c0-0.2,0-0.4,0-0.6c0-0.2,0-0.3,0-0.5c0-0.3,0-0.7,0-1.2c-0.1-0.4-0.2-1-0.2-1.8c0-0.8,0.1-1.3,0.2-1.6
				c0-0.1,0-0.2-0.1-0.4c-0.1-0.2-0.1-0.3-0.1-0.4l0-0.4c0.1-0.1,0-0.5-0.1-1c0-0.6,0-1,0-1.3c0.1-0.1,0.1-0.1,0-0.3
				c0-0.2,0-0.7,0.1-1.5c0.1-0.8,0.2-1.3,0.3-1.5l0.3-0.4c0.1-0.1,0.1-0.2,0.2-0.4c0.1-0.2,0.1-0.3,0.2-0.3c0.1-0.1,0.2-0.1,0.4-0.1
				c0.1-0.1,0.3-0.2,0.4-0.2c0.1,0,0.3,0,0.4,0.1c0.2,0,0.3,0.1,0.4,0.1c0.3,0.1,0.6,0.1,0.7,0.3c0.2,0.1,0.3,0.3,0.5,0.6
				c0.2,0.3,0.4,0.4,0.5,0.5c0.4,0.2,0.6,0.4,0.6,0.6c0.1,0.1,0.1,0.2,0.2,0.3c0,0.1,0.1,0.2,0.1,0.3c0.1,0,0.1,0.1,0.2,0.2
				c0,0.1,0,0.2,0,0.3c0.1,0.1,0.1,0.3,0.2,0.4s0.2,0.3,0.3,0.6c0.3,0.5,0.5,0.9,0.6,1.2c0.1,0.1,0.1,0.2,0.2,0.4
				c0.1,0.2,0.1,0.3,0.2,0.4c0.3,0.3,0.5,0.6,0.6,0.9c0,0.1,0,0.3,0,0.6c0.1,0.1,0.2,0.2,0.2,0.3c0.1,0.1,0.1,0.1,0.2,0.2
				c0.1,0.1,0.2,0.3,0.3,0.5c0.1,0.3,0.2,0.5,0.2,0.6v0.4c0.1,0,0.1,0.1,0.1,0.1c0,0.1,0,0.1,0,0.2v0.6c0.1,0.1,0.2,0.2,0.3,0.3
				s0.3,0.2,0.3,0.3c0.1,0.2,0.2,0.4,0.2,0.6c0,0.2,0.1,0.4,0.1,0.6c0,0.1,0.1,0.2,0.2,0.4c0.1,0.2,0.2,0.3,0.2,0.4
				c0.1,0.1,0.1,0.2,0.1,0.4c0,0.2,0,0.3,0,0.4c0.3,0.7,0.4,1.2,0.5,1.7c0,0.1,0,0.2,0,0.2c0.1,0.2,0.1,0.3,0.1,0.5
				c0,0.2,0,0.3,0,0.4c0.1,0.1,0.2,0.3,0.3,0.6c0.2,0.3,0.3,0.5,0.3,0.6c0.1,0.2,0.2,0.4,0.3,0.7c0.1,0.3,0.2,0.5,0.3,0.7
				c0,0,0.1,0,0.1,0c0.1-0.1,0.2-0.2,0.2-0.3c0-0.1,0.1-0.2,0.1-0.3c0.3-0.4,0.5-0.8,0.7-1.2c0.1-0.3,0.1-0.6,0.1-0.9
				c0-0.4,0.1-0.7,0.2-1c0,0,0.1-0.1,0.2-0.3c0.1-0.2,0.2-0.3,0.2-0.5c0.1-0.1,0.1-0.2,0.1-0.4c0-0.1,0-0.2-0.1-0.4
				c0-0.2,0-0.3,0-0.5c0.1-0.4,0.1-0.6,0.1-0.8c0.1-1,0.2-1.7,0.3-2.1c0.1-0.1,0.1-0.3,0-0.5c0-0.2,0-0.3,0-0.4
				c0.2-0.8,0.4-1.4,0.4-1.7c0-0.1,0-0.2,0-0.3c0-0.1,0-0.3-0.1-0.4s-0.1-0.3-0.1-0.4c0,0,0-0.1,0-0.1c0-0.1,0-0.2,0-0.3
				c-0.1-0.3-0.1-0.6-0.1-0.7c0-0.2,0-0.5,0.1-0.7c0-0.1,0-0.2,0-0.3c0-0.1,0-0.3,0-0.3c0-0.2,0.1-0.4,0.1-0.7
				c0.1-0.3,0.1-0.5,0.1-0.8c0.1-0.1,0.1-0.3,0-0.4c-0.1-0.1-0.1-0.3-0.1-0.4v-0.1c0.1-0.2,0.1-0.7,0.1-1.5c0.1-0.1,0.2-0.2,0.3-0.3
				c0.1-0.2,0.2-0.3,0.3-0.4c0.1-0.1,0.2-0.1,0.4-0.1c0.1,0,0.3,0,0.3,0c0.8,0,1.2,0.3,1.5,1.1c0.1,0.2,0.2,0.4,0.2,0.8
				c0,0.1,0,0.2,0,0.3c0,0.1-0.1,0.2-0.1,0.2c0,0.2,0,0.5,0,1c0,0.5-0.1,0.9-0.1,1.2l0.2,2.2c0,0.1-0.1,0.3-0.2,0.5
				s-0.1,0.4-0.2,0.5c0,0.1,0,0.1,0,0.2c0,0.1,0,0.1,0,0.2l0,1.4c0,0.3,0,0.5,0,0.7l-0.2,1c-0.2,1-0.3,1.6-0.4,2c0,0.1,0,0.2,0,0.4
				c0,0.2,0,0.4,0.1,0.6c0,0.2,0.1,0.4,0.1,0.6c0,0.1,0,0.3-0.1,0.4c0,0.1-0.1,0.1-0.2,0.2c0,0.2,0,0.4,0,0.6c0,0.1-0.1,0.2-0.3,0.4
				c-0.1,0.2-0.2,0.3-0.3,0.4c0.1,0.1,0.1,0.2,0.1,0.3c-0.1,0.2-0.1,0.6-0.2,1c-0.1,0.5-0.2,0.8-0.3,1.1c0,0.1-0.1,0.1-0.2,0.2
				c-0.1,0.1-0.1,0.2-0.1,0.3l0,0.1c-0.1,0.1-0.2,0.1-0.3,0.2c0,0.1,0,0.2,0,0.4c0,0.2-0.1,0.4-0.1,0.5c0,0.1-0.1,0.3-0.3,0.5
				c-0.1,0.2-0.2,0.4-0.2,0.5l0,0.3v0c0,0.2,0,0.4-0.1,0.6c-0.1,0.2-0.2,0.4-0.3,0.5c0,0.1-0.1,0.1-0.2,0.1c-0.1,0-0.2,0-0.3,0.1
				c-0.1,0.1-0.2,0.2-0.4,0.3c-0.2,0.2-0.4,0.3-0.5,0.3c-0.2,0.1-0.3,0.1-0.4,0.1c-0.3,0-0.7-0.1-1-0.3c-0.3-0.2-0.6-0.4-0.8-0.5
				c0-0.1,0-0.2-0.1-0.3c0-0.1,0-0.2-0.1-0.3c-0.1-0.1-0.2-0.2-0.3-0.4c-0.1-0.2-0.2-0.3-0.3-0.4c0-0.1,0-0.1,0-0.2
				c0-0.1,0-0.1,0-0.2c0-0.1,0-0.2-0.1-0.2c0-0.1-0.1-0.1-0.4-0.2c0-0.1,0-0.3-0.1-0.5l-0.5-0.8c-0.4-0.6-0.7-1.1-0.8-1.5
				c-0.1-0.4-0.1-0.7-0.2-0.9c0,0,0,0-0.1-0.1c-0.1,0-0.1,0-0.1-0.1c0-0.4,0-0.7,0-0.9c-0.1-0.2-0.1-0.5-0.1-0.7
				c0-0.3-0.1-0.5-0.1-0.6c-0.1-0.1-0.1-0.2-0.2-0.3c-0.1-0.1-0.2-0.3-0.3-0.4c0-0.1,0-0.4-0.1-0.7l-0.2-0.2c0-0.1,0-0.2-0.1-0.4
				c0-0.2,0-0.3-0.1-0.4c0-0.1-0.1-0.1-0.1-0.2c-0.1-0.1-0.1-0.2-0.1-0.2c0-0.1,0-0.2,0-0.3c0-0.1,0-0.2,0-0.2
				c0-0.2-0.3-0.6-0.8-1.4c0-0.3-0.1-0.5-0.2-0.6c0,0-0.1-0.1-0.1-0.1c-0.1,0-0.1-0.1-0.1-0.1c-0.1-0.2-0.2-0.6-0.2-1
				c0-0.1,0-0.2,0-0.4c0-0.2-0.1-0.3-0.1-0.5c-0.1-0.2-0.2-0.4-0.4-0.6c-0.2-0.2-0.3-0.4-0.4-0.4l0-0.3c0-0.1-0.1-0.1-0.2-0.2
				c-0.1-0.1-0.2-0.1-0.2-0.2c-0.1-0.1-0.1-0.2-0.1-0.4c0-0.2,0-0.4-0.1-0.5c0-0.1-0.1-0.1-0.2-0.3c-0.1-0.1-0.2-0.2-0.3-0.3h-0.1
				v0.2c0,0.1,0,0.3,0,0.4c0,0.2,0.1,0.3,0.1,0.5c0,0.1,0,0.1,0,0.2c-0.1,0.2-0.1,0.6-0.1,1l0,1c0.1,0.5,0.1,0.9,0.1,1.1
				c0,0.3,0,0.6,0,0.8c0,0.2,0,0.5,0,0.8c0,0.5,0.1,1.1,0.2,1.9c0,0.1,0,0.3,0,0.6c0,0.3,0,0.5,0,0.6c0,0.1,0.1,0.2,0.1,0.4
				c0.1,0.1,0.1,0.2,0.1,0.3c0.1,0.2,0.1,0.4,0,0.7c-0.1,0.3-0.1,0.6-0.1,0.7l0.2,0.3c0.1,0.3,0.1,0.5,0.1,0.6c0,0.2,0,0.5-0.1,0.8
				c0,0.1,0,0.2,0,0.3c0,0.1,0,0.2,0,0.3c0,0.1,0,0.3,0,0.5c-0.1,0.2-0.1,0.4-0.1,0.6c0,0.1,0,0.2,0,0.3c0.1,0.3,0.1,0.6,0.1,0.8
				v0.4c0,0,0,0.1-0.1,0.3c0,0.1-0.1,0.3-0.1,0.4l0,0.2c0,0.1,0.1,0.3,0.1,0.6c0.1,0.3,0.1,0.6,0.1,0.8c0,0.2,0,0.3-0.1,0.6
				c0,0.2-0.1,0.4-0.2,0.7c-0.1,0.3-0.1,0.5-0.1,0.8c0,0.2,0,0.5,0.1,0.7c0.1,0.3,0.1,0.4,0.1,0.5c0,0.1,0,0.3-0.1,0.5
				c-0.1,0.2-0.2,0.4-0.2,0.5c-0.1,0.1-0.3,0.2-0.6,0.3c-0.3,0.2-0.6,0.2-0.8,0.2c-0.1,0-0.1,0-0.2-0.1c-0.1,0-0.1,0-0.1,0
				S170.6,332.2,170.4,332.1z"/>
			<path class="st1" d="M199.4,304c0.6,0,1.1,0.2,1.8,0.4c0.6,0.3,1.1,0.6,1.6,0.9c0.1,0.1,0.2,0.1,0.4,0.2c0.2,0.1,0.3,0.2,0.3,0.3
				c0.1,0.1,0.1,0.2,0.1,0.4h-0.1c0.1,0.1,0.1,0.4,0,0.7c-0.2,0.4-0.3,0.6-0.3,0.6c-0.2,0-0.4,0.1-0.6,0.2c-0.2,0.1-0.4,0.1-0.5,0.1
				l-0.2,0c0-0.1,0-0.1-0.1-0.2c-0.1,0-0.2,0-0.3,0c-0.1,0-0.3,0-0.4,0c-0.1-0.1-0.2-0.2-0.4-0.4l-0.5-0.1c-0.1,0-0.1-0.1-0.2-0.1
				c-0.1-0.1-0.2-0.1-0.3-0.1c-0.1,0-0.4,0-0.9,0.1c-0.1,0-0.3,0.1-0.4,0.1c-0.2,0-0.3,0-0.5,0c-0.1,0.2-0.3,0.4-0.6,0.5
				c-0.3,0.2-0.5,0.3-0.6,0.3c-0.1,0.1-0.2,0.2-0.3,0.5c-0.1,0.2-0.2,0.4-0.2,0.5l-0.4,0.2c-0.4,0.6-0.7,1.1-0.8,1.6
				c-0.1,0.2-0.1,0.4-0.1,0.7c0,0.3,0,0.6-0.1,0.7c-0.2,0.2-0.3,0.5-0.4,0.8c0,0.1,0,0.1,0,0.2c0,0.1,0,0.2,0,0.3v0.1l-0.2,0.4
				c0,0.1,0,0.2,0,0.3c0,0.1,0,0.2,0,0.2c0,0.7-0.1,1.2-0.2,1.6c0,0.2,0,0.4,0,0.6c0.1,0.2,0.1,0.4,0.1,0.5c0,0.1,0,0.3-0.1,0.4
				c0,0.1-0.1,0.2-0.1,0.3c0,0.2,0,0.5,0.1,0.8c0.1,0.3,0.1,0.5,0.1,0.6c0.1,0.1,0.1,0.3,0,0.5c-0.1,0.2-0.1,0.4-0.1,0.4
				c-0.1,0.4-0.1,0.6-0.1,0.8c0,0.1,0.1,0.2,0.1,0.2c0.1,0.1,0.1,0.2,0.2,0.2c0.1,0.2,0.1,0.4,0.2,0.8c0.1,0.4,0.1,0.7,0.2,0.8
				l0.3,0.8c0.1,0.1,0.1,0.2,0.2,0.4c0.1,0.1,0.1,0.3,0.2,0.4c0.1,0.1,0.1,0.3,0.1,0.5c0,0.2,0.1,0.3,0.1,0.5c0,0,0,0.1,0,0.2
				c0,0.1,0,0.2,0.1,0.3c0.1,0.1,0.2,0.2,0.4,0.3s0.3,0.2,0.3,0.3c0.1,0.3,0.1,0.5,0.1,0.6c0.1,0.3,0.4,0.7,0.9,1.1
				c0.4,0.4,0.8,0.7,1.1,0.7c0.1-0.1,0.2-0.1,0.3-0.1c0.1,0,0.3,0,0.3-0.1c0.2-0.1,0.4-0.3,0.7-0.5c0.3-0.2,0.4-0.4,0.5-0.5
				c0.1-0.2,0.1-0.3,0.2-0.4c0.1-0.1,0.2-0.2,0.4-0.3s0.3-0.3,0.4-0.4c0.1-0.1,0.1-0.2,0.1-0.3c0-0.1,0-0.2,0.1-0.3
				c0.1-0.1,0.1-0.2,0.2-0.3c0.1-0.1,0.2-0.3,0.2-0.4c0-0.1,0-0.3,0-0.5l0-0.9c0-0.1,0-0.2,0-0.3c0.4-1.7,0.6-3.1,0.6-4
				c-0.1-0.1-0.2-0.1-0.3-0.2c-0.1-0.1-0.2-0.1-0.3-0.1c0,0-0.1,0-0.2,0c-0.1,0-0.2,0.1-0.3,0.1l-0.1,0c-0.1,0-0.2-0.1-0.4-0.2
				c-0.2-0.1-0.4-0.1-0.6-0.1c0,0-0.1,0-0.2,0c-0.1,0-0.3,0-0.4,0c-0.3-0.1-0.8-0.3-1.5-0.5c-0.1,0-0.2,0-0.4,0s-0.3,0-0.4-0.1
				c-0.1,0-0.3-0.2-0.6-0.4c-0.3-0.3-0.5-0.4-0.5-0.5c0,0,0-0.2-0.1-0.4c-0.1-0.2-0.1-0.4-0.1-0.6c0-0.1,0-0.2,0-0.3
				c0.1-0.2,0.2-0.5,0.4-0.6c0.2-0.2,0.3-0.3,0.4-0.3c0.1,0,0.2,0,0.3,0c0.1,0,0.2,0,0.3,0h0.1c0.2,0,0.5,0.1,0.8,0.2
				c0.3,0.1,0.5,0.2,0.7,0.3c0.1,0,0.2,0,0.4,0h0.4c0.2,0,0.3,0,0.4,0.1c0.1,0,0.1,0.1,0.2,0.1c0.1,0.1,0.1,0.1,0.2,0.1
				c0.2,0,0.4,0,0.7,0c0.3,0,0.5,0,0.6,0.1c0.1,0.1,0.3,0.1,0.5,0.1c0.2,0,0.3,0.1,0.4,0.1l0.2,0.2h0.4c0.2,0.1,0.5,0.2,0.8,0.5
				c0.3,0.3,0.5,0.5,0.5,0.7c0.3,0.6,0.4,1.3,0.4,2.1c0,0.6-0.1,1.4-0.3,2.3c0,0,0,0.1,0,0.4c0,0.3,0,0.6-0.1,0.9
				c-0.1,0.2-0.2,0.7-0.3,1.5c-0.1,0.7-0.2,1.2-0.3,1.4c0,0.2,0,0.4,0,0.4c0,0.1-0.1,0.2-0.1,0.3c-0.1,0.1-0.1,0.2-0.1,0.2l0,0.2
				c0,0.1-0.1,0.2-0.3,0.4c-0.2,0.2-0.3,0.3-0.4,0.4v0.4c-0.1,0.1-0.1,0.3-0.3,0.5c-0.1,0.2-0.2,0.3-0.3,0.4L203,330
				c-0.1,0.1-0.2,0.2-0.4,0.3s-0.4,0.2-0.5,0.3c-0.1,0-0.1,0.1-0.3,0.3c-0.1,0.2-0.2,0.3-0.3,0.4c0,0-0.1,0-0.2,0
				c-0.1,0-0.2,0-0.3,0c0,0,0,0.1,0,0.1c0,0,0,0.1,0,0.1c-0.1,0.1-0.2,0.1-0.4,0.1c-0.2,0-0.3,0.1-0.4,0.1l-0.2,0.2
				c-0.2,0.1-0.6,0.2-1,0.3s-0.9,0.1-1.3,0.1c-0.4,0-0.7,0-1-0.1c-0.4-0.1-0.8-0.4-1.2-0.9c0-0.1,0-0.1,0-0.2c-0.1,0-0.1,0-0.2,0
				c-0.1,0-0.1,0-0.2,0c-0.1-0.1-0.2-0.3-0.3-0.5c-0.1-0.2-0.2-0.4-0.2-0.5c-0.1-0.1-0.3-0.3-0.4-0.4c-0.1-0.1-0.3-0.2-0.4-0.4
				c-0.1-0.1-0.1-0.2-0.1-0.4c0-0.2-0.1-0.3-0.1-0.3l-0.2,0v-0.4c-0.1-0.1-0.1-0.1-0.2-0.1s-0.1-0.1-0.2-0.1
				c-0.1-0.1-0.1-0.2-0.1-0.3c0-0.1,0-0.2-0.1-0.3c0,0-0.1-0.1-0.1-0.2c-0.1-0.1-0.1-0.2-0.1-0.2c-0.1-0.1-0.1-0.3-0.1-0.4v-0.3
				v-0.1l-0.1-0.3l0-0.3c0-0.1-0.2-0.2-0.4-0.5c-0.2-0.3-0.4-0.4-0.4-0.5c-0.1-0.1-0.1-0.3-0.1-0.5c0-0.2-0.1-0.5-0.1-0.6v-0.1
				c0-0.1,0-0.3,0-0.5c0-0.2,0-0.3,0-0.4c-0.1-0.1-0.1-0.2-0.2-0.3c-0.1-0.1-0.1-0.2-0.2-0.3c-0.1-0.3-0.2-0.7-0.2-1
				c0-0.2,0-0.5,0.1-1l0-0.8c0-0.2,0-0.4,0-0.5c0-0.1,0-0.1,0-0.3c0-0.1,0-0.2,0-0.3v-0.1c0-0.1,0-0.4,0-0.9s0-0.8,0-0.9
				c0.1-0.3,0.1-0.7,0.1-1.2v-0.2c0-0.1,0-0.3,0-0.5c0-0.2,0.1-0.4,0.1-0.5v-0.2l0-0.4c0-0.4,0.1-0.8,0.2-1.1
				c0.1-0.4,0.2-0.7,0.3-0.8c0.1-0.1,0.1-0.3,0.1-0.5c0-0.2,0.1-0.4,0.1-0.5c0-0.2,0.1-0.4,0.2-0.6c0.1-0.2,0.2-0.4,0.3-0.5
				c0-0.1,0.1-0.2,0.1-0.4c0-0.2,0.1-0.3,0.1-0.4c0.1-0.2,0.2-0.4,0.5-0.6c0.3-0.3,0.4-0.5,0.5-0.6c0-0.1,0.1-0.1,0.1-0.1
				c0.1,0,0.1,0,0.1-0.1c0-0.1,0-0.2,0-0.4c0.2-0.3,0.4-0.5,0.4-0.6c0.1-0.1,0.2-0.1,0.4-0.2c0.1,0,0.2-0.1,0.3-0.1
				c0.4-0.2,0.8-0.4,1.4-0.8l1.9-0.6c0.1,0,0.3,0,0.5-0.1c0.2,0,0.3,0,0.3,0S199.3,304,199.4,304z"/>
			<path class="st1" d="M217.1,304.1c0.2,0,0.4,0,0.7,0h0.7c0,0,0.1,0,0.2,0c0.1,0,0.1,0,0.2,0c0.1,0,0.4,0.1,0.7,0.1
				c0.3,0.1,0.6,0.2,0.8,0.3l0.3,0.3c0.1,0,0.1,0,0.2,0s0.1,0,0.2,0l0.2,0.3c0.1,0.1,0.2,0.1,0.3,0.1c0.1,0,0.2,0.1,0.2,0.1
				c0,0,0,0.1,0.1,0.1c0,0,0,0.1,0.1,0.1c0,0,0.1,0,0.1,0.1c0.1,0,0.1,0,0.1,0.1c0.1,0.1,0.2,0.3,0.3,0.5c0.1,0.2,0.1,0.4,0.2,0.5
				c0,0,0.1,0.1,0.2,0.1c0.1,0.1,0.1,0.1,0.2,0.2c0.1,0.1,0.2,0.3,0.2,0.5s0.1,0.4,0.2,0.5c0.1,0.1,0.2,0.3,0.5,0.7
				c0.2,0.4,0.4,0.7,0.5,1c0.1,0.5,0.1,1,0.2,1.2c-0.1,0.2-0.2,0.4-0.2,0.6l0,0.2l0.2,0.5l0,0.3v0.1l0.2,0.1c0,0.1,0,0.2,0,0.3
				c0,0.1-0.1,0.3-0.1,0.3v0.1c0.1,0.7,0.2,1.4,0.1,2c-0.1,0.4-0.1,0.7-0.1,0.8v0.1c0.1,0.3,0.1,0.8,0.1,1.5c0,0.6,0,1,0,1.4
				c0,0.4,0,0.7,0,0.9c0,0.1,0,0.1,0,0.2l-0.3,0.8c0,0.1,0,0.1,0,0.2c0,0.1,0,0.1,0,0.1c0,0.1,0,0.2,0,0.4c-0.1,0.2-0.1,0.3-0.1,0.5
				v0.1c0,0.1,0,0.1,0,0.2c0,0.1,0,0.2,0,0.3c0,0.1,0,0.1,0,0.2c-0.1,0.1-0.1,0.2-0.2,0.4c-0.1,0.1-0.2,0.3-0.3,0.5
				c0,0.1,0,0.1,0,0.2c0,0.1,0.1,0.2,0.1,0.3c0,0.1,0,0.2-0.1,0.3c0,0.1-0.2,0.4-0.4,0.8c-0.1,0.1-0.1,0.3-0.1,0.6
				c0,0.3-0.1,0.4-0.1,0.5c-0.1,0.1-0.2,0.3-0.3,0.5c-0.1,0.2-0.3,0.3-0.3,0.5l0.1,0.2c0,0-0.1,0-0.1,0.1c-0.1,0-0.1,0-0.1,0.1
				c-0.1,0.1-0.1,0.2-0.2,0.3c0,0.1-0.1,0.2-0.1,0.3c-0.2,0.1-0.3,0.2-0.3,0.2c-0.1,0.1-0.1,0.2-0.1,0.4c0,0.2-0.1,0.4-0.2,0.5
				c0,0.1-0.1,0.1-0.3,0.2c-0.2,0.1-0.3,0.1-0.3,0.2c-0.1,0.1-0.2,0.3-0.3,0.5c-0.1,0.2-0.2,0.4-0.3,0.5c-0.1,0.1-0.2,0.1-0.4,0.2
				c-0.2,0-0.3,0.1-0.4,0.1c-0.1,0.1-0.1,0.1-0.2,0.2c-0.1,0.1-0.1,0.1-0.2,0.2l-0.3,0.1c0,0,0,0.1,0,0.1s0,0.1,0,0.1
				c-0.1,0.1-0.3,0.1-0.6,0.1c-0.3,0-0.5,0.1-0.6,0.1c-0.1,0-0.2,0-0.2,0c-0.1-0.1-0.1-0.1-0.1-0.1c-0.1,0-0.2,0-0.3,0
				c-0.1,0-0.2,0-0.3,0c-0.1,0-0.2,0-0.2,0c-0.7-0.2-1.4-0.5-2.1-0.8c-0.1-0.1-0.3-0.1-0.4-0.1c-0.2,0-0.3-0.1-0.4-0.2
				c0,0,0-0.1-0.1-0.2c0-0.1,0-0.1-0.1-0.2c-0.3-0.3-0.6-0.6-0.8-0.8c-0.1-0.2-0.2-0.3-0.4-0.3h-0.2c-0.1-0.1-0.1-0.2-0.2-0.3
				s-0.1-0.3-0.2-0.4h-0.2c-0.1-0.1-0.1-0.1-0.1-0.2c0-0.1-0.1-0.2-0.1-0.2c0-0.1-0.1-0.1-0.2-0.1c-0.1,0-0.1-0.1-0.2-0.1l-0.4-1.1
				v-0.4c0-0.1-0.1-0.2-0.2-0.3c-0.1-0.1-0.2-0.2-0.3-0.3c-0.1-0.2-0.1-0.4-0.1-0.7c0-0.3-0.1-0.6-0.1-0.7c0-0.1-0.1-0.3-0.1-0.4
				c-0.1-0.1-0.1-0.3-0.1-0.4c0-0.1,0-0.3,0-0.6c0-0.1-0.1-0.2-0.2-0.4s-0.1-0.3-0.2-0.4l0-0.8c-0.1-0.3-0.1-0.6-0.1-1
				c0-0.3,0-0.6,0.1-0.9c0.1-0.3,0-0.6-0.1-1c-0.1-0.4-0.2-0.7-0.2-0.9c0-0.1,0-0.3,0.1-0.6s0.1-0.6,0.2-0.8c0-0.1,0-0.5-0.2-1.1
				c-0.1-0.3,0-0.7,0.1-1.1c0.1-0.5,0.2-0.8,0.2-0.9c0-0.1,0-0.2,0-0.4v-0.4c0-0.2,0-0.4,0.1-0.5l0.8-2.3c0.1-0.2,0.1-0.3,0.1-0.5
				c0-0.2,0.1-0.3,0.1-0.5c0.1-0.1,0.1-0.2,0.3-0.3s0.2-0.2,0.2-0.3l0.2-0.6c0.1-0.3,0.4-0.6,0.8-1.1c0.4-0.5,0.7-0.8,1-0.9
				c0.1-0.1,0.1-0.1,0.2-0.1c0.1,0,0.2,0,0.3-0.1l1.7-0.8c0.2-0.1,0.6-0.1,1.1-0.1c0.1,0,0.2,0,0.5,0c0.2,0,0.4,0,0.4,0
				S217,304.2,217.1,304.1z M214.3,308.2l-0.4,0.1c-0.1,0.6-0.3,1.2-0.6,1.6c-0.1,0.1-0.1,0.2-0.3,0.3c-0.1,0.1-0.2,0.2-0.2,0.3v0.5
				l-0.2,0.4c0,0.1,0,0.1,0,0.2c0,0.1,0,0.2,0,0.3c0,0.1,0,0.1,0,0.2c-0.1,0.1-0.1,0.2-0.2,0.3c-0.1,0.1-0.2,0.2-0.2,0.4l0,1
				c-0.2,0.6-0.3,1.3-0.3,2.2c0,0.1,0,0.4,0.1,0.8l0.1,1.3c0,0.1,0,0.1,0,0.2c0,0.1,0,0.1,0,0.2c0,0.1,0,0.1,0,0.3
				c0,0.1,0,0.3,0,0.4l-0.2,0.2c0,0.1,0,0.1,0,0.1c0,0,0,0.1,0,0.1c0,0.1,0,0.1,0,0.3c0,0.1,0,0.3,0,0.4l0,0.2
				c0,0.1,0.1,0.3,0.1,0.4c0,0.1,0.1,0.2,0.1,0.3v0.6l0.2,0.2c0,0.7,0,1.2,0,1.5c0,0.1,0.1,0.2,0.2,0.3c0.1,0.1,0.1,0.2,0.2,0.2
				c0.1,0.1,0.2,0.3,0.2,0.5c0.1,0.2,0.1,0.4,0.1,0.5c0,0.2,0,0.4,0.1,0.7c0,0.3,0,0.5,0.1,0.7c0.1,0.3,0.3,0.6,0.5,0.9
				c0.2,0.3,0.5,0.5,0.9,0.8c0.4,0.3,0.6,0.4,0.8,0.5c0.1,0.1,0.1,0.1,0.2,0.2c0,0.1,0.1,0.2,0.1,0.2c0.1,0.1,0.2,0.2,0.5,0.3
				c0.3,0.1,0.5,0.2,0.6,0.2c0.4-0.1,0.7-0.1,1-0.3c0.3-0.1,0.6-0.3,0.7-0.5c0.1-0.1,0.1-0.2,0.1-0.3c0-0.1,0.1-0.2,0.1-0.2
				c0.1-0.1,0.2-0.2,0.3-0.3c0.1-0.1,0.2-0.2,0.3-0.3c0.1-0.1,0.1-0.2,0.2-0.4c0.1-0.2,0.1-0.3,0.2-0.4l0.3-0.3
				c0.1-0.1,0.2-0.4,0.4-0.9c0.1-0.4,0.2-0.7,0.3-0.8l0.3-0.3c0.1-0.1,0.1-0.3,0.1-0.5c0-0.3,0-0.5,0-0.6c0.1-0.1,0.1-0.2,0.2-0.3
				c0.1-0.1,0.1-0.2,0.2-0.3c0.1-0.2,0.1-0.4,0.1-0.5l0-0.8c0-0.2,0-0.4,0-0.5c0-0.2,0.1-0.4,0.2-0.5c0.1-0.1,0.2-0.3,0.2-0.4
				c0.1-0.1,0-0.2,0-0.3c-0.1-0.1-0.1-0.2-0.1-0.2c0-0.1,0-0.2,0-0.4c0-0.1,0-0.2,0-0.3c0-0.1,0-0.2,0-0.3l0-0.3
				c0-0.2,0-0.5,0.1-0.9c0.1-0.4,0.1-0.8,0-1c0-0.1,0-0.2,0-0.4c0-0.3,0-0.6,0.1-0.8c0-0.2,0-0.4-0.1-0.6c-0.1-0.2-0.1-0.4-0.2-0.5
				c-0.1-0.2,0-0.4,0.1-0.7c0.1-0.3,0.1-0.5,0.1-0.6c0-0.1-0.1-0.2-0.1-0.2c0-0.1-0.1-0.2-0.1-0.2c0-0.1-0.1-0.3-0.1-0.6
				c0-0.2-0.1-0.4-0.1-0.6c-0.2-0.6-0.6-1.4-1-2.3c0-0.1-0.1-0.2-0.1-0.5c-0.1-0.2-0.1-0.4-0.2-0.5c0-0.1-0.1-0.1-0.2-0.1
				c-0.1,0-0.2-0.1-0.2-0.1c-0.1-0.1-0.1-0.2-0.2-0.3c-0.1-0.1-0.1-0.2-0.3-0.3c-0.1-0.1-0.4-0.1-0.9-0.1c-0.3,0-0.6,0-0.9,0.1
				c-0.2,0-0.3,0-0.5-0.1c-0.2-0.1-0.3-0.1-0.4-0.1h-0.1c-0.1,0-0.2,0.1-0.3,0.2c-0.1,0.1-0.2,0.1-0.3,0.2c-0.1,0.1-0.3,0.1-0.6,0.2
				c-0.3,0.1-0.5,0.1-0.6,0.2c-0.1,0-0.1,0.1-0.2,0.2c-0.1,0.1-0.1,0.2-0.2,0.2V308.2z"/>
		</g>
		<g class="st0">
			<path class="st1" d="M346.5,330.7c-0.2,0.1-0.4,0.2-0.5,0.4c-0.1,0.2-0.3,0.3-0.4,0.4l-0.8,0.2c-0.1,0.1-0.2,0.2-0.4,0.3
				c-0.2,0.1-0.3,0.2-0.5,0.3c-0.3,0.1-0.6,0.1-0.9,0.1c-0.5,0-0.9,0-1.4-0.1c-0.5-0.1-0.8-0.2-1-0.3c-0.2-0.1-0.4-0.3-0.6-0.5
				s-0.4-0.5-0.5-0.5c0-0.1-0.1-0.1-0.2-0.2c-0.1-0.1-0.2-0.1-0.3-0.2c-0.1-0.1-0.1-0.2-0.2-0.4c-0.1-0.1-0.1-0.3-0.2-0.4
				c-0.1-0.1-0.2-0.2-0.4-0.3c0-0.4-0.1-0.9-0.3-1.5c-0.3-0.6-0.4-0.9-0.5-1.1l0-0.2c0-0.3-0.1-0.9-0.4-1.6c0-0.1,0-0.3,0-0.5
				c0-0.2,0-0.3,0-0.4c0,0-0.1-0.1-0.2-0.2c-0.1-0.2-0.2-0.8-0.2-1.7c0-0.4,0-0.6,0-0.6c0.1-0.2,0.2-0.4,0.4-0.5
				c0.2-0.2,0.4-0.3,0.6-0.3c0.1,0.1,0.3,0.1,0.6,0.1s0.4,0,0.6,0.1c0.1,0.1,0.3,0.2,0.4,0.3c0.1,0.2,0.2,0.4,0.3,0.6
				c0.1,0.2,0.1,0.4,0.2,0.6c0.3,0.6,0.5,1.1,0.6,1.6c0.1,0.3,0.1,0.6,0.1,0.9c0,0.3,0,0.5,0,0.7c0,0.2,0,0.4,0,0.6
				c0,0.2,0.1,0.3,0.3,0.6c0.2,0.2,0.3,0.4,0.3,0.5c0.1,0.1,0.1,0.2,0.1,0.3c0,0.2,0.1,0.3,0.1,0.4c0.2,0.1,0.3,0.2,0.4,0.3
				c0.1,0.1,0.1,0.2,0.2,0.3c0.1,0.1,0.1,0.3,0.2,0.4c0,0.1,0.1,0.1,0.3,0.2c0.2,0.1,0.3,0.2,0.3,0.3c0.8,0.1,1.4-0.1,1.7-0.5
				s0.6-1,0.7-1.8c0.1-0.8,0.1-1.4,0.1-1.6c0-0.1,0-0.2,0-0.5c-0.1-0.2-0.1-0.4-0.1-0.6v-0.1c0-0.1,0-0.4,0-0.7
				c0-0.4-0.1-1.2-0.2-2.5l0.1-0.2c0-0.1,0-0.2,0-0.3c0-0.3,0-0.5-0.1-0.6c0.1-0.3,0.1-0.6,0.1-0.8c-0.1-0.3-0.1-0.7-0.2-1.2
				c0-0.2-0.1-0.4-0.1-0.8c0-0.4-0.1-0.7-0.2-1c0-0.1,0-0.2,0-0.3c0-0.1,0.1-0.1,0.1-0.2c0.1-0.2,0-0.6-0.1-1.3c0-0.1,0-0.2,0-0.4
				c0.1-0.2,0.1-0.3,0.1-0.4s0-0.1,0-0.2l0-0.8c0-0.2,0-0.3,0-0.4c0-0.1,0-0.3-0.1-0.4c-0.1-0.1-0.1-0.2-0.1-0.3c0-0.3,0-0.5,0-0.7
				c0-0.2,0-0.4,0-0.5c0-0.3,0-0.5-0.1-0.6c0-0.1,0-0.2,0-0.3c0-0.2,0-0.4,0.1-0.5c0.1-0.2,0.1-0.3,0.1-0.4c0-0.1,0-0.5-0.2-1.1
				c-0.1,0-0.3,0-0.7,0c0,0-0.1,0-0.4,0l-1.1,0c-0.1,0-0.2,0-0.4,0.2c-0.1,0.1-0.4,0.1-0.8,0.1c-0.3,0-0.5,0-0.6,0.1
				c-0.8-0.5-1.2-1-1.1-1.4c0.1-0.1,0.2-0.2,0.3-0.2c0-0.1,0-0.3,0.1-0.4c0-0.1,0-0.2,0.1-0.3c0.1-0.1,0.3-0.3,0.6-0.4
				s0.7-0.2,1.1-0.3c0.4-0.1,0.7-0.1,0.8-0.2c0.1,0,0.2,0,0.3,0s0.2,0.1,0.3,0.1h0.1c0.1-0.1,0.2-0.2,0.2-0.2c0.2,0,0.5,0,0.9,0
				c0.1,0,0.3,0,0.6,0c0.3,0,0.9,0,1.8,0.1l0.4-0.1c0.1,0,0.2,0,0.4,0c0.4,0,0.8,0,1,0.1c0.1,0,0.1,0,0.2-0.1
				c0.1-0.1,0.2-0.1,0.3-0.1c0.1-0.1,0.3-0.1,0.4,0c0.1,0,0.2,0,0.3,0c0.2,0,0.4,0,0.7-0.1c0.3,0,0.5,0,0.6-0.1
				c0.2,0.1,0.4,0.2,0.6,0.3c0.2,0.1,0.4,0.2,0.6,0.3c0.2,0.2,0.4,0.6,0.4,1c0,0.4-0.1,0.7-0.4,0.9c-0.2,0.1-0.4,0.2-0.8,0.2
				c-0.3,0-0.6,0-0.8,0.1c-0.4,0.1-0.7,0.1-0.8,0.1c-0.1,0-0.2,0-0.4,0s-0.3,0-0.4,0c-0.8,0.1-1.4,0.2-1.9,0.2v0.4
				c0.1,0.2,0.2,0.4,0.2,0.6c0,0.3,0,0.5,0,0.6c0.2,0.6,0.2,1.4,0.2,2.4c0,0.2,0,0.5,0,0.8c0,0.3,0.1,0.6,0.1,0.8c0,0.1,0,0.2,0,0.3
				c0,0.1-0.1,0.3-0.1,0.4s0,0.2,0,0.3c0.1,0.1,0.1,0.3,0.1,0.6c0,0.3-0.1,0.8-0.2,1.2c0.2,0.4,0.3,0.9,0.5,1.6c0,0.1,0,0.3,0,0.7
				v0.6c0,0.2,0,0.4,0,0.6c-0.1,0.2-0.1,0.4-0.1,0.5v0.2c0.3,0.8,0.4,1.5,0.4,2.3c0,0.5,0,0.8-0.1,1c0,0.1,0,0.3,0.1,0.4
				c0.1,0.1,0.1,0.2,0.1,0.3c0.1,0.8,0.1,1.3,0.1,1.8c0,0.3-0.1,0.7-0.3,1.2c-0.1,0.2-0.1,0.4,0,0.6c0,0.3,0.1,0.4,0.1,0.5v0.1
				c0,0.1,0,0.1-0.1,0.2c-0.1,0.1-0.1,0.1-0.1,0.2v0.4c-0.1,0.1-0.1,0.3-0.2,0.5c-0.2,0.1-0.4,0.2-0.6,0.5
				C346.6,330.3,346.5,330.5,346.5,330.7z"/>
			<path class="st1" d="M371.2,304.2c0.4,0.2,0.7,0.6,0.9,1.1c0.2,0.5,0.3,1.1,0.3,1.9s0,1.2,0,1.3c0,0.8,0.1,1.4,0.2,1.9
				c-0.1,0.2-0.1,0.6-0.1,1.1l0.1,1c0,0.1,0,0.3,0,0.6c0,0.2-0.1,0.4-0.1,0.6c0,0.1,0,0.3,0.1,0.4c-0.1,0.2-0.1,0.5-0.1,0.7v0.1
				c0.1,0.3,0.2,0.5,0.2,0.8l0,0.4c-0.1,0.2-0.1,0.5-0.1,0.8v0.1c0.2,0.4,0.2,0.7,0.2,0.9v0.1l-0.2,0.8l0.2,0.8l-0.3,1.7
				c-0.1,0.1-0.1,0.3,0,0.4c0,0.1,0,0.2,0,0.3c-0.1,0.1-0.2,0.2-0.2,0.3c-0.1,0.1-0.1,0.3,0,0.4c0,0.1,0,0.3,0,0.4
				c-0.1,0.2-0.2,0.4-0.4,0.7c-0.2,0.3-0.3,0.6-0.4,0.8c0,0.1,0,0.3,0,0.6c0,0.1-0.1,0.2-0.2,0.3s-0.2,0.3-0.2,0.4
				c-0.1,0.1-0.1,0.2-0.1,0.3c0,0.1,0,0.2-0.1,0.3c-0.1,0.1-0.2,0.2-0.4,0.3c-0.2,0.1-0.3,0.3-0.3,0.4v0.4c0,0.1-0.1,0.3-0.1,0.5
				s-0.1,0.4-0.2,0.6c0,0.1-0.1,0.1-0.2,0.3c-0.1,0.1-0.2,0.2-0.2,0.3c-0.1,0.2-0.2,0.5-0.4,0.9c-0.2,0.4-0.3,0.7-0.5,0.8
				c-0.1,0-0.1,0-0.2,0c-0.1,0-0.1,0-0.2,0.1c-0.1,0.1-0.2,0.2-0.3,0.3c-0.1,0.1-0.2,0.3-0.3,0.3c-0.1,0-0.2,0-0.2,0
				c-0.1,0-0.1,0.1-0.1,0.1c0,0.1,0,0.1-0.1,0.1c-0.1,0.1-0.4,0.2-1,0.4c-0.5,0.2-0.9,0.2-1,0.2l-0.3-0.2c-0.3-0.1-0.5-0.1-0.6-0.1
				l-0.7,0c-0.3,0-0.5,0-0.6-0.1s-0.2-0.1-0.4-0.2s-0.3-0.2-0.4-0.2c-0.1-0.1-0.2-0.1-0.4-0.2c-0.2-0.1-0.4-0.1-0.5-0.2l-0.1-0.2
				c-0.1-0.1-0.1-0.1-0.3-0.1c-0.1,0-0.2-0.1-0.3-0.1l0-0.2l-0.2,0c-0.1-0.1-0.2-0.3-0.3-0.6c-0.1-0.1-0.1-0.1-0.2-0.1
				c-0.1-0.1-0.2-0.2-0.2-0.4c-0.1-0.2-0.1-0.4-0.2-0.5c-0.1-0.1-0.2-0.2-0.2-0.2c-0.1-0.1-0.2-0.2-0.2-0.2
				c-0.1-0.1-0.2-0.2-0.2-0.4c-0.1-0.2-0.2-0.3-0.2-0.5c-0.1-0.1-0.2-0.1-0.3-0.2c-0.1-0.1-0.2-0.1-0.2-0.2
				c-0.1-0.1-0.1-0.2-0.1-0.4v-0.2c0-0.1,0-0.2,0-0.3c-0.1-0.1-0.1-0.3-0.3-0.5c-0.1-0.2-0.2-0.4-0.2-0.5c-0.1-0.2-0.1-0.4-0.1-0.7
				c0-0.3,0-0.5-0.1-0.7c0-0.1-0.1-0.3-0.2-0.6c-0.1-0.3-0.2-0.6-0.3-0.8c-0.1-0.1-0.1-0.1-0.2-0.1v-0.5l-0.2-0.3c0-0.1,0-0.2,0-0.4
				s0-0.3,0-0.4c-0.2-0.5-0.3-1.2-0.5-1.9c-0.2-0.8-0.2-1.4-0.2-1.9c0-0.2,0-0.4,0.1-0.6c0.1-0.3,0-0.5-0.1-0.8
				c-0.1-0.3-0.2-0.4-0.2-0.5c-0.1-0.2-0.1-0.3-0.1-0.4c0-0.1,0-0.3,0.1-0.4c0.1-0.1,0.1-0.2,0.1-0.2c0-0.1,0-0.3,0-0.6
				c0-0.5,0-1-0.1-1.5c0-0.1,0-0.2,0-0.3c0.1-0.1,0.1-0.2,0.1-0.2c0-0.1,0-0.3,0-0.5s-0.1-0.4-0.1-0.5c0-0.2,0-0.3,0-0.4
				c0-0.1,0-0.1,0-0.1l-0.2-0.8c0-0.5,0-0.8,0-1c-0.1-0.2-0.1-0.4-0.1-0.4l0-0.2c0-0.3,0-0.5,0-0.7c0-0.2,0-0.4,0-0.5
				c0-0.5,0.1-0.8,0.2-1c0.1-0.1,0.2-0.1,0.3-0.2c0.2-0.2,0.3-0.3,0.4-0.4c0.1-0.1,0.3-0.1,0.6-0.1c0.1,0.1,0.2,0.2,0.4,0.3
				s0.3,0.2,0.4,0.4c0,0,0,0.1,0,0.2s0,0.2,0,0.3c0,0.1,0.1,0.2,0.1,0.3c0.1,0.1,0.1,0.3,0.2,0.4v0.6l0.1,0.1c0,0.1,0,0.2,0,0.4
				c0,0.1,0,0.2,0.1,0.3c0,0.1,0.1,0.2,0.1,0.3v0.6c0,0,0.1,0.1,0.2,0.2l0,0.6c-0.1,0-0.1,0.1-0.1,0.2c0,0.1,0,0.1,0,0.2
				c0,0.1,0.1,0.2,0.1,0.2c0,0.1,0,0.2,0,0.3c0,0.1,0,0.3,0.1,0.4c0.1,0.2,0,0.5,0,0.8c-0.1,0.3-0.1,0.6-0.1,0.7
				c0,0.1,0,0.2,0.1,0.3c0,0.1,0.1,0.2,0.1,0.3c0,0.2,0,0.5,0,0.9c0,0.4,0,0.7,0.1,0.9c0,0.2,0,0.4,0,0.7c0,0.3-0.1,0.6-0.1,0.8
				c0,0.2,0,0.4,0.1,0.5c0,0.1,0.1,0.2,0.2,0.3c0.1,0.1,0.1,0.3,0.2,0.4l0,0.5c-0.1,0.2,0,0.3,0,0.5s0.1,0.2,0.1,0.3
				c0,0,0,0.1-0.1,0.1c0,0.1,0,0.1,0,0.2c0.4,1.3,0.7,2.4,1,3.4l0.2,0.8c0.1,0.1,0.1,0.3,0.1,0.4c0,0.2,0,0.3,0,0.5
				c0,0.1,0.1,0.3,0.3,0.6s0.3,0.4,0.3,0.5c0.1,0.1,0.1,0.3,0.1,0.6c0,0.3,0.1,0.5,0.2,0.6c0.1,0.1,0.3,0.3,0.5,0.4
				c0.2,0.2,0.3,0.3,0.4,0.4c0.1,0.1,0.2,0.3,0.3,0.6c0.1,0.3,0.3,0.5,0.5,0.7c0.2,0.2,0.4,0.3,0.8,0.3c0.1,0.1,0.5,0.1,1,0.1h0.6
				c0.1-0.1,0.2-0.3,0.4-0.5c0.2-0.2,0.3-0.3,0.3-0.5c0-0.1,0-0.4,0.1-0.7c0.1-0.1,0.2-0.2,0.3-0.4c0.2-0.2,0.3-0.3,0.3-0.4
				c0-0.2,0-0.4,0-0.5s0.1-0.3,0.1-0.5c0.1-0.2,0.1-0.4,0.2-0.5c0.1-0.1,0.2-0.3,0.4-0.5s0.3-0.3,0.3-0.4c0-0.1,0.1-0.2,0.1-0.4
				s0.1-0.3,0.1-0.4c0.4-0.7,0.7-1.5,0.9-2.4c0-0.1,0-0.3,0-0.4c0-0.2-0.1-0.3-0.1-0.4c0-0.3,0.1-0.6,0.2-0.9
				c-0.1-0.3-0.1-0.8-0.1-1.4c0-0.1,0.1-0.3,0.1-0.6c0-0.2,0-0.4,0-0.6c0-0.4,0-0.7,0-0.8c-0.1-0.7-0.2-1.2-0.2-1.6
				c0-0.1,0-0.4,0-0.8c0-0.4,0-0.7,0-0.9c0-0.1,0.1-0.2,0.1-0.3c0-0.1,0-0.2,0-0.2v-0.1c0-0.2-0.1-0.6-0.2-1.2c0-0.1,0-0.3,0.1-0.4
				c0-0.1,0.1-0.3,0.1-0.4l0-0.2c0-0.1,0-0.3,0-0.5v-0.5v-0.2c-0.1-0.4-0.2-0.8-0.2-1.2c0-0.2,0-0.3,0-0.4c0-0.2,0-0.4-0.1-0.7
				c-0.1-0.3-0.1-0.6-0.1-0.7c0-0.2,0.1-0.4,0.2-0.5c0.1-0.2,0.3-0.3,0.6-0.4s0.5-0.2,0.8-0.3c0.1-0.1,0.1-0.1,0.2-0.1s0.2,0,0.2,0
				C371.1,304.2,371.2,304.2,371.2,304.2C371.2,304.2,371.2,304.2,371.2,304.2z"/>
			<path class="st1" d="M388.1,322.2c-1.5-0.1-2.8-0.2-3.7-0.5c-0.1,0-0.2,0-0.4,0l-0.8,0c-0.2,0-0.3,0-0.4,0
				c-0.4-0.1-1.1-0.2-2.1-0.2c0,0.5-0.1,0.8-0.2,0.9c-0.1,0.1-0.1,0.1-0.1,0.2s-0.1,0.1-0.1,0.1l0,0.7c0,0.1-0.1,0.3-0.2,0.5
				c0,0.1,0,0.2,0,0.3s0.1,0.1,0.1,0.2c0,0.1-0.1,0.2-0.1,0.3c0,0.1-0.1,0.2-0.1,0.2c-0.1,0.1-0.1,0.2,0,0.3s0,0.2,0,0.2
				c0,0.1,0,0.3-0.1,0.4s-0.1,0.2-0.1,0.3c0,0.1,0,0.2,0,0.4c0,0.2,0,0.3,0,0.5s0,0.3-0.1,0.5c0,0.1-0.1,0.3-0.2,0.5
				c-0.1,0.2-0.2,0.4-0.2,0.5v0.8c0,0.1,0,0.1-0.1,0.2s-0.1,0.2-0.1,0.3c-0.1,0.1-0.1,0.3,0,0.5c0,0.3,0,0.5,0,0.6
				c-0.1,0.2-0.2,0.3-0.3,0.5s-0.2,0.3-0.2,0.4c-0.1,0.1-0.1,0.1-0.1,0.2c0,0.1,0,0.2-0.1,0.3c-0.1,0.2-0.2,0.4-0.3,0.5
				s-0.2,0.3-0.3,0.4c-0.1,0-0.3,0-0.4,0.1s-0.2,0.1-0.3,0.1l0,0c-0.1,0-0.2-0.1-0.4-0.1c-0.2,0-0.4-0.1-0.5-0.1
				c-0.5-0.3-0.8-0.8-0.8-1.5c0-0.5,0.1-1,0.3-1.6c0.2-0.6,0.3-1,0.4-1.1c0-0.1,0-0.3,0-0.5V328c0-0.2,0-0.3,0-0.4
				c0.1-0.3,0.2-0.8,0.3-1.5l0.2-1c0-0.1,0-0.2,0-0.4c0-0.2-0.1-0.4-0.1-0.6c0-0.1,0-0.3,0.1-0.5c0.1-0.2,0.2-0.7,0.5-1.5
				c0.1-0.2,0.1-0.3,0.1-0.5l0-0.5c0-0.2,0-0.4,0-0.4c0-0.1,0.1-0.3,0.2-0.5c0.1-0.2,0.2-0.3,0.2-0.4v-0.6c0.2-0.8,0.3-1.3,0.3-1.5
				c0-0.1,0-0.2,0-0.3s-0.1-0.2-0.1-0.3v-0.1c0.1-0.2,0.2-0.4,0.3-0.6c0.2-0.2,0.3-0.5,0.4-0.6c0.1-0.2,0.1-0.5,0.1-0.8l0-0.8
				c0-0.3,0-0.6,0.1-0.9c0.1-0.3,0.3-0.8,0.5-1.4c0.1-0.1,0.1-0.2,0.2-0.4c0.1-0.1,0.1-0.3,0.2-0.5c0-0.1,0-0.2,0-0.4v-0.4v-0.2
				c0.1-0.2,0.2-0.5,0.4-0.9c0.2-0.4,0.3-0.6,0.4-0.7c0.1-0.2,0.2-0.4,0.2-0.6c0-0.3,0-0.5,0.1-0.6c0.2-0.6,0.5-1,0.8-1.3
				c0.3-0.3,0.8-0.6,1.5-1c0.1-0.1,0.2-0.1,0.2-0.2c0.1-0.1,0.1-0.1,0.2-0.2c0.1-0.1,0.5-0.2,1-0.3s0.8-0.2,1-0.2
				c0.1,0,0.3,0.1,0.4,0.1c0.1,0.1,0.3,0.1,0.5,0.2c0,0.1,0.1,0.1,0.1,0.1c0.1,0,0.1,0.1,0.1,0.1c0.1,0.1,0.1,0.3,0.2,0.4
				c0,0.1,0.1,0.2,0.2,0.3c0.2,0.2,0.3,0.3,0.4,0.4c0.1,0.1,0.1,0.3,0.2,0.5c0.1,0.2,0.1,0.4,0.2,0.6l0.2,0.1
				c0.1,0.1,0.1,0.2,0.2,0.4c0.1,0.2,0.1,0.3,0.2,0.4l0.2,0.2v0.3c0,0,0,0.1,0.1,0.1c0.1,0,0.1,0.1,0.1,0.1v0.4l0.2,0.5
				c0,0.1,0.1,0.2,0.3,0.5c0.1,0.2,0.2,0.4,0.3,0.5c0,0.1,0,0.3,0,0.5c0,0.2,0,0.4,0,0.4c0,0.2,0.1,0.4,0.2,0.8s0.2,0.6,0.3,0.7
				c0,0.1,0,0.2,0,0.3c0,0.1,0,0.2,0,0.3v0l0.2,0.2c0.1,0.1,0.1,0.1,0.1,0.3s0,0.2,0.1,0.3l0.2,0l0,0.7c0.1,0.1,0.1,0.3,0.2,0.5
				c0.1,0.2,0.2,0.4,0.2,0.6c0.1,0.2,0.1,0.4,0.1,0.5c0,0.2,0,0.4-0.1,0.6c0,0.2-0.1,0.4-0.1,0.6c0,0.2,0,0.3,0,0.4
				c0,0.1,0.1,0.3,0.2,0.5c0.1,0.2,0.2,0.3,0.2,0.4c0,0.1,0,0.2,0,0.3c0,0.1-0.1,0.2-0.1,0.2c0.1,0.4,0.2,0.8,0.2,1.2l0,0.5
				c0,0,0,0.1,0.1,0.1s0.1,0.1,0.1,0.1c0,0.2,0,0.5,0,0.8s0,0.6,0,0.7c0,0.1,0,0.3,0,0.4c0,0.3,0,0.7,0.1,1c0.1,0.4,0.1,0.6,0.2,0.7
				c0,0,0,0.1,0,0.2c0,0.1,0,0.2,0,0.2c0,0.1,0,0.3,0,0.6c0,0.1,0,0.3,0,0.5c0,0.2,0,0.4,0,0.7c0,0.2,0.1,0.4,0.1,0.7
				c0,0.3,0.1,0.5,0.1,0.7c0,0.1,0,0.2,0,0.4c0,0.2,0,0.3,0,0.4c0,0.1,0,0.1,0,0.2c-0.2,0.4-0.3,0.7-0.4,1c-0.1,0.1-0.1,0.3-0.1,0.4
				s0,0.2,0,0.2c-0.1,0.1-0.2,0.2-0.3,0.3c-0.2,0.1-0.3,0.2-0.3,0.2l-1.3,0c-0.1-0.1-0.2-0.2-0.4-0.2c-0.1,0-0.1-0.1-0.2-0.2
				c-0.1-0.1-0.1-0.1-0.2-0.2c0-0.2,0-0.4-0.1-0.6s-0.1-0.3-0.1-0.4c-0.1-0.3-0.1-0.5-0.1-0.6s0-0.2,0-0.4s0-0.3,0-0.4l0-1.5l0-0.4
				v-0.1c-0.1-0.2-0.1-0.4-0.2-0.5c-0.1-0.2-0.2-0.4-0.2-0.5c-0.1-0.3-0.1-0.5-0.1-0.6c0-0.4,0.1-0.8,0.2-1.2
				C388.1,322.8,388.1,322.3,388.1,322.2C388.1,322.3,388.1,322.2,388.1,322.2z M384.3,308.3c-0.1,0.1-0.1,0.1-0.1,0.1
				c0,0-0.1,0.1-0.1,0.1c-0.1,0.2-0.2,0.4-0.3,0.8s-0.2,0.6-0.2,0.7v0.5l-0.1,0c-0.1,0.1-0.1,0.2-0.2,0.4c-0.1,0.2-0.1,0.3-0.1,0.3
				c0,0.1-0.1,0.3-0.1,0.6s-0.1,0.5-0.1,0.6c-0.1,0.1-0.1,0.2-0.3,0.3c-0.1,0.1-0.2,0.3-0.2,0.4c0,0.1,0,0.1,0,0.1c0,0,0,0.1,0,0.1
				c-0.1,0.1-0.1,0.3-0.1,0.5c0,0.2,0,0.3-0.1,0.5c0,0.1-0.1,0.3-0.2,0.5c-0.1,0.2-0.1,0.3-0.1,0.4c0,0,0,0.1,0.1,0.1
				c0,0.1,0,0.1,0,0.2c-0.1,0.2-0.2,0.4-0.3,0.8s-0.3,0.6-0.4,0.8l0,0.8l0.1,0.1c0.1,0,0.3,0.1,0.6,0.2c0.3,0.1,0.4,0.1,0.5,0.1
				l0.4,0h0.1l0.7,0.2c0.2,0,0.5,0,0.9,0c0.4,0,0.7,0.1,1,0.1c0.1-0.1,0.2-0.1,0.3-0.1h0.1c0.1,0,0.4,0.1,0.8,0.3
				c0.4,0.1,0.7,0.2,0.8,0.1c0-0.1,0-0.2,0-0.4c0-0.3,0-0.7-0.1-1.2c-0.1-0.5-0.1-0.9-0.2-1.2c-0.1-0.2-0.1-0.3-0.2-0.4
				c-0.1-0.1-0.2-0.3-0.2-0.4c-0.1-0.2-0.1-0.5-0.1-0.8c0-0.3,0-0.6-0.1-0.8c0-0.1-0.1-0.2-0.1-0.3c-0.1-0.1-0.1-0.2-0.1-0.3
				c0-0.1,0-0.3-0.1-0.5c0-0.3,0-0.4-0.1-0.5c-0.1-0.1-0.1-0.1-0.2-0.1c-0.1,0-0.1-0.1-0.1-0.1c-0.2-0.5-0.3-0.9-0.4-1.4
				c0-0.1-0.1-0.3-0.1-0.5c-0.1-0.2-0.1-0.4-0.2-0.7l0-0.4c-0.1-0.1-0.1-0.1-0.2-0.2c-0.1-0.1-0.2-0.1-0.3-0.2H384.3z"/>
			<path class="st1" d="M396.9,332.1c0-0.4-0.1-0.9-0.2-1.3c-0.2-0.4-0.3-0.7-0.4-0.9c0-0.2,0-0.4,0-0.6c0.1-0.2,0.1-0.4,0.1-0.6
				v-0.2c-0.1-0.5-0.2-1-0.2-1.7c0-0.1,0.1-0.3,0.1-0.6c0.1-0.3,0.1-0.5,0.1-0.7c0-0.2,0-0.3,0-0.4c-0.1-0.8-0.2-1.2-0.2-1.2
				c0.1-0.3,0.2-0.5,0.2-0.6s0-0.2,0-0.3c0-0.1,0-0.2-0.1-0.3c-0.1-0.1-0.1-0.2-0.1-0.3c0-0.1,0-0.2,0-0.4c0-0.1,0-0.3,0-0.6
				c0-0.3,0-0.5-0.1-0.7c0-0.1,0-0.3,0-0.5c0-0.2,0-0.4-0.1-0.5c0.1-0.2,0.1-0.4,0.1-0.8c0-0.2,0-0.3,0-0.4c0-0.1-0.1-0.2-0.1-0.3
				s-0.1-0.2-0.1-0.3c0-0.2,0-0.4,0-0.6c0-0.2,0-0.3,0-0.5c0-0.3,0-0.7,0-1.2c-0.1-0.4-0.2-1-0.2-1.8c0-0.8,0.1-1.3,0.2-1.6
				c0-0.1,0-0.2-0.1-0.4s-0.1-0.3-0.1-0.4l0-0.4c0.1-0.1,0-0.5-0.1-1c0-0.6,0-1,0-1.3c0.1-0.1,0.1-0.1,0-0.3c0-0.2,0-0.7,0.1-1.5
				c0.1-0.8,0.2-1.3,0.3-1.5l0.3-0.4c0.1-0.1,0.1-0.2,0.2-0.4s0.1-0.3,0.2-0.3c0.1-0.1,0.2-0.1,0.4-0.1c0.1-0.1,0.3-0.2,0.4-0.2
				c0.1,0,0.3,0,0.4,0.1c0.2,0,0.3,0.1,0.4,0.1c0.3,0.1,0.6,0.1,0.7,0.3c0.2,0.1,0.3,0.3,0.5,0.6c0.2,0.3,0.4,0.4,0.5,0.5
				c0.4,0.2,0.6,0.4,0.6,0.6c0.1,0.1,0.1,0.2,0.2,0.3s0.1,0.2,0.1,0.3c0.1,0,0.1,0.1,0.2,0.2c0,0.1,0,0.2,0,0.3
				c0.1,0.1,0.1,0.3,0.2,0.4c0.1,0.2,0.2,0.3,0.3,0.6c0.3,0.5,0.5,0.9,0.6,1.2c0.1,0.1,0.1,0.2,0.2,0.4c0.1,0.2,0.1,0.3,0.2,0.4
				c0.3,0.3,0.5,0.6,0.6,0.9c0,0.1,0,0.3,0,0.6c0.1,0.1,0.2,0.2,0.2,0.3c0.1,0.1,0.1,0.1,0.2,0.2c0.1,0.1,0.2,0.3,0.3,0.5
				c0.1,0.3,0.2,0.5,0.2,0.6v0.4c0.1,0,0.1,0.1,0.1,0.1c0,0.1,0,0.1,0,0.2v0.6c0.1,0.1,0.2,0.2,0.3,0.3s0.3,0.2,0.3,0.3
				c0.1,0.2,0.2,0.4,0.2,0.6c0,0.2,0.1,0.4,0.1,0.6c0,0.1,0.1,0.2,0.2,0.4c0.1,0.2,0.2,0.3,0.2,0.4c0.1,0.1,0.1,0.2,0.1,0.4
				c0,0.2,0,0.3,0,0.4c0.3,0.7,0.4,1.2,0.5,1.7c0,0.1,0,0.2,0,0.2c0.1,0.2,0.1,0.3,0.1,0.5c0,0.2,0,0.3,0,0.4
				c0.1,0.1,0.2,0.3,0.3,0.6c0.2,0.3,0.3,0.5,0.3,0.6c0.1,0.2,0.2,0.4,0.3,0.7c0.1,0.3,0.2,0.5,0.3,0.7c0,0,0.1,0,0.1,0
				c0.1-0.1,0.2-0.2,0.2-0.3c0-0.1,0.1-0.2,0.1-0.3c0.3-0.4,0.5-0.8,0.7-1.2c0.1-0.3,0.1-0.6,0.1-0.9c0-0.4,0.1-0.7,0.2-1
				c0,0,0.1-0.1,0.2-0.3s0.2-0.3,0.2-0.5c0.1-0.1,0.1-0.2,0.1-0.4c0-0.1,0-0.2-0.1-0.4c0-0.2,0-0.3,0-0.5c0.1-0.4,0.1-0.6,0.1-0.8
				c0.1-1,0.2-1.7,0.3-2.1c0.1-0.1,0.1-0.3,0-0.5c0-0.2,0-0.3,0-0.4c0.2-0.8,0.4-1.4,0.4-1.7c0-0.1,0-0.2,0-0.3c0-0.1,0-0.3-0.1-0.4
				c0-0.2-0.1-0.3-0.1-0.4c0,0,0-0.1,0-0.1c0-0.1,0-0.2,0-0.3c-0.1-0.3-0.1-0.6-0.1-0.7c0-0.2,0-0.5,0.1-0.7c0-0.1,0-0.2,0-0.3
				c0-0.1,0-0.3,0-0.3c0-0.2,0.1-0.4,0.1-0.7c0.1-0.3,0.1-0.5,0.1-0.8c0.1-0.1,0.1-0.3,0-0.4c-0.1-0.1-0.1-0.3-0.1-0.4v-0.1
				c0.1-0.2,0.1-0.7,0.1-1.5c0.1-0.1,0.2-0.2,0.3-0.3c0.1-0.2,0.2-0.3,0.3-0.4c0.1-0.1,0.2-0.1,0.4-0.1c0.1,0,0.3,0,0.3,0
				c0.8,0,1.2,0.3,1.5,1.1c0.1,0.2,0.2,0.4,0.2,0.8c0,0.1,0,0.2,0,0.3c0,0.1-0.1,0.2-0.1,0.2c0,0.2,0,0.5,0,1c0,0.5-0.1,0.9-0.1,1.2
				l0.2,2.2c0,0.1-0.1,0.3-0.2,0.5c-0.1,0.2-0.1,0.4-0.2,0.5c0,0.1,0,0.1,0,0.2c0,0.1,0,0.1,0,0.2l0,1.4c0,0.3,0,0.5,0,0.7l-0.2,1
				c-0.2,1-0.3,1.6-0.4,2c0,0.1,0,0.2,0,0.4c0,0.2,0,0.4,0.1,0.6c0,0.2,0.1,0.4,0.1,0.6c0,0.1,0,0.3-0.1,0.4c0,0.1-0.1,0.1-0.2,0.2
				c0,0.2,0,0.4,0,0.6c0,0.1-0.1,0.2-0.3,0.4c-0.1,0.2-0.2,0.3-0.3,0.4c0.1,0.1,0.1,0.2,0.1,0.3c-0.1,0.2-0.1,0.6-0.2,1
				c-0.1,0.5-0.2,0.8-0.3,1.1c0,0.1-0.1,0.1-0.2,0.2c-0.1,0.1-0.1,0.2-0.1,0.3l0,0.1c-0.1,0.1-0.2,0.1-0.3,0.2c0,0.1,0,0.2,0,0.4
				c0,0.2-0.1,0.4-0.1,0.5c0,0.1-0.1,0.3-0.3,0.5c-0.1,0.2-0.2,0.4-0.2,0.5l0,0.3v0c0,0.2,0,0.4-0.1,0.6c-0.1,0.2-0.2,0.4-0.3,0.5
				c0,0.1-0.1,0.1-0.2,0.1c-0.1,0-0.2,0-0.3,0.1c-0.1,0.1-0.2,0.2-0.4,0.3s-0.4,0.3-0.5,0.3c-0.2,0.1-0.3,0.1-0.4,0.1
				c-0.3,0-0.7-0.1-1-0.3c-0.3-0.2-0.6-0.4-0.8-0.5c0-0.1,0-0.2-0.1-0.3s0-0.2-0.1-0.3c-0.1-0.1-0.2-0.2-0.3-0.4
				c-0.1-0.2-0.2-0.3-0.3-0.4c0-0.1,0-0.1,0-0.2c0-0.1,0-0.1,0-0.2c0-0.1,0-0.2-0.1-0.2c0-0.1-0.1-0.1-0.4-0.2c0-0.1,0-0.3-0.1-0.5
				l-0.5-0.8c-0.4-0.6-0.7-1.1-0.8-1.5c-0.1-0.4-0.1-0.7-0.2-0.9c0,0,0,0-0.1-0.1c-0.1,0-0.1,0-0.1-0.1c0-0.4,0-0.7,0-0.9
				c-0.1-0.2-0.1-0.5-0.1-0.7c0-0.3-0.1-0.5-0.1-0.6c-0.1-0.1-0.1-0.2-0.2-0.3c-0.1-0.1-0.2-0.3-0.3-0.4c0-0.1,0-0.4-0.1-0.7
				l-0.2-0.2c0-0.1,0-0.2-0.1-0.4s0-0.3-0.1-0.4c0-0.1-0.1-0.1-0.1-0.2c-0.1-0.1-0.1-0.2-0.1-0.2c0-0.1,0-0.2,0-0.3
				c0-0.1,0-0.2,0-0.2c0-0.2-0.3-0.6-0.8-1.4c0-0.3-0.1-0.5-0.2-0.6c0,0-0.1-0.1-0.1-0.1c-0.1,0-0.1-0.1-0.1-0.1
				c-0.1-0.2-0.2-0.6-0.2-1c0-0.1,0-0.2,0-0.4c0-0.2-0.1-0.3-0.1-0.5c-0.1-0.2-0.2-0.4-0.4-0.6c-0.2-0.2-0.3-0.4-0.4-0.4l0-0.3
				c0-0.1-0.1-0.1-0.2-0.2c-0.1-0.1-0.2-0.1-0.2-0.2c-0.1-0.1-0.1-0.2-0.1-0.4c0-0.2,0-0.4-0.1-0.5c0-0.1-0.1-0.1-0.2-0.3
				c-0.1-0.1-0.2-0.2-0.3-0.3h-0.1v0.2c0,0.1,0,0.3,0,0.4c0,0.2,0.1,0.3,0.1,0.5c0,0.1,0,0.1,0,0.2c-0.1,0.2-0.1,0.6-0.1,1l0,1
				c0.1,0.5,0.1,0.9,0.1,1.1c0,0.3,0,0.6,0,0.8c0,0.2,0,0.5,0,0.8c0,0.5,0.1,1.1,0.2,1.9c0,0.1,0,0.3,0,0.6c0,0.3,0,0.5,0,0.6
				c0,0.1,0.1,0.2,0.1,0.4c0.1,0.1,0.1,0.2,0.1,0.3c0.1,0.2,0.1,0.4,0,0.7c-0.1,0.3-0.1,0.6-0.1,0.7l0.2,0.3
				c0.1,0.3,0.1,0.5,0.1,0.6c0,0.2,0,0.5-0.1,0.8c0,0.1,0,0.2,0,0.3c0,0.1,0,0.2,0,0.3c0,0.1,0,0.3,0,0.5c-0.1,0.2-0.1,0.4-0.1,0.6
				c0,0.1,0,0.2,0,0.3c0.1,0.3,0.1,0.6,0.1,0.8v0.4c0,0,0,0.1-0.1,0.3s-0.1,0.3-0.1,0.4l0,0.2c0,0.1,0.1,0.3,0.1,0.6
				c0.1,0.3,0.1,0.6,0.1,0.8c0,0.2,0,0.3-0.1,0.6c0,0.2-0.1,0.4-0.2,0.7s-0.1,0.5-0.1,0.8c0,0.2,0,0.5,0.1,0.7
				c0.1,0.3,0.1,0.4,0.1,0.5c0,0.1,0,0.3-0.1,0.5c-0.1,0.2-0.2,0.4-0.2,0.5c-0.1,0.1-0.3,0.2-0.6,0.3c-0.3,0.2-0.6,0.2-0.8,0.2
				c-0.1,0-0.1,0-0.2-0.1c-0.1,0-0.1,0-0.1,0S397.1,332.2,396.9,332.1z"/>
			<path class="st1" d="M421.2,304.2c0.8,0.1,1.4,0.1,1.8,0.2c0.1,0,0.3,0,0.5,0c0.2,0,0.4,0,0.5,0c0.1,0,0.2,0,0.3,0
				c0.1,0.1,0.3,0.1,0.5,0.3s0.3,0.2,0.4,0.2c0.2,0.1,0.4,0.1,0.6,0.1c0.2,0,0.4,0.1,0.5,0.1c0.1,0,0.1,0.1,0.2,0.2s0.2,0.2,0.3,0.2
				c0.1,0.1,0.2,0.1,0.4,0.1c0.1,0,0.2,0.1,0.3,0.1c0.2,0.1,0.4,0.3,0.6,0.6c0.2,0.3,0.4,0.5,0.6,0.6c0.1,0.1,0.2,0.2,0.4,0.3
				c0.2,0.1,0.3,0.2,0.4,0.2c0,0,0,0.1,0,0.1c0,0.1,0,0.1,0,0.1c0.1,0.1,0.1,0.1,0.2,0.2c0.1,0.1,0.2,0.1,0.2,0.2
				c0.2,0.1,0.3,0.3,0.4,0.5s0.3,0.4,0.4,0.5l0.1,0.1c0.1,0.2,0.2,0.4,0.3,0.7s0.2,0.5,0.2,0.7l0.2,0.3c0,0.1,0,0.2,0.1,0.4
				s0,0.3,0.1,0.4c0.1,0.2,0.3,0.6,0.5,1c0.2,0.4,0.4,0.8,0.4,1.2c0,0.1,0,0.4-0.1,1c0,0.1-0.1,0.2-0.1,0.4c-0.1,0.2-0.1,0.4,0,0.4
				c0,0,0,0.1,0.1,0.1c0,0.1,0.1,0.1,0.1,0.2c0.1,0.2,0.1,0.5,0.1,1c0,0.5,0,0.8-0.1,1c0,0.1-0.1,0.2-0.1,0.3
				c-0.1,0.1-0.1,0.2-0.1,0.3c0,0.1,0,0.3,0,0.6c0,0.3,0,0.5-0.1,0.7l-0.3,0.6v0.5c0,0.1-0.1,0.2-0.2,0.4c-0.1,0.2-0.2,0.3-0.2,0.4
				c0,0.1,0,0.2,0,0.3c0,0.1,0,0.3-0.1,0.4l-0.2,0.1l-0.1,0.6c-0.1,0.2-0.1,0.4-0.3,0.6c-0.1,0.2-0.2,0.3-0.3,0.4c0,0.1,0,0.3,0,0.4
				c-0.1,0.1-0.1,0.1-0.2,0.2c-0.1,0-0.1,0.1-0.2,0.1c0,0.1,0,0.1,0,0.2c0,0.1,0,0.2,0,0.2c-0.1,0.1-0.2,0.3-0.4,0.5
				c-0.2,0.2-0.3,0.4-0.4,0.5l-0.2,0.7c0,0-0.1,0-0.1,0c-0.1,0-0.1,0-0.1,0c0,0,0,0.1,0,0.1s0,0.1,0,0.1l-0.4,0.4
				c-0.3,0.5-0.7,0.9-1,1.1c-0.1,0.1-0.2,0.2-0.5,0.3c-0.2,0.1-0.4,0.2-0.5,0.3c-0.3,0.3-0.4,0.4-0.4,0.4c-0.1,0.1-0.1,0.1-0.2,0.1
				s-0.2,0-0.2,0.1s-0.1,0.1-0.2,0.2c-0.1,0.1-0.2,0.2-0.2,0.2c-0.2,0.1-0.3,0.1-0.6,0.1s-0.4,0.1-0.6,0.1c-0.1,0-0.2,0.1-0.4,0.3
				c-0.2,0.2-0.3,0.3-0.4,0.3c-0.1,0.1-0.2,0.1-0.3,0.1s-0.2,0-0.3,0.1c0,0-0.1,0.1-0.1,0.1c-0.1,0.1-0.1,0.1-0.2,0.1
				c-0.1,0-0.2,0-0.4,0s-0.3,0-0.4,0c-0.1,0.1-0.3,0.1-0.4,0.2c-0.1,0.1-0.3,0.1-0.4,0.2c-0.1,0.1-0.4,0-0.7,0
				c-0.3-0.1-0.5-0.1-0.6-0.2c-0.1-0.1-0.1-0.1-0.2-0.2c-0.1-0.1-0.2-0.1-0.4-0.3c-0.2-0.1-0.3-0.2-0.4-0.3
				c-0.1-0.2-0.2-0.4-0.2-0.7c0-0.3-0.1-0.5-0.1-0.7c-0.1-0.2-0.2-0.5-0.3-0.7c-0.1-0.2-0.2-0.4-0.2-0.6c0-0.1,0-0.2,0-0.4
				c0-0.2,0-0.3,0-0.3c0.1-0.4,0-1-0.2-1.7c-0.1-0.2-0.1-0.4-0.1-0.6c0-0.1,0-0.1,0.1-0.2c0-0.1,0.1-0.1,0.1-0.2V325
				c0-0.1-0.1-0.4-0.2-1c0-0.1,0-0.1,0-0.1c0,0,0-0.1,0-0.1c0-0.5,0-0.9-0.1-1.1l0.1-1.7c-0.1-0.5-0.2-1.2-0.2-2.1
				c0-0.6,0-1,0.1-1.2c0.1-0.2,0-0.4,0-0.5c-0.1-0.2-0.1-0.3-0.1-0.4v-0.1c0-0.3,0.1-0.6,0.2-1.1l-0.1-1.5c0.1-0.6,0.2-1.1,0.2-1.5
				c0-0.4,0-0.7-0.1-0.8c0-0.1,0-0.2,0-0.4c0-0.1,0.1-0.4,0.2-0.8l0.1-1.3c0.1-0.3,0.2-0.7,0.2-0.9v-0.1c0-0.1,0-0.3,0-0.5
				c0-0.7,0.2-1.4,0.5-2.2c0.3-0.8,0.7-1.2,1-1.4v0.1h0.1c0.1,0,0.1,0,0.3,0c0.1,0.1,0.2,0.1,0.3,0.1l0.2-0.2c0.1,0,0.1,0,0.2,0
				c0.1,0,0.2,0,0.3,0C421.1,304.2,421.1,304.2,421.2,304.2C421.1,304.2,421.1,304.2,421.2,304.2z M422.1,307.3
				c-0.1,0.1-0.3,0.1-0.6,0.1c-0.2,0-0.3,0-0.3,0.1s-0.1,0.2-0.1,0.4c-0.1,0.1-0.1,0.4-0.1,0.7c0,0.3,0,0.5-0.1,0.6
				c-0.1,0.3-0.1,0.6-0.1,0.9c0,0.2,0,0.5,0.1,0.7c-0.1,0.1-0.1,0.2-0.1,0.4c0,0.2-0.1,0.3-0.1,0.5l0,0.2c0.1,0.6,0.1,1,0.1,1
				c0,0.2,0,0.4,0,0.5c0,0.1-0.1,0.2-0.1,0.3s-0.1,0.3-0.1,0.3c0.1,0.2,0.1,0.4,0.1,0.5c-0.1,0.7-0.2,1.2-0.2,1.5c0,0.3,0,0.5,0,0.6
				c0,0.1,0,0.2,0,0.4c0,0.2-0.1,0.4-0.1,0.6c0,0.1,0,0.2,0,0.3c0,0,0,0.1,0.1,0.2c0.1,0.1,0.1,0.1,0.1,0.2c0,0.8,0,1.3,0,1.5
				c0,0.2,0,0.6,0.1,1.2c0,0.1-0.1,0.3-0.2,0.7c-0.1,0.3-0.1,0.6-0.1,0.8c0.1,0.2,0.1,0.6,0.2,1c0.1,0.5,0.1,0.9,0.2,1.3
				c0,0.1,0,0.3,0,0.5c-0.1,0.3-0.1,0.4-0.1,0.5c0,0.1,0,0.2,0.1,0.3s0.1,0.2,0.1,0.3c0,0.1,0,0.3,0,0.5c0,0.2-0.1,0.4-0.1,0.5
				c0,0.2,0,0.4,0,0.6c0.1,0.2,0.1,0.4,0.1,0.6c0,0,0.1,0,0.1,0s0.1,0,0.2,0c0.2-0.2,0.4-0.3,0.6-0.4c0.2-0.1,0.5-0.1,0.8-0.2
				c0.2,0,0.5-0.1,0.8-0.2c0,0,0.1-0.1,0.1-0.1c0.1-0.1,0.1-0.1,0.2-0.1c0.6-0.3,1-0.5,1.4-0.7c0.3-0.2,0.6-0.4,0.9-0.7
				c0-0.1,0.1-0.1,0.1-0.2c0-0.1,0.1-0.1,0.1-0.2c0.1-0.1,0.2-0.1,0.3-0.3c0.2-0.1,0.3-0.2,0.4-0.3c0.1-0.2,0.2-0.4,0.3-0.6
				c0.1-0.2,0.2-0.4,0.3-0.6c0-0.1,0.1-0.2,0.2-0.2c0.1-0.1,0.1-0.2,0.2-0.3v-0.5c0-0.1,0.1-0.2,0.2-0.4c0.1-0.2,0.2-0.3,0.2-0.4
				c0.1-0.1,0.1-0.3,0-0.4c0-0.2,0-0.3,0-0.4c0.1-0.3,0.3-0.5,0.5-0.8c0.2-0.3,0.4-0.6,0.5-0.9l0-0.8c0.1-0.6,0.2-1.4,0.1-2.4
				l0.1-0.5c0-0.1,0-0.3,0-0.5c0-0.2,0-0.4,0-0.6c0.1-0.4,0.1-0.6,0.1-0.7l0-0.2c0-0.1-0.1-0.4-0.2-0.8c-0.1-0.4-0.2-0.7-0.3-1
				l-0.4-0.3v-0.2c-0.1-0.1-0.1-0.3-0.2-0.6c-0.1-0.3-0.2-0.5-0.3-0.6c-0.1-0.1-0.2-0.2-0.4-0.3c-0.2-0.1-0.4-0.2-0.4-0.3
				c-0.1-0.1-0.1-0.2-0.2-0.3c-0.1-0.1-0.1-0.2-0.2-0.3c-0.1-0.1-0.1-0.1-0.3-0.1c-0.1,0-0.2,0-0.2-0.1c-0.1,0-0.1-0.1-0.2-0.2
				s-0.1-0.2-0.1-0.3c-0.1-0.1-0.2-0.2-0.3-0.2c-0.2-0.1-0.3-0.1-0.4-0.2c-0.1-0.1-0.1-0.1-0.2-0.2c-0.1-0.1-0.1-0.1-0.2-0.2
				c-0.1-0.1-0.2-0.1-0.3-0.1c-0.1,0-0.2-0.1-0.3-0.1c-0.1,0-0.2-0.1-0.2-0.1c-0.1-0.1-0.1-0.1-0.2-0.1h-0.3
				c-0.1-0.1-0.2-0.1-0.4-0.2c-0.1-0.1-0.2-0.1-0.3-0.2c-0.1-0.1-0.3-0.1-0.5,0c-0.2,0-0.3,0.1-0.4,0.1S422.1,307.3,422.1,307.3z"/>
			<path class="st1" d="M445.9,317.2c-0.2,0-0.3,0.1-0.5,0.2c-0.2,0.1-0.3,0.2-0.4,0.2c-0.1,0-0.2,0-0.3,0c-0.2,0-0.6-0.1-1.2-0.2
				c-0.1,0-0.1,0-0.2,0.1s-0.2,0.1-0.3,0.1c-0.1,0-0.1,0-0.2,0c-0.2-0.1-0.6-0.1-1.2-0.2c-0.1,0-0.3,0-0.4,0
				c-0.1,0.1-0.2,0.1-0.2,0.1c-0.1,0-0.4,0-0.8,0c-0.4,0-0.7-0.1-0.9-0.1v0.1c-0.1,0.1-0.1,0.2,0,0.4c0,0.2,0,0.3,0,0.4
				c0,0.2-0.1,0.4-0.1,0.6c0,0.2-0.1,0.5-0.1,0.7c0,0.2,0,0.3,0,0.4l0,0.4v0.1c0,0.1,0.1,0.3,0.2,0.4c0.1,0.1,0.2,0.3,0.2,0.3
				c0,0.1,0,0.2,0,0.3c0,0.2,0,0.3,0,0.5s0,0.2,0,0.3c0.1,0.3,0.1,0.7,0.1,1.1c0,0.3,0,0.5,0,0.6c0,0.3,0,0.6,0.1,0.9
				c0,0.2,0,0.3-0.1,0.5c0,0.1,0,0.3,0,0.6c0,0.3,0.1,0.5,0.1,0.7l0,0.5c0,0.4,0.1,0.8,0.3,1.2c0.2,0.4,0.4,0.6,0.6,0.7
				c0.1,0.1,0.4,0.2,0.7,0.2c0.2,0,0.5,0,0.8-0.1c0.3-0.1,0.5-0.1,0.6-0.1c0.1,0,0.2,0,0.3,0c0.1,0,0.2,0,0.4,0l1-0.4h0.6
				c0.1,0,0.3,0,0.5-0.1s0.3,0,0.5-0.1l0.4-0.2c0.2-0.1,0.4-0.1,0.6,0c0.2,0.1,0.4,0.1,0.5,0.1c0.1,0.1,0.2,0.2,0.4,0.4
				c0.2,0.2,0.4,0.4,0.5,0.7c0.2,0.3,0.2,0.6,0.1,0.9c0,0.1-0.1,0.1-0.1,0.2c0,0.1-0.1,0.2-0.1,0.3c-0.1,0-0.2,0.1-0.4,0.2
				c-0.2,0.1-0.3,0.2-0.4,0.2l-0.2,0c-0.1,0-0.2,0-0.3,0s-0.2,0.1-0.3,0.1h-0.7c-0.1,0-0.1,0.1-0.2,0.1s-0.1,0.1-0.1,0.1
				c-0.2,0-0.5,0-0.8,0c-0.2,0.1-0.7,0.2-1.3,0.3c-0.2,0-0.4,0.1-0.7,0.1c-0.3,0.1-0.6,0.1-0.8,0.2c-0.2,0-0.5,0-0.9-0.1
				c-0.4-0.1-0.7-0.2-0.8-0.2c-0.1,0-0.3,0-0.6,0c-0.4-0.2-0.8-0.5-1.1-1c-0.1-0.1-0.2-0.1-0.3-0.3c-0.2-0.1-0.3-0.2-0.3-0.3
				c-0.5-0.8-0.9-1.7-1.1-2.9c0-0.2,0-0.5,0.1-0.9c0.1-0.4,0.1-0.7,0.1-0.8c0-0.1,0-0.2,0-0.3c0-0.1,0-0.2,0-0.2c0-0.1,0-0.1,0-0.2
				c0-0.1,0-0.2,0-0.3c0-0.2,0-0.6,0-1c0-0.2-0.1-0.5-0.2-0.9c-0.1-0.4-0.2-0.7-0.3-0.8l0-0.2c0-0.3,0-0.6-0.1-0.9
				c0-0.1,0-0.2,0-0.4c0-0.1,0.1-0.6,0.2-1.3c0.1-0.2,0-0.4,0-0.7c-0.1-0.3-0.1-0.5-0.1-0.5c0-0.5,0-1,0-1.2
				c-0.1-0.5-0.1-0.9-0.1-1.3c0-0.7,0.1-1.3,0.2-1.9v-1.4c0-0.1,0.1-0.2,0.1-0.3s0.1-0.3,0.1-0.4v-1c0.1-0.2,0.1-0.4,0.1-0.7v-0.1
				c0.1-0.2,0.1-0.5,0.2-0.9s0.2-0.8,0.3-1.1v-0.2c0.1-0.1,0.1-0.3,0.2-0.5c0.1-0.2,0.2-0.3,0.3-0.5c0.1-0.1,0.1-0.3,0.2-0.5
				c0.1-0.2,0.2-0.4,0.4-0.5l0.6-0.1c0.1-0.1,0.3-0.2,0.5-0.4c0.2-0.2,0.4-0.3,0.6-0.4c0.4-0.2,1.2-0.4,2.5-0.4c0.5,0,0.8,0,1,0
				l0.4,0c0.2,0,0.4,0,0.6,0c0.2,0,0.4,0,0.6,0c0.2,0,0.4,0,0.5,0c0.1,0,0.1,0,0.2,0c0.1,0,0.1,0,0.2,0c0.1,0,0.1,0,0.2,0.1
				c0.1,0.1,0.1,0.1,0.2,0.1c0.1,0.1,0.3,0.1,0.6,0.1c0.3,0,0.5,0,0.7,0.1c0.2,0.1,0.4,0.2,0.5,0.5c0.1,0.2,0.2,0.5,0.2,0.8
				s0,0.6-0.1,0.7c-0.2,0.1-0.4,0.2-0.6,0.4c-0.3,0.1-0.4,0.2-0.5,0.3c-0.1,0-0.2,0-0.2,0c-0.1,0-0.1,0-0.2,0c-0.1,0-0.2,0-0.3,0.1
				l-0.3-0.2c-0.1,0-0.3,0-0.5,0c-0.2,0-0.4,0-0.5,0c-0.1,0-0.2,0-0.3,0.1c-0.1,0-0.2,0.1-0.3,0.1h-1.5c-0.2-0.1-0.5-0.1-1-0.1
				c-0.2,0-0.4,0-0.6,0.1c-0.2,0.1-0.4,0.2-0.4,0.4c-0.1,0.2-0.2,0.4-0.2,0.5l-0.3,0.3c0,0.1,0,0.4,0,0.7c-0.3,0.6-0.5,1.1-0.6,1.6
				c0,0.1,0,0.3,0,0.5c0,0.2,0,0.4,0,0.5c0,0.1,0,0.2,0,0.3c0,0.1-0.1,0.4-0.2,0.9s-0.2,1.1-0.2,1.9h0c0.1-0.1,0.3-0.2,0.4-0.2
				c0.1,0,0.2,0,0.2,0c0.1,0,0.2,0,0.3,0h0.1c0.1,0,0.2-0.1,0.3-0.1c0.2-0.1,0.3-0.1,0.4-0.1h0.1c0.1,0,0.2,0.1,0.4,0.1
				c0.2,0.1,0.3,0.1,0.4,0.1l1,0.1c0.6,0,1.1,0.1,1.5,0.1s0.8,0.2,1.2,0.3c0.2,0.3,0.3,0.6,0.3,0.8c0,0.2,0,0.4,0,0.5
				c0,0.2,0,0.2,0,0.2S445.9,317,445.9,317.2z"/>
		</g>
		<g class="st0">
			<path class="st1" d="M580.9,314.8v-0.2c0.1-0.1,0.3-0.3,0.5-0.6c0.2-0.3,0.4-0.6,0.5-0.6c0.1-0.1,0.3-0.2,0.6-0.3
				c0.3-0.1,0.5-0.3,0.6-0.4c0.1-0.1,0.1-0.2,0.1-0.5c0-0.2,0.1-0.4,0.1-0.5c0.1-0.1,0.3-0.3,0.5-0.6c0.2-0.3,0.4-0.5,0.4-0.7
				c0.1-0.1,0-0.3,0-0.4c-0.1-0.1-0.1-0.2-0.1-0.2c0-0.2,0-0.3,0-0.6c-0.1-0.4-0.2-0.8-0.4-1c0,0-0.1,0-0.1,0s-0.1,0-0.1-0.1
				c0-0.1-0.1-0.1-0.1-0.2c0-0.1-0.1-0.1-0.1-0.2c-0.1-0.1-0.1-0.1-0.2-0.2c-0.1,0-0.2-0.1-0.2-0.1c-0.1-0.1-0.2-0.2-0.4-0.4
				c-0.2-0.2-0.3-0.3-0.5-0.4c-0.2-0.1-0.4-0.2-0.8-0.3c-0.3-0.1-0.7-0.1-1-0.1c-0.1,0-0.3,0-0.5,0.1c-0.1,0-0.3,0.1-0.4,0.2
				c-0.1,0.1-0.3,0.2-0.3,0.3c0,0.1-0.1,0.1-0.2,0.1c-0.1,0-0.1,0.1-0.2,0.1c-0.3,0.5-0.6,1.1-0.8,1.6c-0.1,0.1-0.2,0.3-0.3,0.6
				c-0.2,0.2-0.3,0.4-0.3,0.6c0,0.1,0,0.2-0.1,0.3c0,0.1,0,0.2-0.1,0.3c-0.2,0.2-0.3,0.4-0.3,0.6c-0.1,0.2-0.1,0.6-0.1,1l-0.2,0.7
				c-0.1,0.1-0.1,0.3,0,0.5c0,0.2,0,0.4,0,0.5c0,0.2-0.1,0.4-0.2,0.7c-0.1,0.3-0.1,0.5-0.2,0.7c0,0.1,0,0.2,0,0.3
				c0,0.2,0,0.5,0.1,0.8c0.1,0.3,0.1,0.6,0.1,0.7c0,0.1,0,0.3-0.1,0.6c-0.1,0.3-0.1,0.5-0.1,0.7c0,0.1,0,0.2,0,0.3
				c0,0.1,0,0.2,0,0.3v0.1c0,0.1-0.1,0.3-0.1,0.5c-0.1,0.2-0.1,0.3-0.1,0.5l0,0.5c0,0.2-0.1,0.3-0.1,0.4s-0.1,0.2-0.1,0.3
				c-0.1,0.3,0,0.5,0,0.6c0.1,0.2,0.1,0.3,0.2,0.3c0,0.1,0,0.2,0,0.4c0,0.2-0.1,0.8-0.2,1.6c-0.1,0.3-0.1,0.5-0.1,0.6
				c0,0.3,0,0.6,0.1,0.8c0.1,0.3,0.1,0.5,0.1,0.6c0,0.2,0,0.3,0.1,0.5c0,0.2,0,0.3,0.1,0.3c-0.1,1-0.1,1.6-0.1,1.8
				c0.1,0.5,0.2,0.8,0.2,0.9v0.1l0,0.4c0,0.2,0,0.4,0,0.6c0,0.2,0,0.4,0,0.5c0,0.3-0.1,0.6-0.4,0.8c-0.1,0.1-0.1,0.1-0.3,0.2
				c-0.1,0-0.2,0.1-0.3,0.1c-0.2,0.2-0.3,0.3-0.4,0.3c-0.1,0-0.2,0-0.4,0c-0.2,0-0.5,0-0.7-0.1c-0.2-0.1-0.4-0.2-0.5-0.3
				c-0.1-0.1-0.1-0.3-0.1-0.6l0-0.8c0-0.2,0-0.3,0-0.4c-0.1-0.6-0.2-1.5-0.2-2.6l0-1.6c0,0,0-0.1,0-0.2c0-0.1-0.1-0.2-0.1-0.3l0-1.4
				l0-0.5c0-0.1,0-0.2,0-0.3c0-0.1,0-0.2,0-0.3c0,0,0-0.1,0.1-0.1c0,0,0-0.1,0-0.2c0,0,0-0.1,0-0.1c0-0.1,0-0.1,0-0.2
				c0-0.1,0.1-0.1,0.1-0.2c0,0,0.1-0.1,0.1-0.1l-0.2-1.9l0.2-1.1c0-0.3,0-0.5-0.2-0.8c0,0,0-0.1-0.1-0.3c-0.1-0.2-0.1-0.3,0-0.5
				c0-0.1,0.1-0.4,0.3-0.8c0-0.1,0-0.2,0-0.4l0-0.6c0-0.1,0-0.2,0.1-0.3c0-0.1,0.1-0.2,0.1-0.3l0-0.2c0-0.1,0-0.2,0-0.3
				c0-0.1,0-0.2,0-0.3l0-0.2c0-0.1,0.1-0.1,0.1-0.2c0.1-0.1,0.1-0.2,0.1-0.4l0-0.8c0-0.1,0.1-0.2,0.1-0.3c0.1-0.1,0.1-0.2,0.1-0.3
				l0-1.1c0-0.1,0.1-0.2,0.2-0.4c0.1-0.2,0.2-0.4,0.2-0.5c0.1-0.1,0.1-0.2,0-0.2c0-0.1-0.1-0.1-0.1-0.2c0-0.1,0.1-0.3,0.2-0.5
				c0.1-0.2,0.1-0.4,0.1-0.4l0-0.1c0.1-0.1,0.2-0.3,0.3-0.4c0.1-0.2,0.2-0.3,0.3-0.4c0.1-0.2,0.3-0.6,0.5-1.1
				c0.2-0.5,0.4-0.9,0.6-1.2c0.1-0.1,0.1-0.2,0.3-0.2c0.1-0.1,0.2-0.2,0.3-0.2c0.1-0.1,0.1-0.2,0.2-0.3c0.1-0.1,0.1-0.3,0.2-0.3
				c0,0,0.1-0.1,0.3-0.1c0.2,0,0.3-0.1,0.3-0.1c0.1-0.1,0.2-0.2,0.3-0.4c0.1-0.2,0.3-0.3,0.4-0.3c0.2-0.1,0.5-0.1,1-0.1l1.8,0h1
				c0.2,0.1,0.4,0.1,0.7,0.3c0.3,0.1,0.5,0.2,0.7,0.3c0.1,0,0.3,0.1,0.5,0.1c0.2,0,0.4,0.1,0.6,0.2c0.1,0,0.1,0.1,0.1,0.2
				s0.1,0.2,0.2,0.3c0.1,0.1,0.1,0.1,0.2,0.2c0.1,0.1,0.2,0.1,0.2,0.2c0.1,0.2,0.2,0.4,0.3,0.5c0.1,0.1,0.1,0.3,0.2,0.4
				s0.3,0.3,0.6,0.6c0.3,0.3,0.5,0.6,0.5,0.9c-0.1,0.1,0,0.4,0.2,0.7s0.3,0.6,0.3,0.7l0,0.5c0,0.1,0,0.2,0,0.2h-0.1v0.4
				c0,0.1-0.1,0.1-0.2,0.3c-0.1,0.1-0.2,0.2-0.2,0.3c-0.1,0.1-0.1,0.2-0.1,0.3c0,0.1,0,0.2,0,0.2c0,0.1,0,0.1,0,0.2
				c-0.1,0.1-0.1,0.3-0.2,0.4c-0.1,0.2-0.2,0.3-0.2,0.4c-0.1,0.1-0.1,0.2-0.1,0.4c0,0.2-0.1,0.3-0.1,0.4c0,0-0.2,0.1-0.4,0.3
				c-0.1,0.1-0.1,0.3-0.2,0.5s-0.1,0.4-0.2,0.5c0,0.1-0.1,0.1-0.2,0.2c-0.1,0.1-0.2,0.1-0.2,0.1c-0.1,0.1-0.2,0.2-0.4,0.4
				c-0.1,0.2-0.3,0.3-0.3,0.3c0,0-0.1,0-0.2,0s-0.2,0-0.3,0.1c-0.1,0-0.1,0.1-0.2,0.2c-0.1,0.1-0.1,0.2-0.2,0.3c-0.1,0-0.1,0-0.1,0
				c0,0.1-0.1,0.1-0.1,0.2c0,0.1-0.1,0.2-0.1,0.2c-0.1,0-0.1,0.1-0.2,0.1c-0.1,0-0.1,0.1-0.2,0.1c-0.1,0.1-0.1,0.2-0.2,0.3
				c-0.1,0.1-0.1,0.2-0.2,0.3c0,0.5,0.1,1,0.3,1.4c0.2,0.5,0.3,0.8,0.4,0.9l0,0.8c0,0.1,0.1,0.2,0.1,0.3c0.1,0.1,0.1,0.2,0.2,0.3
				c0.1,0.1,0.1,0.1,0.2,0.2c0.1,0.1,0.1,0.1,0.2,0.2c0,0.1,0,0.2,0.1,0.3c0,0.1,0,0.2,0.1,0.3c0.1,0.2,0.2,0.5,0.4,0.8
				c0.1,0.2,0.3,0.4,0.5,0.8c0.3,0.5,0.6,0.9,0.7,1.2v0.5c0.2,0.3,0.4,0.9,0.6,1.7c0,0.1,0.1,0.3,0.1,0.7c0.1,0.4,0.1,0.6,0.2,0.7
				s0.1,0.1,0.2,0.1c0.1,0,0.1,0,0.2,0.1c0.1,0.2,0.1,0.3,0,0.4c0.1,0.1,0.3,0.2,0.4,0.4v0.2c0,0,0.1,0.1,0.2,0.1
				c0.1,0.1,0.2,0.1,0.2,0.2c0,0,0.1,0.1,0.2,0.2c0.1,0.1,0.1,0.2,0.1,0.3l0,0.1c0.1,0.1,0.1,0.1,0.2,0.2c0.1,0.1,0.2,0.2,0.2,0.4
				c0,0.1,0,0.2,0,0.3c0,0.1,0,0.2,0,0.3c-0.1,0.1-0.1,0.1-0.2,0.3c-0.1,0.1-0.1,0.2-0.2,0.2c-0.1,0.1-0.1,0.1-0.2,0.1
				c-0.1,0-0.2,0.1-0.3,0.1c-0.4,0-0.8,0-1.1-0.2c-0.3-0.1-0.6-0.3-0.9-0.6c-0.1-0.1-0.2-0.2-0.2-0.3c-0.1-0.1-0.2-0.1-0.3-0.1
				c-0.1,0-0.2-0.1-0.3-0.2c-0.1-0.2-0.2-0.4-0.2-0.6c-0.1-0.3-0.2-0.5-0.3-0.6c-0.1-0.1-0.1-0.2-0.2-0.2c-0.1-0.1-0.1-0.2-0.2-0.2
				c-0.1-0.1-0.1-0.3-0.1-0.5c0-0.2,0-0.3-0.1-0.4c-0.1-0.3-0.2-0.6-0.4-0.9c-0.2-0.3-0.3-0.6-0.4-0.8l-0.1-0.8
				c-0.1-0.1-0.1-0.2-0.2-0.4c-0.1-0.2-0.2-0.3-0.2-0.4c0-0.1,0-0.1,0-0.3c0-0.1-0.1-0.1-0.1-0.2c-0.1-0.1-0.1-0.1-0.1-0.2
				c-0.1-0.1-0.1-0.2-0.1-0.3s0-0.2,0-0.3c0-0.1-0.1-0.1-0.2-0.1c-0.1,0-0.1-0.1-0.2-0.1s0-0.1,0-0.2c0-0.1,0-0.2,0-0.2
				c-0.1-0.1-0.2-0.2-0.3-0.4s-0.3-0.3-0.3-0.5c-0.1-0.1-0.1-0.2-0.1-0.2c0-0.1,0-0.1,0-0.2c0-0.1,0-0.1,0-0.1
				c-0.1-0.1-0.1-0.3-0.2-0.4c-0.1-0.1-0.1-0.3-0.2-0.4l0-0.6l-0.2-0.8c-0.3-1.2-0.4-2-0.4-2.6c0-0.4,0.1-0.7,0.2-1
				c0.1-0.1,0.1-0.2,0.3-0.3c0.1-0.1,0.2-0.2,0.3-0.3c0.1-0.3,0.2-0.5,0.3-0.6s0.2-0.2,0.2-0.2S580.7,314.9,580.9,314.8z"/>
			<path class="st1" d="M603.3,322.2c-1.5-0.1-2.8-0.2-3.7-0.5c-0.1,0-0.2,0-0.4,0l-0.8,0c-0.2,0-0.3,0-0.4,0
				c-0.4-0.1-1.1-0.2-2.1-0.2c0,0.5-0.1,0.8-0.2,0.9c-0.1,0.1-0.1,0.1-0.1,0.2s-0.1,0.1-0.1,0.1l0,0.7c0,0.1-0.1,0.3-0.2,0.5
				c0,0.1,0,0.2,0,0.3c0.1,0.1,0.1,0.1,0.1,0.2c0,0.1-0.1,0.2-0.1,0.3c0,0.1-0.1,0.2-0.1,0.2c-0.1,0.1-0.1,0.2,0,0.3
				c0,0.1,0,0.2,0,0.2c0,0.1,0,0.3-0.1,0.4s-0.1,0.2-0.1,0.3c0,0.1,0,0.2,0,0.4s0,0.3,0,0.5s0,0.3-0.1,0.5c0,0.1-0.1,0.3-0.2,0.5
				c-0.1,0.2-0.2,0.4-0.2,0.5v0.8c0,0.1,0,0.1-0.1,0.2c0,0.1-0.1,0.2-0.1,0.3c-0.1,0.1-0.1,0.3,0,0.5c0,0.3,0,0.5,0,0.6
				c-0.1,0.2-0.2,0.3-0.3,0.5c-0.1,0.1-0.2,0.3-0.2,0.4c-0.1,0.1-0.1,0.1-0.1,0.2c0,0.1,0,0.2-0.1,0.3c-0.1,0.2-0.2,0.4-0.3,0.5
				s-0.2,0.3-0.3,0.4c-0.1,0-0.3,0-0.4,0.1s-0.2,0.1-0.3,0.1l0,0c-0.1,0-0.2-0.1-0.4-0.1c-0.2,0-0.4-0.1-0.5-0.1
				c-0.5-0.3-0.8-0.8-0.8-1.5c0-0.5,0.1-1,0.3-1.6c0.2-0.6,0.3-1,0.4-1.1c0-0.1,0-0.3,0-0.5V328c0-0.2,0-0.3,0-0.4
				c0.1-0.3,0.2-0.8,0.3-1.5l0.2-1c0-0.1,0-0.2,0-0.4c0-0.2-0.1-0.4-0.1-0.6c0-0.1,0-0.3,0.1-0.5c0.1-0.2,0.2-0.7,0.5-1.5
				c0.1-0.2,0.1-0.3,0.1-0.5l0-0.5c0-0.2,0-0.4,0-0.4c0-0.1,0.1-0.3,0.2-0.5c0.1-0.2,0.2-0.3,0.2-0.4v-0.6c0.2-0.8,0.3-1.3,0.3-1.5
				c0-0.1,0-0.2,0-0.3c0-0.1-0.1-0.2-0.1-0.3v-0.1c0.1-0.2,0.2-0.4,0.3-0.6c0.2-0.2,0.3-0.5,0.4-0.6c0.1-0.2,0.1-0.5,0.1-0.8l0-0.8
				c0-0.3,0-0.6,0.1-0.9c0.1-0.3,0.3-0.8,0.5-1.4c0.1-0.1,0.1-0.2,0.2-0.4c0.1-0.1,0.1-0.3,0.2-0.5c0-0.1,0-0.2,0-0.4v-0.4v-0.2
				c0.1-0.2,0.2-0.5,0.4-0.9c0.2-0.4,0.3-0.6,0.4-0.7c0.1-0.2,0.2-0.4,0.2-0.6c0-0.3,0-0.5,0.1-0.6c0.2-0.6,0.5-1,0.8-1.3
				c0.3-0.3,0.8-0.6,1.5-1c0.1-0.1,0.2-0.1,0.2-0.2c0.1-0.1,0.1-0.1,0.2-0.2c0.1-0.1,0.5-0.2,1-0.3s0.8-0.2,1-0.2
				c0.1,0,0.3,0.1,0.4,0.1s0.3,0.1,0.5,0.2c0,0.1,0.1,0.1,0.1,0.1c0.1,0,0.1,0.1,0.1,0.1c0.1,0.1,0.1,0.3,0.2,0.4
				c0,0.1,0.1,0.2,0.2,0.3c0.2,0.2,0.3,0.3,0.4,0.4c0.1,0.1,0.1,0.3,0.2,0.5c0.1,0.2,0.1,0.4,0.2,0.6l0.2,0.1
				c0.1,0.1,0.1,0.2,0.2,0.4c0.1,0.2,0.1,0.3,0.2,0.4l0.2,0.2v0.3c0,0,0,0.1,0.1,0.1c0.1,0,0.1,0.1,0.1,0.1v0.4l0.2,0.5
				c0,0.1,0.1,0.2,0.3,0.5c0.1,0.2,0.2,0.4,0.3,0.5c0,0.1,0,0.3,0,0.5c0,0.2,0,0.4,0,0.4c0,0.2,0.1,0.4,0.2,0.8s0.2,0.6,0.3,0.7
				c0,0.1,0,0.2,0,0.3c0,0.1,0,0.2,0,0.3v0l0.2,0.2c0.1,0.1,0.1,0.1,0.1,0.3s0,0.2,0.1,0.3l0.2,0l0,0.7c0.1,0.1,0.1,0.3,0.2,0.5
				c0.1,0.2,0.2,0.4,0.2,0.6c0.1,0.2,0.1,0.4,0.1,0.5c0,0.2,0,0.4-0.1,0.6c0,0.2-0.1,0.4-0.1,0.6c0,0.2,0,0.3,0,0.4
				c0,0.1,0.1,0.3,0.2,0.5c0.1,0.2,0.2,0.3,0.2,0.4c0,0.1,0,0.2,0,0.3c0,0.1-0.1,0.2-0.1,0.2c0.1,0.4,0.2,0.8,0.2,1.2l0,0.5
				c0,0,0,0.1,0.1,0.1s0.1,0.1,0.1,0.1c0,0.2,0,0.5,0,0.8s0,0.6,0,0.7c0,0.1,0,0.3,0,0.4c0,0.3,0,0.7,0.1,1c0.1,0.4,0.1,0.6,0.2,0.7
				c0,0,0,0.1,0,0.2c0,0.1,0,0.2,0,0.2c0,0.1,0,0.3,0,0.6c0,0.1,0,0.3,0,0.5s0,0.4,0,0.7c0,0.2,0.1,0.4,0.1,0.7
				c0,0.3,0.1,0.5,0.1,0.7c0,0.1,0,0.2,0,0.4c0,0.2,0,0.3,0,0.4c0,0.1,0,0.1,0,0.2c-0.2,0.4-0.3,0.7-0.4,1c-0.1,0.1-0.1,0.3-0.1,0.4
				s0,0.2,0,0.2c-0.1,0.1-0.2,0.2-0.3,0.3c-0.2,0.1-0.3,0.2-0.3,0.2l-1.3,0c-0.1-0.1-0.2-0.2-0.4-0.2c-0.1,0-0.1-0.1-0.2-0.2
				c-0.1-0.1-0.1-0.1-0.2-0.2c0-0.2,0-0.4-0.1-0.6c0-0.2-0.1-0.3-0.1-0.4c-0.1-0.3-0.1-0.5-0.1-0.6s0-0.2,0-0.4c0-0.2,0-0.3,0-0.4
				l0-1.5l0-0.4v-0.1c-0.1-0.2-0.1-0.4-0.2-0.5c-0.1-0.2-0.2-0.4-0.2-0.5c-0.1-0.3-0.1-0.5-0.1-0.6c0-0.4,0.1-0.8,0.2-1.2
				C603.3,322.8,603.3,322.3,603.3,322.2C603.3,322.3,603.3,322.2,603.3,322.2z M599.5,308.3c-0.1,0.1-0.1,0.1-0.1,0.1
				c0,0-0.1,0.1-0.1,0.1c-0.1,0.2-0.2,0.4-0.3,0.8s-0.2,0.6-0.2,0.7v0.5l-0.1,0c-0.1,0.1-0.1,0.2-0.2,0.4c-0.1,0.2-0.1,0.3-0.1,0.3
				c0,0.1-0.1,0.3-0.1,0.6s-0.1,0.5-0.1,0.6c-0.1,0.1-0.1,0.2-0.3,0.3c-0.1,0.1-0.2,0.3-0.2,0.4c0,0.1,0,0.1,0,0.1c0,0,0,0.1,0,0.1
				c-0.1,0.1-0.1,0.3-0.1,0.5c0,0.2,0,0.3-0.1,0.5c0,0.1-0.1,0.3-0.2,0.5c-0.1,0.2-0.1,0.3-0.1,0.4c0,0,0,0.1,0.1,0.1
				c0,0.1,0,0.1,0,0.2c-0.1,0.2-0.2,0.4-0.3,0.8s-0.3,0.6-0.4,0.8l0,0.8l0.1,0.1c0.1,0,0.3,0.1,0.6,0.2c0.3,0.1,0.4,0.1,0.5,0.1
				l0.4,0h0.1l0.7,0.2c0.2,0,0.5,0,0.9,0c0.4,0,0.7,0.1,1,0.1c0.1-0.1,0.2-0.1,0.3-0.1h0.1c0.1,0,0.4,0.1,0.8,0.3
				c0.4,0.1,0.7,0.2,0.8,0.1c0-0.1,0-0.2,0-0.4c0-0.3,0-0.7-0.1-1.2c-0.1-0.5-0.1-0.9-0.2-1.2c-0.1-0.2-0.1-0.3-0.2-0.4
				c-0.1-0.1-0.2-0.3-0.2-0.4c-0.1-0.2-0.1-0.5-0.1-0.8c0-0.3,0-0.6-0.1-0.8c0-0.1-0.1-0.2-0.1-0.3c-0.1-0.1-0.1-0.2-0.1-0.3
				c0-0.1,0-0.3-0.1-0.5c0-0.3,0-0.4-0.1-0.5c-0.1-0.1-0.1-0.1-0.2-0.1c-0.1,0-0.1-0.1-0.1-0.1c-0.2-0.5-0.3-0.9-0.4-1.4
				c0-0.1-0.1-0.3-0.1-0.5c-0.1-0.2-0.1-0.4-0.2-0.7l0-0.4c-0.1-0.1-0.1-0.1-0.2-0.2s-0.2-0.1-0.3-0.2H599.5z"/>
			<path class="st1" d="M614.3,304.7c0.1,0,0.2,0,0.5,0.1c0.3,0.1,0.5,0.2,0.6,0.3c0.1,0.1,0.2,0.2,0.4,0.5s0.3,0.5,0.3,0.6
				c0,0.1,0,0.1,0,0.1c0,0,0,0.1,0,0.1l0,0.7c0,0.1-0.1,0.3-0.2,0.6c0,0.1,0,0.3,0,0.6c0,0.5,0,0.9,0.1,1.2l0,1c0,0.3,0,0.5-0.1,0.7
				v1.1c-0.2,0.8-0.4,1.9-0.5,3.1c0,0.1,0,0.2,0,0.4c0,0.2,0,0.3,0,0.4c0.1,0.4,0.1,0.7,0,0.9c-0.1,0.3-0.1,0.6-0.1,1.1
				c0,0.5-0.1,0.8-0.1,1.1l-0.1,1.3v1l-0.4,1.7c0,0.1,0,0.2,0,0.3c0,0.1,0.1,0.2,0.1,0.3v0.1c0,0.1-0.1,0.4-0.3,0.7
				c-0.2,0.3-0.3,0.6-0.3,0.7c0,0.1,0,0.2,0.1,0.2c0,0.2,0,0.4,0,0.6c0,0.3-0.1,0.4-0.1,0.5c0,0.2,0,0.4-0.1,0.6s-0.1,0.4-0.1,0.5
				c0,0.1,0,0.2,0.1,0.3c0,0.1,0.1,0.2,0.1,0.4c0,0.1,0,0.2-0.1,0.4l-0.2,0.8c0,0.1,0,0.3,0,0.4c0,0.2,0,0.3,0,0.4s0,0.2-0.1,0.4
				c0,0.1-0.1,0.2-0.2,0.3c-0.1,0.1-0.2,0.2-0.3,0.2c-0.1,0-0.3,0.1-0.6,0.1s-0.4,0.1-0.6,0.1c-0.1,0-0.2,0-0.2,0L611,332
				c-0.1-0.2-0.2-0.3-0.3-0.6c-0.1-0.2-0.2-0.4-0.3-0.5c0-0.1,0-0.2,0-0.2c0-0.1,0.1-0.1,0.1-0.2c0-0.1,0-0.2,0-0.4
				c0-0.2-0.1-0.3-0.1-0.5v-0.1c0.1-0.2,0.1-0.3,0.2-0.5c0.1-0.2,0.1-0.3,0.1-0.4l-0.1-0.3V327l0.2-1c0-0.1,0-0.2,0-0.4
				c0-0.2,0-0.3,0-0.4c0-0.1,0-0.2,0-0.3c0.3-0.7,0.5-1.3,0.6-2c0.1-0.2,0.1-0.6,0-1.1l0.2-0.4c0-0.2,0-0.5,0-0.9
				c0-0.4-0.1-0.7-0.1-0.9c0-0.3,0.1-0.7,0.2-1.1c0.1-0.4,0.2-0.6,0.2-0.7c0.2-0.5,0.3-0.9,0.3-1.2c0.1-0.2,0.1-0.6,0.1-1.1l0-1.2
				c0-0.2,0-0.6,0-1l0-0.6v-0.1c0-0.1,0.1-0.1,0.1-0.1c0,0,0.1-0.1,0.1-0.1c0.1-0.2,0.2-0.5,0.2-0.8c0.2-0.8,0.3-1.3,0.2-1.5
				c0-0.1,0-0.2-0.1-0.3c0-0.1-0.1-0.3-0.1-0.4v-0.1c0.3-0.9,0.4-1.5,0.4-1.8l0-0.9c0-0.2,0-0.3,0-0.4c0.1-0.2,0.2-0.5,0.4-0.7
				c0.2-0.2,0.4-0.4,0.5-0.5C614,304.8,614.2,304.8,614.3,304.7z M614.5,300.2c0.1,0,0.2,0,0.5,0s0.4,0,0.5,0.1
				c0.3,0.1,0.5,0.3,0.7,0.6c0.2,0.3,0.2,0.6,0.2,1c0,0.1,0,0.2,0,0.4c0,0.2,0,0.3,0,0.3c-0.2,0.4-0.5,0.7-0.7,0.9s-0.6,0.3-1,0.2
				c-0.1,0-0.2,0-0.3,0c-0.1,0-0.2,0.1-0.3,0.1c-0.1,0-0.1,0-0.1,0c-0.4-0.1-0.7-0.3-0.9-0.6c-0.2-0.3-0.3-0.7-0.4-1.1
				c0-0.1,0-0.3,0-0.5c0-0.2,0.1-0.4,0.1-0.4c0.1-0.1,0.2-0.2,0.3-0.3c0.1-0.1,0.2-0.3,0.3-0.3L614.5,300.2z"/>
		</g>
	</g>
</g>
</svg>
